<?xml version="1.0" standalone="no"?>
<!DOCTYPE svg PUBLIC "-//W3C//DTD SVG 1.1//EN" "http://www.w3.org/Graphics/SVG/1.1/DTD/svg11.dtd" >
<svg xmlns="http://www.w3.org/2000/svg">
<metadata></metadata>
<defs>
<font id="fanwood_textregular" horiz-adv-x="1024" >
<font-face units-per-em="2048" ascent="1638" descent="-410" />
<missing-glyph horiz-adv-x="409" />
<glyph horiz-adv-x="2048" />
<glyph horiz-adv-x="2048" />
<glyph unicode="&#xd;" horiz-adv-x="682" />
<glyph unicode=" "  horiz-adv-x="409" />
<glyph unicode="&#x09;" horiz-adv-x="409" />
<glyph unicode="&#xa0;" horiz-adv-x="409" />
<glyph unicode="!" horiz-adv-x="534" d="M158 74.5q0 25.5 16 55.5t39 52.5t42 22.5t47.5 -13.5t51.5 -38t23 -60t-34.5 -75.5t-67.5 -40t-75 35.5t-42 61zM192 1327q0 32 23 44.5t64 12.5t57 -9.5t16 -28t-8 -140.5q-27 -412 -45 -834q0 -26 -33.5 -26t-33.5 26z" />
<glyph unicode="&#x22;" horiz-adv-x="534" d="M56 1046q0 24 9 154t11 155q8 60 72 60q32 0 48.5 -15.5t16.5 -34t-7 -48t-42.5 -145.5t-36.5 -119l-4 -12t-4 -11.5t-4 -7.5t-6 -6q-12 -4 -23 -4q-30 0 -30 34zM322 1046q0 24 9 154t11 155q8 60 72 60q32 0 48.5 -15.5t16.5 -34t-7 -48t-42.5 -145.5t-36.5 -119 l-4 -12t-4 -11.5t-4 -7.5t-6 -6q-12 -4 -23 -4q-30 0 -30 34z" />
<glyph unicode="#" horiz-adv-x="905" d="M56 346v8q0 32 28 33h142q11 0 12.5 1.5l2.5 2.5t1 3v3t0.5 5t14 109t15.5 121t0 20t-12 4h-184q-20 0 -20 32v12q0 28 20 29h194q18 0 21 2.5t16 96.5t22 164q12 89 21 96.5t30.5 7.5t27.5 -1t13 -3q15 -5 15 -17.5t-10 -75.5t-23 -146t-15.5 -100t-1 -20.5t13.5 -3.5 h134t50 1.5t2.5 8t25 167t27.5 168.5t4 10q6 12 26 12t27 -1t16 -3q17 -4 17 -17.5t-9.5 -80t-22 -146.5t-15 -97t-1 -19.5t10.5 -2.5h121q22 0 29.5 -7.5t7.5 -27.5t-5 -28q-8 -10 -28 -10h-133q-15 0 -18 -3q-2 -3 -4 -16l-36 -231q-2 -12 0 -15.5t15 -3.5h180 q18 0 23.5 -8.5t5.5 -31t-7 -29t-28 -6.5h-187q-10 0 -12 -2.5t-4 -12.5l-40 -293q-4 -22 -17.5 -26t-37 -4t-32 4t-8.5 20t22.5 162t21.5 149t-13 3h-172q-12 0 -14 -3q-3 -3 -24 -157t-24.5 -160.5t-7.5 -9.5q-8 -8 -38 -8t-39 7t-9 19t9 70.5l20 130t13 89t-0.5 20 t-16.5 2.5h-119q-20 0 -25 8.5t-5 25.5zM331.5 393q1.5 -2 16.5 -2h168q13 0 16 2.5t20.5 116.5t20 128t0 18t-15.5 4h-166q-14 0 -17.5 -3t-6.5 -25t-10.5 -70l-15 -96t-9.5 -59.5t-0.5 -13.5z" />
<glyph unicode="$" d="M112 188q0 19 28 31.5t46 12.5t29 -9.5t27.5 -33.5t41 -53.5t70.5 -56.5t82 -29.5t40 -1.5q8 2 8 16v489q0 22 -4 28.5t-32 19.5t-58 28t-67 37t-64 43t-54.5 50.5t-44.5 60.5q-39 69 -39 142.5t27.5 130.5t74.5 98q99 84 242 99q18 0 18 7l1 9v82q0 10 4 12.5t16 2.5h18 q20 -1 20 -15v-84q0 -12 11 -12q140 -10 229 -81q80 -65 80 -121q0 -16 -16 -32q-32 -30 -52.5 -30t-28.5 6.5t-12.5 17.5t-8.5 25.5t-9 30.5t-12 33t-20.5 33t-31.5 28q-46 34 -122 38q-7 0 -7 -6v-486l3 -30q0 -2 2.5 -3.5t3.5 -2t5.5 -2.5t22 -10.5t38.5 -18.5t54 -27 t54 -30.5t49 -33t45.5 -38t37 -42.5t29.5 -48q26 -58 26 -116q0 -150 -91 -244t-256 -110q-14 -2 -18.5 -5t-4.5 -13v-260q0 -16 -4 -19.5t-25.5 -3.5t-25 3.5t-3.5 21.5v258q0 11 -3.5 13.5t-17.5 4.5q-90 6 -172.5 37t-130.5 74t-48 85zM246 997q0 -45 13 -78t33 -57 t50 -47q48 -35 90 -53.5t47 -18t5 12.5v468q0 10 -2 12.5t-19.5 1.5t-47 -10t-60.5 -28.5t-55 -46.5t-39 -69t-15 -87zM542 76q0 -19 4 -23.5t17 -1.5q94 20 156.5 93.5t62.5 156.5q0 136 -154 220q-69 38 -77.5 38t-8.5 -14v-469z" />
<glyph unicode="%" horiz-adv-x="1345" d="M96 742q0 77 35 148.5t68 115.5t73 78q87 75 193 75q84 0 140.5 -56.5t112.5 -56.5q100 0 198 58q62 39 118 95q66 67 74 75q23 27 29.5 26.5t23.5 -11t17 -18.5q0 -9 -58 -93q-798 -1182 -844 -1254q-8 -14 -48 -14t-40 22q0 8 168 248q603 862 590 874q-2 0 -14 -6 q-104 -48 -203 -48l-51 2h-6t-4.5 -1t-2 -1t-1.5 -3t-0.5 -4t0 -6t0.5 -8v-29q0 -35 -4 -79.5t-36 -115.5t-80 -126t-111 -89t-128 -34t-113 32q-96 64 -96 204zM209 702q1 -52 11 -82q24 -71 94 -71q82 0 154 76q124 129 124 319q0 138 -100 138q-43 0 -93.5 -36t-92 -91.5 t-69.5 -128t-28 -124.5zM682 207q0 61 20 121t56 114t82 97q100 94 204 94t155 -62t51 -167.5t-51.5 -205.5t-134.5 -161t-160.5 -61t-125.5 32t-72 85t-24 114zM794 160q0 -60 26 -100t76.5 -40t100 31t89.5 83q91 118 91 268.5t-102 150.5q-88 0 -183 -128 q-98 -131 -98 -265z" />
<glyph unicode="&#x26;" horiz-adv-x="1345" d="M76 318q0 142 134 279q58 59 102 90.5t44 34t-3 6.5t-11 11t-14 15q-116 132 -117 242q0 139 101 232q100 93 239 93q146 -1 227 -75q58 -53 58 -136q0 -157 -258 -332q-22 -14 -23 -20t9 -14t33 -27t63 -55t86 -84q65 -67 116.5 -122.5t55 -54.5t14 20t36.5 65 q28 46 44 75q46 81 45 109q0 4 -33 4h-129q-20 0 -23.5 5.5t-3.5 29t6 31.5t21 8l227 -6l152 6q16 0 21 -8.5t5 -32t-6 -28.5t-28 -5h-70q-14 0 -30 -23.5t-42 -62t-50.5 -73t-50.5 -72.5q-58 -84 -59.5 -91.5t41 -60.5t82 -123.5t45.5 -77.5q4 -8 20 -16q24 -12 72.5 -12 t51 -5t2.5 -29t-5 -29t-57 -5.5t-130 -10t-90 -9.5q-22 0 -30 24q-28 100 -96 198q-11 16 -15.5 16t-16.5 -14q-206 -224 -390 -224q-170 0 -271 97t-101 247zM215 382.5q0 -56.5 43 -124.5t112 -107t144 -39q156 0 291 136q10 14 10 16t-1.5 5t-5.5 9t-33 46.5t-133 146 t-152 145.5t-52.5 43t-7 5t-5.5 4t-4.5 3.5t-3.5 2.5q-5 2 -9 2t-36 -22.5t-49 -37.5t-38.5 -38.5t-36 -48t-24 -57.5t-9.5 -89.5zM357 1068q0 -101 102 -222q32 -35 41 -35t24 10.5t28.5 20.5t35.5 32t45 53q51 67 51 143t-44.5 126.5t-107 50.5t-101.5 -27 q-74 -51 -74 -152z" />
<glyph unicode="'" horiz-adv-x="268" d="M56 1046q0 24 9 154t11 155q8 60 72 60q32 0 48.5 -15.5t16.5 -34t-7 -48t-42.5 -145.5t-36.5 -119l-4 -12t-4 -11.5t-4 -7.5t-6 -6q-12 -4 -23 -4q-30 0 -30 34z" />
<glyph unicode="(" horiz-adv-x="571" d="M76 578.5q0 91.5 13 175.5t34 152t49 132t59 114.5t62 94t59 74.5t52 53q46 44 56 43.5t23 -10t13 -17.5t-10 -20t-27 -32.5t-39 -49t-46 -67.5t-48 -85t-46 -104t-38 -122q-37 -138 -37 -272t12.5 -231.5t32 -173t45 -143.5t51.5 -117.5t52 -92t45 -68.5q45 -60 45 -70 q0 -35 -40 -35q-33 1 -159 197q-145 226 -194 483q-19 100 -19 191.5z" />
<glyph unicode=")" horiz-adv-x="571" d="M76 -265.5q0 7.5 10 19.5t27 33t38.5 49t46 67t48.5 85t45.5 104.5t38.5 121.5q36 139 36 279.5t-15 250.5t-40 191t-55.5 152t-60.5 121t-55 86.5t-40.5 58.5t-15.5 29q0 34 39 35q33 -1 159 -197q146 -226 194 -483q19 -100 19.5 -191.5t-12.5 -175.5t-34 -152 t-49 -132t-59 -114.5t-62.5 -94t-60 -74.5t-50.5 -53q-46 -44 -56.5 -43.5t-23 10.5t-12.5 17.5z" />
<glyph unicode="*" horiz-adv-x="800" d="M56 913q0 51 50 72q23 10 103.5 38.5t104.5 38t30 15t3 9.5t-14 12t-19 14t-82 52t-98 73t-24 55t17 46t41 18q44 0 66.5 -25t45 -60t49.5 -80t33.5 -55t10 -15t4.5 -7t3 -4t2 -2.5t2 2t2 3.5t3 7t7 16.5t22 61.5q42 122 56 144q32 46 66.5 46t52 -20t17.5 -45.5 t-19 -53.5t-82 -83t-72 -64.5t-13 -14t-6 -6t-4 -4.5t-2.5 -4.5t-1 -3.5t1 -2.5t3.5 -2t6 -2.5q20 -4 127.5 -6t133.5 -11q64 -19 64 -69q0 -30 -21 -48t-46.5 -18t-64 17t-94.5 47t-70 36t-21.5 9.5t-10 5t-5.5 1.5t-4 -1t-1 -5q-2 -12 20 -78q43 -132 43 -161t-6 -48 q-16 -46 -56.5 -46.5t-59.5 26.5t-19 51t6 60t15.5 81.5t13 68t3.5 36.5t-6 14t-22 -15.5t-78 -80.5t-87 -79.5t-53 -14.5t-47 16.5t-19 42.5z" />
<glyph unicode="+" horiz-adv-x="1079" d="M58 425q0 21 1 28t5 15q8 14 36 14h348q26 0 33 7t7 25v360q0 24 11.5 31t31 7t27.5 -1.5t16 -5.5q18 -9 18 -41v-334q0 -38 10 -43q8 -5 18 -5h363q25 0 32 -12t7 -40t-8 -39.5t-41 -11.5h-353q-28 0 -28 -13v-10v-366q0 -28 -12 -34q-16 -8 -42.5 -7.5t-38 8 t-11.5 35.5v356q0 22 -7 26.5t-21 4.5h-362q-26 0 -33 12.5t-7 33.5z" />
<glyph unicode="," horiz-adv-x="415" d="M76 -289q0 9 15 24t36 35q21 22 41 46q50 58 51 114q0 49 -48 88q-20 16 -39 30q-48 33 -48 50.5t23.5 39.5t48 35t38.5 13t50 -21t66 -54t30 -71t-22 -95t-54 -103t-66 -85q-72 -82 -89 -82.5t-25 13.5t-8 23z" />
<glyph unicode="-" horiz-adv-x="528" d="M43 413q0 13 13.5 49t25.5 38q14 2 192.5 8t188.5 6t10 -21t-5 -49q-6 -26 -16 -28q-22 -2 -198 -9t-193.5 -7t-17.5 13z" />
<glyph unicode="." horiz-adv-x="452" d="M116 81q0 31 34 77.5t59 46.5t53 -13.5t51 -38t23 -49t-11 -48.5t-25 -41q-34 -38 -67 -37.5t-75 36.5t-42 67z" />
<glyph unicode="/" horiz-adv-x="831" d="M10 -459q0 18 43 127l649 1741q10 36 34 38q10 1 46.5 1t36.5 -22q-1 -24 -31 -99l-642 -1743q-16 -45 -24 -55q-8 -12 -60 -12t-52 24z" />
<glyph unicode="0" d="M112 389.5q0 82.5 32 156.5t86 126q116 112 284 112q186 0 294 -118q104 -114 104 -281q0 -176 -120 -289q-118 -112 -290 -112q-80 0 -152 33t-124 87.5t-83 128.5t-31 156.5zM192 374q0 -74 42 -142q86 -138 266 -138q192 0 274 132q49 78 49.5 172t-44.5 158t-118 99 t-145 35t-129.5 -24t-100 -65t-68.5 -97t-26 -130z" />
<glyph unicode="1" d="M301 23q0 19 5.5 27t25.5 8h92q14 0 14 18q2 60 2 180v182q0 180 -2 233t-2 60t-4 7h-102q-22 0 -22 34q0 33 22 33l192 -4l190 4q20 0 22 -15q1 -6 1 -18t-0.5 -16t-2.5 -10q-4 -8 -26 -8h-94l-4 -1q-3 0 -3 -5q0 -8 -3.5 -70t-3.5 -296t1 -268.5t3 -37.5q2 -2 16 -2h82 q28 0 28 -34t-28 -34l-186 4l-188 -4q-17 0 -21 7t-4 26z" />
<glyph unicode="2" d="M116 661.5q0 12.5 34.5 40.5t84.5 59q126 76 239 76.5t189.5 -75.5t76.5 -188q0 -195 -394 -434q-16 -10 -16 -12.5t34 -2.5h428q4 0 40 69.5t38 69.5q8 0 27 -5t19 -11q0 -16 -58 -238q-4 -16 -28 -16h-668q-39 0 -39 28q0 16 23.5 36t55 43.5t64 45.5t71.5 50.5 t74 56.5t68 63t56 70q53 79 53 167t-46 137t-120 49q-110 0 -249 -114q-16 -13 -20.5 -13.5t-20.5 18t-16 31z" />
<glyph unicode="3" d="M158 -336q0 20 26 33.5t54 13.5q40 0 71 -18.5t49.5 -31.5t30.5 -20q34 -20 91.5 -20t116.5 41.5t95.5 111.5t36.5 146q0 140 -72.5 201t-230.5 61l-108 -6q-24 0 -32 31q-2 7 -5 14.5t-3 14t1 10.5t3 7.5t4 6t6 4.5q10 6 16 8t11.5 4t45 13.5t94.5 36t95 58.5 q77 64 77 158t-47.5 151t-120.5 57q-122 0 -218 -94q-11 -11 -16 -11t-23 16.5t-18 25.5t26 33.5t65 51.5q100 68 218 68t194.5 -71t76.5 -187q0 -172 -190 -256q-72 -30 -72 -36q0 -9 51 -9l6 -1q307 -26 307 -336q0 -84 -36 -157t-94 -123q-126 -106 -284 -106 q-82 0 -158 20q-140 38 -140 86z" />
<glyph unicode="4" d="M76 15q0 21 20 58t50 80q54 73 104 133l272 328q0 1 18 21t35 39.5t41 45.5t44 46q48 47 63 47q33 1 33 -59v-606q0 -23 3 -27.5t21 -4.5h119q18 0 19.5 -6t1.5 -14v-82q0 -16 -3 -18t-22 -2h-113q-20 0 -21 -7t8 -199t9 -200q0 -21 -38 -24l-93 -8q-29 0 -29 32v382 q0 16 -4 20t-22 4h-473q-43 0 -43 21zM202 128q0 -10 40 -12h344q24 0 28 5t4 31v442q0 32 -5 33t-15 -11.5t-12 -15.5l-356 -430q-2 -2 -15 -17t-13 -25z" />
<glyph unicode="5" d="M198 324q0 16 42 208t49 227t8 37.5t2 4t3.5 3t3.5 2.5q2 1 10 1h6q4 -1 86 -5q256 -14 320 -14t68 4t9 18q15 38 21 38h8q32 0 32 -18q-8 -109 -8 -142q-2 -41 -77.5 -41t-138 3.5t-141 8.5t-115 7t-41.5 -1.5t-26.5 -109t-21.5 -114.5t0.5 -10.5t2 -2l3 -1t4.5 -1 t46 -4.5t110 -19t128 -45t103 -71q90 -92 90 -248q0 -160 -126 -289q-121 -124 -326 -188q-68 -21 -91 -21t-27.5 9t-4.5 31.5t4 29.5t25.5 10.5t55.5 14t73 28.5t75 40t70 54t60 67q55 79 54.5 160t-20.5 130t-56 82t-86 55q-94 42 -228 41q-38 1 -38 31z" />
<glyph unicode="6" d="M92 460q0 104 21 192t56 160t82 139.5t98 120t105 98t103 78t90 54.5q80 45 99.5 45.5t30.5 -17.5t11 -30t-41 -29t-94 -52.5t-94.5 -73.5t-79 -82t-64.5 -83.5t-51 -81.5q-40 -70 -59 -119t-19 -55.5t6.5 -6.5t65 11.5t149.5 11.5t163 -26t124 -72q116 -98 116 -255 q0 -187 -122 -297q-118 -106 -288 -106q-181 0 -293 124q-55 60 -85 154t-30 198zM242 439.5q0 -78.5 10 -127.5t33 -95t56 -81q71 -76 187 -76q100 0 166 89q64 88 64 178.5t-19 151t-57 106.5q-80 97 -238 97q-78 0 -118 -9t-43 -11t-6 -3t-5 -5t-3 -5t-2 -7t-2 -9 l-13.5 -67.5t-9.5 -126z" />
<glyph unicode="7" d="M166 568q0 4 10 100.5t14 138t9.5 48.5t28.5 7t28.5 -6t5.5 -26v-11q0 -8 330 -8h340q41 -1 41 -25q0 -6 -52.5 -104t-218.5 -422q-364 -710 -378 -710q-20 0 -50 20t-30 43q0 12 279 492.5t297 512t21 37t5 8.5q4 8 4 12.5t-10 4.5h-424q-170 0 -174 -20l-12 -99 q-2 -16 -33 -15.5t-31 22.5z" />
<glyph unicode="8" d="M140 302q0 59 9.5 100t23 70.5t36.5 57.5t42 45t46 36q66 44 82.5 48.5t16.5 5.5t-4 4q-234 150 -234 345q0 142 103 241t251 99q136 0 232 -86q98 -88 98 -228q0 -179 -164 -300q-24 -18 -42 -30.5t-18 -14t8 -7t33 -20t39 -23.5t41 -29t44.5 -38t39 -47t33.5 -59 q30 -72 31 -156q0 -149 -104.5 -241.5t-274.5 -92.5q-150 0 -258 92q-50 43 -80 106t-30 122zM260 336q0 -128 70.5 -206.5t185.5 -78.5q68 0 120 38q106 77 106 225q0 104 -57 170q-54 62 -183 132q-42 24 -50 24q-16 -1 -49.5 -26.5t-48 -39.5t-32.5 -38t-31 -51 q-31 -65 -31 -149zM289 1049q0 -140 139 -248q66 -51 99 -66t36 -16.5t6 -1.5t39 32.5t83 117.5t47 157q0 130 -64 201t-166 71q-66 0 -117 -35q-102 -72 -102 -212z" />
<glyph unicode="9" d="M116 403q0 89 20.5 154t57 113t86.5 82q100 69 238 69q178 0 295 -124q121 -129 121 -365q0 -124 -42 -234.5t-108 -188t-148.5 -141.5t-163 -104t-153.5 -67q-131 -49 -173 -49q-8 0 -15.5 22.5t-7.5 36.5q0 4 26.5 13t71.5 25.5t100.5 40.5t117 64t118.5 89 q131 111 189 277q7 21 2.5 21.5t-36.5 -19.5t-100 -39t-160 -19t-172 46t-122 127t-42 170zM262 448q0 -56 11 -99.5t33 -82.5q22 -38 52 -68q66 -63 164 -63t163 28.5t89 74.5q12 26 12 99.5t-9 129t-30 107t-51 89.5q-66 85 -172 85q-190 0 -246 -188q-16 -56 -16 -112z " />
<glyph unicode=":" horiz-adv-x="452" d="M116 81q0 31 34 77.5t59 46.5t53 -13.5t51 -38t23 -49t-11 -48.5t-25 -41q-34 -38 -67 -37.5t-75 36.5t-42 67zM116 644q0 31 34 77.5t59 46.5t53 -13.5t51 -38t23 -49t-11 -48.5t-25 -41q-34 -38 -67 -37.5t-75 36.5t-42 67z" />
<glyph unicode=";" horiz-adv-x="456" d="M96 -289q0 9 15 24t36 35q21 22 41 46q50 58 51 114q0 49 -48 88q-20 16 -39 30q-48 33 -48 50.5t23.5 39.5t48 35t38.5 13t50 -21t66 -54t30 -71t-22 -95t-54 -103t-66 -85q-72 -82 -89 -82.5t-25 13.5t-8 23zM119 644q0 32 34 78t58.5 46t52.5 -13t51 -38t23 -54 t-18 -59t-39 -47t-35 -17q-43 0 -85 36t-42 68z" />
<glyph unicode="&#x3c;" horiz-adv-x="1079" d="M78 426q0 18 2 25q4 16 32 28q412 150 610 223q228 84 236 84q46 0 46 -57q0 -26 -38 -39l-644 -227q-70 -25 -82 -37q6 -6 38 -16t44 -14l655 -230q26 -8 26.5 -30t-13.5 -40t-32 -18t-49 11t-274 99t-525 191q-21 7 -26.5 18t-5.5 29z" />
<glyph unicode="=" horiz-adv-x="1079" d="M58 272q0 14 1 21.5t5 15.5q8 15 36 15h883q25 0 32 -12t7 -40t-8 -40.5t-41 -12.5h-875q-30 0 -34.5 12t-5 19.5t-0.5 21.5zM58 574v19t1 20t5 15q8 14 36 14h883q25 0 32 -12t7 -40t-8 -39.5t-41 -11.5h-875q-40 -1 -40 35z" />
<glyph unicode="&#x3e;" horiz-adv-x="1079" d="M78 133q0 27 24 33l658 230q78 26 82 30q-10 10 -82 37l-648 227q-34 12 -34 39q0 57 43 57q8 0 217.5 -77.5t627.5 -229.5q24 -9 31 -19t7 -30.5t-7 -32t-29 -18.5q-282 -102 -524 -191q-302 -110 -317 -110t-28 10q-21 18 -21 45z" />
<glyph unicode="?" horiz-adv-x="745" d="M116 1239v92q0 41 26 41q18 0 30 -38q4 -13 8 -13q124 -20 196 -45q314 -107 314 -418q0 -200 -83 -289q-67 -73 -201 -73q-28 0 -36 -4q-12 -6 -19 -117t-12 -114t-29 -3t-30 5t-6 35q0 263 3 301.5t15.5 46.5t43.5 8h123q160 0 171 142q1 14 1 58t-27 104 q-28 60 -84 110q-118 106 -363 136q-27 2 -31 8q-10 12 -10 27zM190 75q0 25 16 55t39 52.5t42.5 22.5t48 -13.5t51.5 -38t23 -53t-18 -58.5t-39 -47t-49.5 -17t-71 36t-42.5 61z" />
<glyph unicode="@" horiz-adv-x="1628" d="M96 383q0 341 271 590q164 150 379 209q106 28 205 28t180 -16t155.5 -54.5t128.5 -95.5q117 -126 117 -340q0 -236 -178 -402q-98 -92 -246 -148q-134 -50 -270 -50q-78 0 -78 52q0 34 8 78q-126 -126 -232 -126q-41 0 -70 27q-54 49 -54 149q0 126 147 317 q115 149 263 197q54 17 87 17t48 -3t25 -6t12.5 -2t21.5 24.5t30.5 30.5t33.5 7q56 0 56 -32q0 -16 -6 -31q-68 -146 -146.5 -335.5t-78.5 -231.5q-1 -40 5 -46q11 -12 30 -12q85 0 188 50t180 128q150 150 150 334q0 269 -197 382q-121 68 -297 68q-206 0 -388 -100 q-178 -98 -286 -271q-112 -179 -112 -399q0 -121 45.5 -223t121.5 -170q162 -143 384 -143q282 0 498 152q65 46 109 87t57 41t24 -16t11 -25t-13 -22q-128 -139 -308.5 -214t-383.5 -75q-162 0 -306 72q-142 70 -230 208q-91 144 -91 341zM561 310q0 -44 22.5 -70.5 t58.5 -26.5t80 46.5t80.5 115t67.5 141t48.5 128.5t17.5 73t-18.5 30t-42 13t-56.5 -19t-67.5 -51t-69 -77t-61.5 -94.5t-43.5 -107t-16.5 -101.5z" />
<glyph unicode="A" horiz-adv-x="1429" d="M56 27q0 25 5.5 30t30.5 5h62q18 0 271 617q21 52 23 56l218 504q8 21 35 54t43 67q24 52 40 53q21 -1 25 -19l245 -690q232 -642 246 -642h72q14 0 18 -7t4 -29t-4 -30t-18 -8l-190 6l-236 -6q-18 0 -22 7.5t-4 32t5 29.5t29 5h113q2 0 2 14t-51.5 173t-75.5 229 t-28 74.5t-19 4.5h-413q-22 0 -29 -5.5t-15 -27.5q-164 -414 -166 -460l2 -2h158q17 0 20.5 -6.5t3.5 -22.5v-20.5t-1 -11t-4 -8.5q-6 -5 -19 -5l-192 6l-156 -6q-20 0 -24 7t-4 32zM479 623q0 -5 27 -5h366q18 0 18 6q0 7 -6 23l-169 498q-7 25 -11 25h-1q-4 0 -13 -25 l-200 -491q-11 -27 -11 -31z" />
<glyph unicode="B" horiz-adv-x="1212" d="M76 1329q0 25 7 31t29 6l242 -4l252 6q278 0 396 -136q65 -74 65 -200q0 -210 -305 -324q-16 -6 -16 -7.5t21 -5t45 -8t64 -17t71 -28t66 -43t59 -61.5q54 -78 54 -192q0 -356 -579 -356l-197 4l-219 -6q-21 0 -27 8t-6 31.5t8 28.5q10 6 36 6h106q6 0 6 80v661 q0 176 -5 332.5t-11 156.5l-126 -4q-20 0 -28 8t-8 33zM434 645q0 -583 14 -583h124q362 0 362 298q0 111 -41 180.5t-118 95.5t-255 26h-70q-16 0 -16 -17zM434 733q0 -10 4 -12t23 -2h117l67 -2h2q72 0 147 67q88 80 88 216q0 97 -46 168q-94 145 -310 145q-68 -1 -84 -9 q-8 -6 -8 -472v-99z" />
<glyph unicode="C" horiz-adv-x="1497" d="M86 686q0 382 298 586q186 127 440 127q222 0 408 -135q19 -14 24 -18t10.5 -6t7.5 0q2 4 2 12v54q0 20 7 27t31 7t35 -7t11 -27l-8 -405q0 -19 -8 -24t-34 -5t-34 5.5t-8 21.5l8 189q0 23 -65 75.5t-120 84.5q-130 77 -282 77q-261 0 -409 -257q-92 -162 -93 -386 q0 -127 44.5 -243t119.5 -200.5t179 -135t193.5 -50.5t153 12t109.5 29.5t82 36.5q72 37 74 55l26 238q5 30 29 30l23 -2q30 -2 30 -22q0 -30 -32 -282q-2 -18 -49 -49t-118 -61q-175 -76 -360 -77q-192 0 -356 77q-164 78 -265 238q-104 166 -104 410z" />
<glyph unicode="D" horiz-adv-x="1552" d="M66 22q0 22 9 29t31 7h132q8 0 16 450t8 624t-4 174l-142 -4q-16 0 -22 5.5t-6 26t5 29.5t23 9l146 -2q84 0 235 12t233.5 12t202 -30.5t216.5 -91t169 -145.5q148 -178 148 -441q0 -282 -168 -470q-152 -170 -404 -216q-78 -14 -161 -14l-379 8l-260 -8q-18 0 -23 7 t-5 29zM442 685.5q0 -625.5 2 -627.5q16 -6 135 -6q2 0 4 -1q117 1 227 29q112 28 183 69.5t122 107t76 119.5t39 129q18 93 18 183q0 95 -20 170q-20 74 -56 143t-90 129t-120 104q-141 95 -321 95h-4q-129 0 -181 -12q-14 -6 -14 -631.5z" />
<glyph unicode="E" horiz-adv-x="1239" d="M76 27q0 23 8 29t32 6h126q8 0 8 147v197l-8 602q0 140 -7.5 214t-11.5 74h-96q-20 0 -27.5 6t-7.5 36t27 30l90 -3q90 -3 133 -3l516 6q104 0 114 3t10 13q0 2 1.5 9t2.5 10.5t4 8.5q5 8 27.5 8t30.5 -6q9 -6 9 -24l-9 -270q0 -14 -8 -18t-30 -4q-36 0 -37 30l6 158 q0 6 -195.5 10t-351.5 4q-12 0 -12 -171t2 -283t5 -115.5t15 -3.5h342q106 1 107 27v106q0 20 37.5 20t37.5 -18l-4 -164l4 -174q0 -18 -37.5 -18t-37.5 20v102q-1 32 -107 32h-261t-90 -0.5t-4 -1.5t-2 -2.5t-1 -4.5q-1 -6 -2 -9q0 -23 6 -284q6 -282 16 -282l627 6 q10 0 12.5 6t5.5 34t7 183q0 18 38 18.5t38 -20.5l-6 -287q0 -28 -42 -28l-768 6l-250 -6q-21 0 -26.5 8t-5.5 31z" />
<glyph unicode="F" horiz-adv-x="1126" d="M76 1333q0 35 26 35l90 -3q90 -3 134 -3l530 6q98 0 114 2q17 2 18.5 21t8.5 24t26 5t28.5 -6t9.5 -24l-9 -270q0 -14 -8 -18t-30 -4q-37 0 -37 30l6 160q-87 12 -567 12q-12 0 -12 -226t2 -285t3.5 -60.5t24.5 -1.5h354q106 1 107 27v108q0 18 41 18q28 0 31.5 -5 t3.5 -11l-5 -166l5 -196q0 -16 -38 -16t-38 18v124q0 24 -34.5 28t-72.5 4h-354q-22 0 -24 -4q-2 -3 -1 -36v-31q1 -63 2 -219q4 -308 9 -308h166q18 0 23 -7t5 -29t-5 -30t-23 -8l-246 6l-215 -6q-20 0 -25.5 7.5t-5.5 31.5t8 29.5t35 5.5h86q11 0 11 147v197l-8 602 q0 140 -7.5 214t-11.5 74h-91q-33 0 -36.5 12t-3.5 25z" />
<glyph unicode="G" horiz-adv-x="1564" d="M86 678.5q0 141.5 38 255.5t106 198t162 143q186 117 444 117q240 0 416 -122q24 -19 24 2v51q0 20 7 26.5t31 6.5t34 -6.5t10 -26.5l-6 -379q0 -19 -8 -24.5t-34 -5.5t-34 5t-8 21l8 168q0 24 -89 95q-153 122 -359 122q-108 0 -205 -49t-166 -133.5t-109.5 -204.5 t-40.5 -239t26.5 -216.5t77 -179t118.5 -142.5q143 -131 339 -131q172 0 278 64q48 30 50 46q6 52 6 178t-14 126h-178q-22 0 -22 37t20 37l274 -6l184 6q22 0 22 -37t-22 -37h-63q-13 0 -17 -24.5t-4 -87.5l-2 -182q0 -32 -121 -88q-228 -105 -448 -105q-242 0 -419 110 q-194 120 -267 348q-39 122 -39 263.5z" />
<glyph unicode="H" horiz-adv-x="1619" d="M76 27q0 25 6 30t30 5h120q12 0 12 522v208q0 510 -10 510h-90q-22 0 -32 7t-10 31t9 30t33 6l190 -6l221 6q20 0 25.5 -8t5.5 -32t-7 -29t-32 -5h-113q-10 0 -10 -268l2 -270q0 -23 3 -27t21 -4h748q18 0 21 3.5t3 21.5v250q0 104 -5 199t-11 95h-116q-20 0 -28 7t-8 31 t6 30t28 6l218 -6l200 6q20 0 25 -8t5 -32t-7 -29t-32 -5h-90q-6 0 -6 -620t8 -620h109q18 0 22 -7t4 -29t-4 -30t-22 -8l-195 6l-231 -6q-20 0 -25.5 7.5t-5.5 32t6.5 29.5t32.5 5h112q10 0 10 331v254q0 18 -2 21.5t-10 3.5h-766q-14 0 -16 -4t-2 -25q0 -581 18 -581h136 q17 0 20.5 -6.5t3.5 -22.5v-20.5t-1 -11t-4 -8.5q-5 -5 -19 -5l-230 6l-246 -6q-20 0 -24 7t-4 32z" />
<glyph unicode="I" horiz-adv-x="681" d="M56 27.5q0 23.5 8 29t34 5.5h136q18 0 18 745v201q0 144 -7 219t-9 75h-136q-21 0 -28.5 6.5t-7.5 31t7 30.5t29 6l256 -6l242 6q18 0 23 -8t5 -32t-5.5 -29t-30.5 -5h-134q-18 0 -18 -317v-277q0 -646 18 -646h142q18 0 23 -7t5 -29t-5 -30t-23 -8l-246 6l-262 -6 q-22 0 -28 8t-6 31.5z" />
<glyph unicode="J" horiz-adv-x="681" d="M-68 -384q0 26 20 53t46 44q58 39 77 39t53.5 -21.5t53 -21.5t30.5 7.5t20.5 25.5t14 39t7.5 57q4 56 4 152v1018q0 294 -18 294h-136q-22 0 -31 7t-9 31t9 30t31 6l258 -6l214 6q20 0 25 -8t5 -32t-6 -29t-32 -5h-105q-11 0 -11 -544v-492q0 -212 -45 -348 q-43 -128 -133 -225q-74 -79 -108 -98q-63 -36 -111 -36l-1 1q-48 0 -85 15t-37 41z" />
<glyph unicode="K" horiz-adv-x="1331" d="M76 27q0 24 8 29.5t35 5.5h109q14 0 14 342v594q0 294 -12 294h-95q-32 0 -36.5 12t-4.5 30.5t9 25t32 6.5l215 -6l222 6q20 0 25 -8t5 -32t-7 -29t-32 -5h-113q-10 0 -17 -111t-7 -206v-256q0 -23 3 -29t17 -6h46q34 0 329 395q125 166 137 182q24 31 -10 31h-82 q-32 0 -36 12t-4 30.5t9 25t31 6.5l180 -6l170 6q20 0 24.5 -7.5t4.5 -32t-5.5 -29.5t-31.5 -5h-98q-8 0 -221 -255.5t-225 -269.5t-12 -16.5t7 -9.5t11 -12l550 -635q30 -32 60 -32h33q17 0 21 -6.5t4 -22.5t-0.5 -20.5t-1.5 -11t-4 -8.5q-6 -5 -19 -5l-209 6l-211 -6 q-20 0 -24.5 7t-4.5 31t8 30t29 6h67q26 0 20 10q-4 7 -13 16l-445 526q-8 10 -13 12t-27 2h-40q-18 0 -21 -2.5t-3 -19.5q0 -544 18 -544h148q18 0 23 -7t5 -29t-4 -30t-22 -8l-248 6l-240 -6q-20 0 -25 7.5t-5 31.5z" />
<glyph unicode="L" horiz-adv-x="1212" d="M76 27q0 23 8 29t32 6h124q16 0 16 592v472q0 176 -10 176h-121q-22 0 -28.5 7t-6.5 31t8 30t33 6l231 -6l246 6q25 0 31 -6t6 -29t-7 -31t-32 -8h-143q-17 0 -17 -434v-567q0 -231 13 -231q197 0 391 5q203 6 218.5 7.5t20.5 6.5t9 34l24 176q3 22 23.5 19.5t28.5 -4.5 q24 -5 24 -21q0 -8 -20 -130.5t-22 -143.5t-12 -26t-40 -5l-746 6l-250 -6q-21 0 -26.5 8t-5.5 31z" />
<glyph unicode="M" horiz-adv-x="1832" d="M66 27.5q0 23.5 8 29t34 5.5h84q6 0 10 87l8 174t19 476t15 443t-6 57t-33 3h-103q-14 0 -17 6.5t-3 29.5t3 30.5t17 7.5l228 -6l129 6q16 0 23 -6q8 -4 16 -24l430 -1074q8 -20 12.5 -24t7.5 0q4 6 12 26l402 1045q13 34 21.5 42.5t31.5 8.5h99l208 6q20 0 25.5 -8 t5.5 -32t-6.5 -29t-32.5 -5h-96q-10 -18 -10 -157v-185q0 -286 10 -592q8 -306 20 -306h107q18 0 25.5 -7t7.5 -29t-6 -30t-23 -8l-219 6l-220 -6q-21 0 -26.5 8t-5.5 31.5t8 29t35 5.5h92q15 0 15 336v29q0 326 -11 763q-2 42 -6 42t-11.5 -19t-9.5 -23l-378 -969 q-23 -56 -60 -108q-36 -53 -50 -83q-25 -50 -42 -50q-14 0 -28 30q-2 6 -4 10l-9 21l-477 1177q-16 41 -20 42q-4 0 -8 -44q-16 -446 -16 -800q0 -17 -1 -33q0 -321 10 -321h141q18 0 23.5 -7t5.5 -29t-5.5 -30t-23.5 -8l-180 6l-170 -6q-21 0 -26.5 8t-5.5 31.5z" />
<glyph unicode="N" horiz-adv-x="1667" d="M76 27.5q0 24.5 6 29.5t32 5h95q14 0 16 89q1 89 5 208q14 441 14 943h-134q-18 0 -23 7t-5 29t6 30q4 8 22 8l230 -6l112 6q9 0 13.5 -1t6.5 -1.5t4 -2.5t4 -3t4.5 -4t3.5 -4.5t4.5 -5.5t5.5 -6l831 -1022q24 -30 29 -26q6 6 6 38v86l-4 770q0 108 -2 108h-190 q-17 0 -21 6.5t-4 22.5t0.5 20.5t1.5 11t3 8.5q6 5 20 5l220 -6l174 6q20 0 25 -7.5t5 -32t-8 -29.5t-34 -5h-92q-8 0 -8 -127t-7 -416t-13 -518t-6 -233q0 -51 -28 -51q-13 0 -25.5 16t-14.5 19q-1008 1224 -1018.5 1236.5t-14.5 10.5q-5 -5 -5 -273l-2 -702q0 -202 8 -202 h176q17 0 20.5 -6.5t3.5 -26v-25.5q-2 -16 -24 -16l-222 6l-172 -6q-20 0 -25 7.5t-5 32z" />
<glyph unicode="O" horiz-adv-x="1540" d="M86 652.5q0 108.5 26 208.5t72 180.5t111 146t142 109.5q161 91 351 91q298 0 487 -212q179 -202 179 -512q0 -153 -52 -282.5t-143 -219.5t-220.5 -140t-246.5 -50t-198.5 20t-156.5 57.5t-139 96t-111 132.5t-74 170t-27 204.5zM291 698q0 -101 20.5 -201.5t61 -183 t96.5 -143.5q118 -129 291 -129q231 0 371 203q123 177 123 438q0 158 -54 304q-52 144 -160 237q-112 96 -272 96q-250 0 -392 -262q-85 -157 -85 -359z" />
<glyph unicode="P" horiz-adv-x="1155" d="M76 1328.5q0 25.5 7 31.5t29 6l242 -4l268 10q270 0 404 -142q94 -102 94 -266q0 -229 -196 -320q-120 -56 -300 -56l-178 6q-10 0 -12 -3t-2 -13v-136q0 -380 8 -380h146q18 0 23 -7t5 -29t-5 -30t-23 -8l-236 6l-223 -6q-20 0 -25.5 7.5t-5.5 31.5t8 29q10 6 36 6h98 q18 0 18 909v106q0 215 -8 215l-136 -4q-23 0 -29.5 7.5t-6.5 33zM434 666q0 -20 72 -20q3 0 6 -1q70 -1 128 11q62 12 116 38t93 66q83 86 83 236q0 95 -56 166q-114 144 -370 144q-46 0 -64 -2q-8 -3 -8 -104v-534z" />
<glyph unicode="Q" horiz-adv-x="1603" d="M86 696q0 318 216 514q128 115 316 158q90 20 213 20t256 -52t227 -143t149 -220t55 -264t-38 -246t-104 -197q-139 -180 -362 -244q-82 -24 -213 -84t-135 -61.5t-5.5 -2.5t-4 -2.5t-3.5 -2t-1.5 -1.5t1 -1.5t3.5 -1.5t6 -1t8.5 -0.5t44 -3t58.5 -3.5t54 -5 q68 -6 117 -16.5t129 -33.5q174 -50 228.5 -50t97 10t65.5 22t41 22t23.5 10t19.5 -16t14 -26t-19 -30t-53 -42q-34 -24 -74 -44q-93 -48 -175 -48h-2q-83 1 -175.5 18.5t-173 42.5t-152.5 50q-174 60 -210 60t-87 -18.5t-66 -18.5t-43.5 35t-28.5 57t14 29.5t43 7.5l46 -2 q60 0 105 11q92 24 263 106q14 7 14 9.5t-51 9t-123 26t-141 50t-126.5 71t-106 95.5t-82.5 121q-72 138 -72 326zM276 707q0 -115 47 -242q74 -199 211 -288q132 -85 303 -125q37 -8 50 -8q1 -1 2 -1q12 0 30 7q19 6 46 21t58 36t64 52t64 68t59 86t49 103q46 117 46 228 q0 112 -17 192q-16 77 -46 148t-76 132q-46 62 -102 106q-122 96 -282 97h-2q-255 0 -408 -247q-96 -152 -96 -365z" />
<glyph unicode="R" horiz-adv-x="1312" d="M76 1329.5q0 23.5 9 30t31 6.5l238 -4l298 12q370 0 438 -242q14 -51 14 -101.5t-11 -88t-29 -67t-43 -57.5t-49.5 -48t-53.5 -39q-44 -28 -75 -42.5t-31.5 -16.5t23 -9.5t51.5 -19t64 -32t64 -45t57.5 -61.5t49.5 -81q47 -100 51 -236q4 -116 10 -121t12 -5h94 q18 0 24.5 -10.5t6.5 -41.5q0 -22 -33 -22l-280 6q-22 0 -23 22v119q0 208 -34 298q-36 98 -102 142q-82 55 -212 58l-189 2q-16 -1 -16 -17q0 -110 8 -333t14 -223h120q18 0 23 -7t5 -29t-6 -30q-4 -8 -22 -8l-222 6l-200 -6q-22 0 -29 8t-7 31.5t8 28.5q10 6 36 6h88 q8 0 8 258v272q0 700 -20 700l-120 -4q-22 0 -30 9t-8 32.5zM430 702q0 -10 26 -10l263 -4q17 0 23 2q176 82 176 301q0 170 -160 263q-94 54 -191 54t-127 -4q-10 0 -10 -104v-498z" />
<glyph unicode="S" horiz-adv-x="1081" d="M106 990q0 66 18 119t48 96t72.5 78.5t91.5 59.5q103 50 193 50l1 -1q90 0 156.5 -17t115 -51t60.5 -34q6 0 8 30.5t8 36t33 5.5t34 -5.5t7 -29.5l-12 -325q0 -22 -6 -29t-32 -7t-35 7.5t-9 24.5l6 130q0 31 -48.5 73.5t-86.5 66.5q-87 56 -187 56h-2q-100 0 -175.5 -74 t-75.5 -186t96 -184q62 -46 211.5 -102t209.5 -87q128 -67 176 -165q34 -70 34 -153t-26 -149t-71 -113t-105 -81q-118 -67 -263 -67q-181 0 -330 52q-80 28 -81.5 49.5t-7.5 97.5q-13 174 -13 191.5t0.5 21.5t3.5 9q5 9 27 9h10q21 0 29.5 -7.5t8.5 -26.5l13 -193 q2 -26 66.5 -55t148.5 -48.5t149 -19.5t126 31.5t98 87.5t37 113t-19 97t-46 68t-74 54q-65 38 -147 70t-104 41t-63 28t-63.5 32t-56 35.5t-52.5 43t-42 49t-35 58.5q-28 73 -28 139z" />
<glyph unicode="T" horiz-adv-x="1413" d="M37 1110q0 2 6 46q21 148 24.5 195.5t10 54.5t35.5 7q29 -1 29 -19v-20q0 -10 214 -10h732q217 0 217.5 18t7.5 24.5t22.5 6.5t21 -0.5t11.5 -2.5q10 -4 10 -26l-8 -276q0 -14 -7.5 -17t-30 -3t-30.5 6t-8 22l6 164q0 14 -225 14h-235q-13 0 -14.5 -149.5t-1.5 -167.5 l-13 -789q0 -126 4 -126h145q18 0 23.5 -7t5.5 -29t-5.5 -30t-23.5 -8l-245 6l-252 -6q-20 0 -25.5 7.5t-5.5 32t7 29.5t32 5h127q12 0 19 397t7 616t-12 219h-290q-190 0 -193 -20l-17 -158q-2 -19 -6 -24q-6 -4 -37.5 -4t-31.5 22z" />
<glyph unicode="U" horiz-adv-x="1546" d="M76 1329q0 25 7 31t29 6l195 -6l238 6q20 0 25.5 -8t5.5 -32t-7 -29t-33 -5h-132q-10 0 -18.5 -341.5t-8.5 -483.5q0 -198 96.5 -294.5t296.5 -96.5t360 108q24 16 34 29t13 63t3 230v624q0 162 -12 162h-103q-32 0 -36.5 12t-4.5 30.5t9 25t32 6.5l211 -6l160 6 q22 0 28 -8t6 -32t-8 -29t-34 -5h-48q-12 0 -16 -276t-6 -380t-6 -249t-6 -231.5t-2 -104.5q0 -71 -50 -71q-31 0 -67 74.5t-57 74.5t-98.5 -44t-194 -78.5t-215 -34.5t-167.5 14.5t-116.5 38.5t-81.5 62.5t-53.5 77.5t-29.5 93q-18 88 -18 207l2 713q0 114 -8 114h-78 q-21 0 -28.5 6t-7.5 31z" />
<glyph unicode="V" horiz-adv-x="1402" d="M14 1335q0 19 8.5 25t30.5 6l193 -6l266 6q22 0 28.5 -8t6.5 -32t-8.5 -29t-34.5 -5h-144v-4q0 -38 41 -151q178 -502 259.5 -715t90.5 -213t36 70t80 205.5t95 243.5t86 227q95 253 95 295q-1 42 -13 42h-145q-34 0 -38.5 12t-4.5 30.5t7 25t30 6.5l215 -6l160 6 q22 0 28 -8t6 -32t-8 -29t-25.5 -5h-23.5h-11.5t-9.5 -2t-6.5 -2t-5.5 -3t-4.5 -4t-4 -6l-3.5 -7q-2 -4 -8 -18l-473 -1113q-15 -35 -32.5 -56t-27 -35t-23 -38t-20.5 -36q-16 -30 -36 -30t-32.5 32t-38 108.5t-39.5 109t-120 303.5q-310 797 -320 797h-63q-32 0 -35.5 12 t-3.5 31z" />
<glyph unicode="W" horiz-adv-x="2064" d="M14 1334.5q0 18.5 9 25t33 6.5l196 -6l213 6q22 0 28.5 -8t6.5 -32t-8 -29q-10 -5 -36 -5h-102q-12 0 -14 -12q8 -74 155 -528t148.5 -460t4 -13t4.5 -11.5t3.5 -9.5t2.5 -7.5t2.5 -4.5t2.5 -3t2.5 -1t3 2t3.5 6.5t4.5 10t6 14.5t7.5 18l293 747q6 16 6 29t-1.5 20 t-5.5 21.5t-14 50t-27 83.5t-21 48h-117q-32 0 -36.5 12t-4.5 30.5t9 25t32 6.5l227 -6l246 6q22 0 28 -8t6 -31.5t-9 -29t-31 -5.5h-130q-2 -4 -2 -33t30 -144.5t59 -220t58.5 -205.5t52.5 -180.5t43 -147.5q45 -152 55 -152q6 0 27 54.5t82 216.5t94 251t80 220 q92 256 92 299q0 42 -13 42h-133q-32 0 -36.5 12t-4.5 30.5t9 25t32 6.5l211 -6l139 6q21 0 28 -8t7 -29.5t-8.5 -29t-40 -7.5t-40.5 -6t-14.5 -19.5t-6 -14t-0.5 -1.5v-1l-453 -1113q-16 -40 -34 -60t-25.5 -31.5t-19 -30.5t-18 -30t-15.5 -22q-17 -22 -33 -22 q-25 0 -45 57q-12 32 -33.5 109t-28.5 97t-18 61.5t-30 112t-43 154.5q-60 219 -86 311.5t-31 92.5t-19 -37l-291 -762q-16 -40 -34 -60t-25.5 -31.5t-19 -30.5t-18 -30t-15.5 -22q-17 -22 -33 -22q-25 0 -45 57q-12 32 -33.5 109t-28 97t-40.5 134t-80.5 268.5t-94.5 311.5 q-114 374 -121 374h-73q-32 0 -37 12t-5 30.5z" />
<glyph unicode="X" horiz-adv-x="1306" d="M14 24.5q0 23.5 9 30.5t30 7h76q10 0 54 65t63 92.5t45 66t72 99.5t116.5 149.5t84.5 108.5t14 25.5t-33 59.5t-192 309t-167 255h-80q-32 0 -36 12t-4 31t8 25t30 6l244 -6l203 6q20 0 25.5 -8t5.5 -32t-8 -29q-10 -5 -36 -5h-84q-18 0 -17 -4t4 -9.5t3 -8.5 q44 -108 142 -280t102 -178q10 -16 12 -16q6 0 176 263q130 192 130 231v2h-115q-26 0 -34.5 5t-8.5 29t6 32t28 8l160 -6l156 6q22 0 30.5 -7t8.5 -30.5t-8.5 -30t-30.5 -6.5h-47q-4 0 -34 -36.5t-80 -109t-162.5 -222.5t-124.5 -167.5t-4 -29.5q420 -665 434 -665h70 q30 0 36 -6t6 -31.5t-6 -30.5q-6 -6 -32 -6l-214 6l-237 -6q-22 0 -28.5 8t-6.5 31.5t8 29t35 5.5h103q24 0 9 26t-41 74t-65 114l-65 110t-72 120t-52 87q-10 17 -18 5q-220 -310 -287 -419q-65 -106 -65 -113q0 -4 14 -4h113q26 0 34.5 -5.5t8.5 -29t-7 -31.5t-28 -8 l-170 6l-170 -6q-22 0 -30.5 6.5t-8.5 30z" />
<glyph unicode="Y" horiz-adv-x="1222" d="M14 1339.5q0 24.5 7.5 30.5t29.5 6l217 -6l242 6q17 0 22.5 -8.5t5.5 -32t-5.5 -28.5t-30.5 -5h-121q-19 0 -21 -3t11 -34t70 -140.5t128 -241t79.5 -148.5t13 -25t6.5 -11t5 -4q6 0 62.5 109t87.5 169.5t56 109.5t47 96q47 100 47 111q-1 12 -5 12h-106q-26 0 -34.5 5 t-8.5 29t6.5 32t28.5 8l160 -6l156 6q22 0 30 -6.5t8 -30t-8 -30.5t-30 -7h-70q-6 0 -174 -295.5t-187.5 -325t-19.5 -40.5q1 -579 19 -579h140q18 0 24 -7t6 -29t-6 -30t-24 -8l-245 6l-233 -6q-20 0 -26 7.5t-6 32t7 29.5t33 5h104q20 0 20 493q0 6 -0.5 10.5t-1 7.5 t-2.5 7.5t-3 6.5q-2 6 -43.5 81.5t-200.5 354.5t-171 279h-59q-21 0 -29 6.5t-8 31z" />
<glyph unicode="Z" horiz-adv-x="1230" d="M76 26.5q0 17.5 126 209.5t335.5 510t275 421t65.5 109t-22 6h-639q-8 0 -11 -16q-2 -16 -9 -58q-16 -96 -16.5 -100t-1.5 -10t-1 -8q-4 -18 -10 -20q-6 -1 -10 -1q-60 1 -60 21l46 296q0 18 38 18t35 -16l-2 -16q1 -12 115 -12h788q20 0 26.5 -7t6.5 -23.5t-51.5 -96 t-139 -208.5t-185.5 -275q-244 -362 -400 -629q-28 -39 2 -39h696q9 0 9 3q2 9 2 14l8 208q0 18 42 18.5t42 -20.5l-6 -289q0 -28 -36 -28l-1036 6q-14 0 -18 7.5t-4 25z" />
<glyph unicode="[" horiz-adv-x="606" d="M158 -264v1652q0 18 6 25t24 7h314q18 0 23 -6t5 -20v-28q0 -22 -5 -27.5t-23 -5.5h-220q-16 0 -18 -2t-2 -16v-1505q0 -14 2 -16q2 -3 18 -3h220q18 0 23 -5.5t5 -27.5v-24q0 -16 -5 -22.5t-23 -6.5h-312q-22 0 -27 4.5t-5 26.5z" />
<glyph unicode="\" horiz-adv-x="831" d="M12.5 1424.5q-0.5 23.5 36 23.5t47 -1t18.5 -7t15 -31l649 -1741q43 -109 43 -127q0 -24 -48.5 -24.5t-58.5 7.5t-18 30t-8 23q-2 5 -2 7l-643 1743q-30 74 -30.5 97.5z" />
<glyph unicode="]" horiz-adv-x="606" d="M76 -242q0 22 5 27.5t23 5.5h220q16 0 18 2.5t2 16.5v1505q0 14 -2 16t-18 2h-220q-18 0 -23 5.5t-5 27.5v24q0 16 5 23t23 7h312q20 0 26 -5t6 -25v-1652q0 -28 -8 -30.5t-18 -2.5h-318q-18 0 -23 5q-5 6 -5 20v28z" />
<glyph unicode="^" horiz-adv-x="823" d="M96 633l304 663l2 2q6 2 14 2t14 -2l2 -2l303 -663q-26 -8 -53 -9q-28 0 -64 7h-2l-204 465l-197 -465h-4q-39 -6 -64 -6.5t-51 8.5z" />
<glyph unicode="_" horiz-adv-x="839" d="M45 -84q0 22 7.5 30.5t27.5 8.5h686q18 0 23 -7.5t5 -21.5v-28q0 -48 -28 -48h-692q-18 0 -23.5 9t-5.5 33v24z" />
<glyph unicode="`" horiz-adv-x="819" d="M195 1195q0 25 21.5 45t63 20t62.5 -56l100 -266q4 -9 4.5 -16.5t-14.5 -7.5h-33q-10 0 -20 14l-168 219q-16 23 -16 48z" />
<glyph unicode="a" horiz-adv-x="858" d="M66 146q0 92 76 156t154 91q126 41 234 61q10 2 10 32v50t-2 50.5t-7 48t-13 41t-21 37t-30 25.5q-32 24 -82.5 24t-84.5 -14t-44 -40.5t-10 -76.5t-20 -63.5t-63 -35.5t-51 -22q-18 0 -18 44t20 89t53 77t75 56q82 48 157 48t122 -13t78 -36.5t51 -58.5q36 -64 36 -167 l-12 -418q0 -39 28 -53q6 -2 12 -2t42 25.5t40 25.5t17 -15.5t13 -21.5t-14 -16.5t-45 -33t-71 -52t-58 -29.5t-31 5t-20.5 11.5t-14 18.5t-9.5 20t-7.5 21t-7.5 22q-4 15 -22 3q-152 -94 -251 -94q-1 0 -2 -1q-98 -1 -152 49q-55 50 -55 132zM221 203q0 -33 14.5 -63 t44 -51t67 -21t84.5 11q109 27 109 46v268q0 17 -4 17h-2q-5 0 -21 -4q-292 -57 -292 -203z" />
<glyph unicode="b" horiz-adv-x="993" d="M2 1329.5q0 28.5 12 28.5l300 32q16 0 16 -16l-6 -576q0 -59 2 -58.5t15 6t34 14t46 16.5q59 20 117 20q116 0 208 -54t142 -148t50 -190t-24 -163.5t-66 -117t-98 -85.5q-112 -71 -256 -71q-56 0 -116.5 19.5t-84 19.5t-57.5 -18t-48 -18q-20 0 -20 32q0 2 1 12t2 34 t2 62q3 84 3 321t-8 554t-22 317l-126 -12q-16 0 -17 5.5t-1 34zM320 131q0 -46 22.5 -61.5t37 -21.5t36.5 -9q35 -4 79.5 -4t92.5 18.5t82 51.5t59 78q49 88 49 178.5t-26 154t-69 109.5q-95 100 -227 100q-40 0 -86 -18.5t-46 -30.5z" />
<glyph unicode="c" horiz-adv-x="843" d="M66 380q0 195 130 319.5t298 124.5q67 0 131 -27.5t105.5 -75t41.5 -101.5q0 -28 -29.5 -50.5t-60 -22.5t-37.5 20t-13 41.5t-10 34t-11 30t-14 27.5t-18 22t-24 19q-31 15 -77 15h-3q-44 0 -87 -20q-44 -20 -76 -55q-30 -34 -54 -78q-46 -87 -46 -164q0 -3 -1 -6 q0 -73 12 -120q12 -49 37.5 -92t61.5 -75q78 -70 198 -70q114 0 232 55q14 6 21 6q15 -1 15 -23q0 -14 -43.5 -45t-81.5 -49q-91 -46 -204 -46q-182 0 -287.5 105.5t-105.5 300.5z" />
<glyph unicode="d" horiz-adv-x="1021" d="M56 352q0 106 32 182t88 131q120 117 301 117q97 0 199 -46q12 -5 15 -5t3 78t-7 289.5t-15 211.5l-138 -18q-14 0 -10.5 20t4 25.5t1 7.5t1 5.5t1.5 4.5t2 3t3 2q4 1 34.5 4.5t98.5 13t110.5 15.5t54.5 6t12 -23t-3 -142q-10 -359 -10 -634q1 -14 1 -28q0 -284 2.5 -390 t11 -126.5t34.5 -19.5q2 0 17 1l31 5q18 2 27 4q20 4 20 -11.5t-0.5 -22t-1.5 -15.5q-5 -15 -17 -17q-242 -32 -252 -32q-1 0 -2 -1q-9 -1 -11 5q-3 6 -3 20l2 73q0 16 -22 2q-128 -80 -248 -80q-236 0 -326 193q-40 86 -40 192zM217 375.5q0 -63.5 17.5 -122t53.5 -103.5 q75 -94 234 -94q46 0 109 20t63 40v512q0 20 -40 48q-77 54 -140 54h-1q-63 0 -108 -19t-79 -51.5t-59 -76t-37.5 -94t-12.5 -114z" />
<glyph unicode="e" horiz-adv-x="868" d="M58 379q0 91 31 172t85 139q118 127 305 127q152 0 234 -101q77 -94 77 -230q0 -32 -116 -32l-457 11q-6 -15 -6 -79.5t25 -128.5t66 -105q88 -86 202 -86q140 0 254 119q14 14 17 13.5t21.5 -16t18.5 -19.5t-16.5 -24.5t-49 -50.5t-74.5 -58q-101 -67 -207 -67 t-182 30.5t-126 86t-76 132t-26 167.5zM221 522q1 -10 19 -10l351 9q46 -1 46 7q0 146 -91 204q-44 28 -91 28t-90.5 -23t-73.5 -59q-64 -76 -70 -156z" />
<glyph unicode="f" horiz-adv-x="626" d="M66 24q0 34 30 34h76q8 0 8 122l-2 172v123q0 227 -4 227h-68q-18 0 -23 6.5t-5 26.5t4 26.5t18 6.5h62q10 0 12 2t2 16l-4 199q0 309 198 387q56 22 113 22t97 -17t67 -50t27 -72t-39 -72.5t-67 -33.5q-30 1 -32 25q0 2 -5.5 44.5t-22 80t-62.5 39.5q-41 0 -57.5 -25.5 t-25.5 -45t-14.5 -46.5t-9 -52t-5.5 -56q-2 -52 -2 -85.5t-4 -231.5q0 -20 8 -24t39 -4h227q20 0 20 -11.5t-5 -32t-13 -20.5h-229q-24 0 -31.5 -3t-7.5 -15v-340q0 -288 18 -288h140q17 0 20.5 -6.5t3.5 -27t-4 -27.5t-24 -7l-222 4l-170 -4q-20 0 -26 8t-6 26z" />
<glyph unicode="g" horiz-adv-x="870" d="M24 -360q0 44 17 78t42.5 59t60.5 45q64 38 111 51.5t47 14.5t-4 1l-26 1h-74q-68 0 -88 42q-18 46 -18 105t41 67q213 56 213 58t-18 6q-264 75 -264 336q0 67 31 126t83 99q110 86 252 86q86 0 134 -26t70 -41.5t35 -26.5t15 -11t27 9q77 27 123 31q10 0 17 -22t7 -41 t-12 -19q-20 -2 -66.5 -11.5t-46.5 -12t6 -22.5q19 -58 19 -123.5t-16 -116.5t-49 -89q-80 -94 -333 -165q-34 -10 -98 -28q-65 -16 -98 -26q-4 0 -4 -11t5 -25q13 -32 19 -32q58 -4 134.5 -6t128 -6t91.5 -8.5t85 -13.5t79 -21.5t66 -31.5t53 -43q46 -53 46 -142 q0 -91 -59 -172q-120 -162 -398 -162q-180 0 -299 86q-39 28 -63 69t-24 85zM129 -340q0 -46 26 -84q25 -38 67 -62q86 -48 186 -48q164 0 258 74q72 58 72 157q0 40 -33 71.5t-87 49.5q-109 36 -231 36q-80 0 -142.5 -35.5t-89 -74t-26.5 -84.5zM207 516.5 q0 -60.5 18 -112.5t44.5 -88t57.5 -62q60 -53 93 -54h1q33 0 65 22q34 22 64 59q68 86 68 211.5t-53 192.5t-145 67q-56 0 -105 -32t-78.5 -87.5t-29.5 -116z" />
<glyph unicode="h" horiz-adv-x="1030" d="M14 1310q0 28 2.5 34t49 13t149.5 19t114.5 12t14 -5t2.5 -15.5t-4 -111.5q-12 -316 -12 -432t1 -117t35 17.5t113 44t134 25.5t94 -12t66 -33t47 -53t31.5 -66t18.5 -81q10 -75 10 -181v-174q0 -136 7 -136h69q18 0 23.5 -8t5.5 -26q-1 -34 -29 -34l-151 4l-181 -4 q-20 0 -24 7t-4 26t4 27t20 8h99q10 0 10 210.5t-7 250t-22 72.5t-37 57q-47 50 -133 50t-172 -42q-28 -14 -28 -25q2 -373 2 -473t8 -100h94q18 0 22.5 -7.5t4.5 -21t-0.5 -18.5t-2.5 -10q-4 -11 -24 -11l-176 4l-180 -4q-26 0 -28 19q0 5 -1 15q0 34 31 34h88q8 0 8 291 q0 606 -9 773t-11 170.5t-8 3.5l-122 -14q-12 0 -12 28z" />
<glyph unicode="i" horiz-adv-x="509" d="M41 725q-1 8 7 28q8 21 15 24t27 3l232 10q14 0 17 -3.5t3 -14.5v-348q0 -366 10 -366h88q17 0 21 -7t4 -26t-4.5 -27t-20.5 -8l-176 4l-188 -4q-17 0 -21 7.5t-4 26t5.5 26.5t25.5 8h102q6 0 6 218.5t-4 323t-6 110.5t-5 8q-5 3 -11 3h-6l-98 -4q-19 0 -19 8zM151 1128 q0 40 22 69q41 54 93 54q106 -1 106 -89q0 -52 -41 -86t-84 -34t-69.5 23t-26.5 63z" />
<glyph unicode="j" horiz-adv-x="598" d="M4 -522q0 34 32 74t54 40l117 -8q37 0 54 18t17 40t-4 119q-14 280 -14 573.5t-2.5 327.5t-4.5 39q-1 5 -9 5l-144 -6h-9t-5 12t6 34t16 22l281 12q19 0 20 -25q1 -5 1 -15v-13l10 -671q0 -277 -54 -403q-23 -53 -55.5 -94.5t-123.5 -85t-125 -43.5q-58 0 -58 48z M157 1184q0 40 22 69q41 54 93 54q106 -1 106 -89q0 -52 -41 -86t-84 -34t-69.5 23t-26.5 63z" />
<glyph unicode="k" horiz-adv-x="919" d="M12 1329v23q0 14 5 20t20 8q265 20 281 20l1 1q15 0 15 -15v-18l-22 -914q0 -14 4 -17t22 -3h45q22 0 33.5 14t66 86.5t88.5 128t34 61.5q1 7 -21 7h-50q-24 0 -26 19v14q0 34 28 34l128 -4l126 4q24 0 24.5 -26t-4 -33.5t-22.5 -7.5h-65q-16 0 -184 -205 q-40 -48 -43.5 -52t-5.5 -8t-2 -5t1 -4t2 -4l5 -5t6 -8l309 -358q14 -18 20.5 -21t20.5 -3h24q20 0 24.5 -6.5t4.5 -22t-0.5 -20.5t-2.5 -10q-4 -9 -26 -9l-141 4l-145 -4q-18 0 -22.5 7.5t-4.5 26t5 26.5t22 8h26q18 0 14 8l-8 12l-224 278q-18 23 -25 28t-21 5h-24 q-10 0 -13 -4.5t-3 -22.5v-172q0 -132 4 -132h65q18 0 22.5 -8t4.5 -32q0 -28 -27 -28l-145 4l-172 -4q-20 0 -23 7q-4 10 -4 23.5t0.5 18t2.5 9.5q4 10 22 10h90q12 0 14 3.5t2 26.5v396q0 832 -16 831l-117 -7q-16 0 -19.5 3.5t-3.5 17.5z" />
<glyph unicode="l" horiz-adv-x="526" d="M33 1322q0 14 3.5 27t4.5 16t2 5t2 3t3.5 1.5t3.5 0.5q5 2 131.5 10.5t136.5 8.5q18 0 18 -36l12 -1227q0 -73 10 -73h88q17 0 21 -7t4 -22.5t-0.5 -20t-2.5 -10.5q-4 -8 -22 -8l-170 4l-196 -4q-17 0 -21.5 8t-4.5 26t4 26t20 8h104q10 0 10 170t-6 555t-11 446.5 t-6.5 67t-2 8.5t-2.5 5.5t-3 3.5q-1 3 -5 3h-8l-107 -9q-10 0 -10 14z" />
<glyph unicode="m" horiz-adv-x="1513" d="M43 717q0 2 7 27.5t11 27.5q6 4 123.5 9t128.5 5t15 -5t4 -23v-62q0 -14 1 -15t9 5q164 115 293 115q132 0 176 -94q5 -10 6 -10.5t18 10t45 25t62 29.5q79 36 146 36l2 -1q68 0 113 -15t74 -41t48 -64q33 -70 33 -184l-4 -348q0 -86 4 -86h82q18 0 23 -8t5 -26t-5 -26 t-23 -8l-162 4l-180 -4q-17 0 -22 8t-5 26q0 34 31 34h84q16 0 16 384q0 209 -113 247q-27 10 -64 10q-1 -1 -3 -1q-40 0 -87.5 -13.5t-74 -27t-26.5 -16.5t3 -17q9 -42 9 -140v-230q0 -196 4 -196h74q18 0 22 -8t4 -26q0 -34 -26 -34l-158 4l-154 -4q-20 0 -26 7.5t-6 26 t4.5 26.5t21.5 8h78q14 0 14 192l-2 192q0 106 -6.5 134t-13 47.5t-17.5 32t-25 22.5q-26 20 -87 20q-119 0 -193 -59q-20 -16 -20 -33v-490q0 -52 6 -54q10 -4 26 -4h50q18 0 23 -8t5 -26t-5 -26t-23 -8l-162 4l-178 -4q-14 0 -19.5 6.5t-5.5 33.5q1 28 23 28h86 q14 0 19 52t5 224v223l-5 149l-1 4h-3h-7q-99 -6 -112 -6t-13 13z" />
<glyph unicode="n" horiz-adv-x="1052" d="M41 712q0 10 8.5 31.5t12.5 24t21 4.5t108 7t109 7t21.5 1t6 -1t4.5 -1t4 -1.5t2.5 -3t1 -3.5t0.5 -3v-86q0 -12 3 -12t5 2q2 0 4 2q6 4 12.5 9t29.5 20t36.5 24t38.5 22t47 19q54 18 107.5 18t94 -10t69.5 -27t50 -44.5t34 -57t21 -69.5q13 -68 13 -160l-10 -348 q0 -14 2 -16q3 -2 15 -2h61q20 0 27.5 -7t7.5 -25t-6 -27t-25 -9l-153 4l-179 -4q-22 0 -26.5 6t-4.5 26q0 36 33 36h88q13 0 13 212v37q0 178 -5 211q-5 37 -18 71q-13 35 -35 57q-46 48 -133 48q-69 0 -159 -46q-42 -22 -48 -30t-6 -22l-2 -506q0 -24 3 -28t17 -4h78 q20 0 24.5 -7.5t4.5 -21t-0.5 -18.5t-2.5 -10q-4 -11 -24 -11l-172 4l-186 -4q-20 0 -22 7q-4 10 -4 27.5t4.5 25.5t21.5 8h92q16 0 16 283t-2 318.5t-3 40t-2 6.5q-2 4 -8 5l-126 -9q-10 0 -10 10z" />
<glyph unicode="o" horiz-adv-x="913" d="M56 379q0 87 31 168t85 140q120 130 310 130h3q167 0 270 -121q103 -120 103 -292q0 -194 -108 -316q-110 -125 -302 -125q-168 0 -280 121t-112 295zM299 97q59 -69 149 -69q250 0 250 390q0 180 -105 280q-57 54 -137 54q-243 0 -243 -403q0 -155 86 -252z" />
<glyph unicode="p" horiz-adv-x="1048" d="M43 712q0 8 7 33q6 27 12 27l278 12q16 0 22 -6t6 -28v-42q0 -20 26 0q2 1 3 1q2 2 25 18.5t83.5 39.5t134.5 23t143 -30t112 -84q88 -110 88 -278t-115 -290q-126 -132 -319 -132q-72 0 -148 25l-26 9q-5 0 -5 -26l7 -367q4 -131 10 -131h143q20 0 24.5 -7t4.5 -26 q-1 -35 -29 -35l-221 4l-205 -4q-17 0 -21.5 8t-4.5 26t5 26t21 8h111q6 0 6 322v290q0 80 -0.5 149t-0.5 116.5t-1.5 93t-2 68.5t-2.5 55t-2 40q-5 86 -10.5 87t-7 1.5t-7 0t-7.5 -0.5l-118 -4q-19 0 -19 8zM370 100q0 -16 30 -34q67 -40 131.5 -40t111.5 22t79 58 q33 36 56 82q46 90 46 215.5t-74 214t-187 88.5q-110 0 -172 -53q-21 -19 -21 -27v-526z" />
<glyph unicode="q" horiz-adv-x="1003" d="M66 368q0 119 56 215t154 149q100 54 222 54q78 0 128 -18q94 -35 108 -35t25 11.5t19 24.5q24 36 50 36t26 -37q-10 -304 -10 -610v-338q0 -328 8 -328h74q20 0 26 -6t6 -30t-3.5 -30t-22.5 -6h-62q-139 0 -238 -11t-106 -11q-14 0 -14 35t21 36.5l42 3t32 2.5t24 3 t19 3t13 4t10 6t5 9q4 8 4 29l4 471q0 17 -16 11q-6 -2 -14 -5q-132 -39 -205 -39t-123 13.5t-98 44t-84 75.5q-80 100 -80 268zM223 391q0 -49 12 -98.5t36.5 -94t58.5 -78.5q74 -75 182 -75q54 0 115 11.5t61 27.5v512q0 58 -54.5 90.5t-129 32.5t-118 -19t-73 -51 t-50.5 -74.5t-30.5 -88.5t-9.5 -95z" />
<glyph unicode="r" horiz-adv-x="673" d="M43 716q-1 4 1 10l4 16l4 16q3 12 36 12q171 6 205.5 6t37.5 -2t3 -16l-2 -119v-14v-8q0 3 8 18q34 82 89.5 130t104 48t87.5 -34.5t39 -57.5t-29 -59t-50 -36t-39 10.5t-31 22.5q-37 33 -57 33q-110 0 -110 -412q0 -222 18 -222h136q17 0 21.5 -8t4.5 -21v-18t-3 -10 q-3 -11 -23 -11l-224 4l-182 -4q-17 0 -21.5 8t-4.5 22v18.5t2 9.5q4 10 22 10h90q16 0 16 327t-16 327l-122 -4q-15 0 -15 8z" />
<glyph unicode="s" horiz-adv-x="690" d="M92 159q26 29 37 29t16.5 -8t14 -24.5t31.5 -45t66.5 -55.5t102 -27t95.5 32q37 34 37 96q0 92 -122 151q-23 11 -86 39t-102 52q-110 70 -110 176q0 68 44.5 123t113 84.5t128.5 30t98 -9.5t62 -26t42 -36q32 -36 32 -76q0 -16 -34 -29t-51 -13t-25 7.5t-13 19t-10.5 26 t-14 29t-20.5 25.5q-26 26 -62 26.5t-56 -4t-39 -15t-33 -25.5q-32 -35 -31 -93q-1 -56 43 -89q32 -24 58 -37q26 -12 40 -19q12 -7 16 -9q73 -31 141 -72q123 -76 123 -175q0 -73 -42 -131q-84 -116 -252 -116q-138 0 -225 67q-40 31 -40 61q0 31 27 61z" />
<glyph unicode="t" horiz-adv-x="591" d="M64 704q0 10 10 21l186 260q12 19 26 19q22 0 23 -25l-12 -197q0 -11 2 -12q3 -2 15 -2h210q14 0 14 -12q0 -2 -6 -28t-12 -34t-20 -8h-195q-8 0 -8 -88v-393v-9q0 -67 15 -82q29 -30 70.5 -30t78.5 8t63 16t35 8t9 -19t-2 -22t-24 -19.5t-106 -48t-130 -31.5t-77 13 t-48 36q-31 42 -31 96l4 444q0 119 -23 119h-51q-16 0 -16 20z" />
<glyph unicode="u" horiz-adv-x="1044" d="M22 731q0 47 25 51q4 0 5 1q9 2 102.5 5.5t124.5 3.5t33 -3.5t2 -14.5v-557q0 -131 220 -131q57 0 119 8t62 18v242q-1 374 -17 375l-102 -4q-16 0 -16 6q0 44 8 49.5t22 5.5l238 10q20 0 20 -10v-8q-2 -489 -2 -578.5t3 -113.5t9.5 -31.5t20.5 -7.5l90 13q13 0 13 -25 v-5q0 -20 -4 -26t-135 -24.5t-135 -18.5t-6.5 52.5t-4 52.5t-21.5 -10t-54 -24t-74 -27q-100 -34 -181 -34q-46 0 -86 11q-143 41 -143 268v322q0 152 -18 151l-101 -2q-17 0 -17 10z" />
<glyph unicode="v" horiz-adv-x="944" d="M45 754q1 34 27 34l143 -4l185 4q20 0 21 -15q1 -6 1 -21q0 -31 -20 -31h-72q-30 -1 -31 -11q4 -24 78.5 -236.5t100.5 -269t31 -56.5t13 22q193 458 193 524q-1 26 -15 27h-59q-24 1 -26 19q0 4 -0.5 14t0.5 14t3 10q4 10 25 10l123 -4l110 4q14 0 18.5 -8t4.5 -34 q-1 -25 -25 -25h-38q-10 0 -13 -4.5l-6 -9t-14.5 -26t-106 -249.5t-125.5 -293t-44 -83t-33 -42t-42 -55q-12 -17 -24 -17h-2q-11 0 -19 10q-9 10 -16.5 29t-13 35t-11.5 38t-16 54q-60 184 -138 387t-80 208t-3 6t-2 4t-2 4t-2.5 2t-3.5 1l-11 1h-36q-17 0 -22 7.5t-5 25.5 z" />
<glyph unicode="w" horiz-adv-x="1427" d="M45 750.5q0 15.5 1 21.5q4 16 28 16l141 -4l178 4q27 0 29 -19v-19t-5 -21.5t-21 -7.5h-56q-28 -1 -28 -15q0 -26 76 -248t93 -262t23 -40t11 13.5t5 14.5q2 7 33 84t51 125q53 133 74.5 194.5t21.5 70.5v11.5t-1 5.5t-2 5q-3 8 -9 20q-10 21 -58 21h-4h-24 q-18 0 -23 7.5t-5 22.5v21q3 16 28 16l154 -4l147 4q27 0 29 -19v-15q0 -32 -31 -33h-43q-18 0 -18 -12v-5q5 -26 68 -234t85.5 -267t28.5 -59t30.5 57t91 260t66.5 231.5t-16 28.5h-70q-17 0 -21.5 7.5t-4.5 25.5t5 26t23 8l124 -4l110 4q24 0 24 -26t-5 -33.5t-21 -7.5 h-12q-20 0 -34 -26.5t-54 -134.5q-132 -352 -165 -422t-61 -105t-44 -63t-34 -28q-32 0 -64 130q-2 6 -51.5 174t-72.5 232q-22 64 -24 70q-4 10 -8 10.5t-12.5 -22t-37 -100.5t-45.5 -121q-76 -198 -99.5 -232t-32.5 -44q-27 -28 -43.5 -57.5t-26 -34.5t-15.5 -5t-12.5 5.5 t-12.5 16t-11 21.5t-10.5 26.5t-9 25.5t-8 25.5t-9.5 32.5t-40 116t-86 245t-70 201t-25 59.5t-22 4.5h-32q-20 0 -24.5 7t-4.5 22.5z" />
<glyph unicode="x" horiz-adv-x="958" d="M45 25q0 21 6 27t29 6t36 8t52 48l246 252q12 12 12.5 16t-6.5 16l-220 294q-16 20 -22 24q-4 5 -18 5h-46q-20 0 -24 7t-4 22.5t1 21.5q3 16 27 16l166 -4l128 4q16 0 20 -8t4 -22t-0.5 -18.5t-2.5 -9.5q-4 -9 -32.5 -9t-28.5 -9.5t17 -29.5l129 -188q14 -22 22 -14l7 7 t13 13.5t77 88.5q96 113 96 122.5t-43 9.5h-32q-18 0 -23 7.5t-5 21t1 18.5q1 4 3 10q6 10 26 10l116 -4l117 4q16 0 20.5 -7t4.5 -26t-5 -26.5t-21 -7.5t-29 -5.5t-19 -10.5t-22 -21t-37 -35t-62 -60t-86 -86.5t-56.5 -57t-11.5 -15.5t88.5 -128t133.5 -181t50.5 -60 t18.5 -3h24q26 0 29 -20q0 -4 0.5 -13t-0.5 -14t-3 -10q-4 -11 -24 -11l-147 4l-143 -4q-26 0 -28 19q0 5 -1 19q0 30 27 30h26q28 0 28.5 9t-5 18t-15.5 23t-40 62t-69 101t-42 56t-4 4.5t-3 3.5q-3 3 -6.5 3t-13.5 -12t-56 -65q-150 -173 -150 -194q0 -9 24 -9h62 q26 0 28 -20v-13v-14t-3 -10q-5 -11 -25 -11l-134 4l-126 -4q-14 0 -17.5 7t-3.5 28z" />
<glyph unicode="y" horiz-adv-x="956" d="M45 754q1 34 27 34l158 -4l180 4q20 0 26 -8t6 -26q0 -32 -30 -33h-40q-46 -1 -46 -15q0 -23 64 -199.5t93 -246.5t34 -82t8 -19t6 -13q6 -13 10 -13q5 0 29 65q165 483 165 510q0 12 -37 13h-72q-24 1 -26 19v13t1 15q1 4 3 10q4 10 24 10l138 -4l118 4q16 0 22 -7.5 t6 -22t-1 -19t-3 -9.5q-4 -9 -21 -9h-31q-18 -1 -24 -17q-22 -59 -138 -356t-127 -323.5t-22 -60.5q-36 -108 -53.5 -157t-25 -71.5l-9 -27t-8.5 -22.5t-10 -23t-9.5 -20t-11.5 -23t-13.5 -22t-16.5 -25q-16 -22 -31 -40.5t-22 -27.5t-8.5 -11t-7 -8t-7.5 -8l-7 -7t-9 -7 t-10 -6q-10 -6 -74.5 -37t-82.5 -31q-43 0 -43 47q0 34 41 90q18 26 43.5 34.5l46.5 15.5l36 12t35 14t34 17q34 20 44 46q90 221 90 240.5t-57.5 161.5t-147.5 355t-106 252t-19 43q-4 3 -14 3h-40q-24 1 -26 19q0 4 -1 14z" />
<glyph unicode="z" horiz-adv-x="845" d="M66 23.5q0 12.5 22 42.5l436 642q18 25 12 30.5t-18 5.5l-309 -11q-34 -2 -39.5 -5.5t-11.5 -29.5l-21 -88q-6 -26 -14.5 -26.5t-14.5 0t-11 1t-7 1t-6 0.5t-6 1t-4 3q-4 2 -4 6t2 32q6 60 11 112t10 57.5t28 5.5h575q56 -1 56 -21q0 -11 -10 -23.5t-11 -14.5l-432 -636 q-20 -30 -11 -38t19 -8l357 8q6 0 9.5 0.5t6 1t4.5 2.5t3.5 3t2 4.5t1.5 4.5q1 4 1 12l12 111q4 23 9 27t31 4t26 -14q0 -36 -6 -127.5t-12.5 -98t-30.5 -6.5h-605q-40 0 -45 8.5t-5 21z" />
<glyph unicode="{" horiz-adv-x="628" d="M76 560q0 14 7 21t18 9t25 6.5t29 11t29 23.5t25 43q25 58 25 178v164q0 179 8 213.5t18 65t25 45.5t36 33q21 17 50 25q70 18 119.5 18.5t56 -6t6.5 -26.5t-8.5 -26t-34.5 -6t-50 -4t-45 -15.5t-35 -31.5q-28 -43 -28 -131v-306q0 -121 -5.5 -150t-12 -48.5t-15.5 -32.5 t-21 -26q-22 -22 -53.5 -32.5t-31 -13.5t19.5 -9t35.5 -15t29 -22t21.5 -25.5t15.5 -32t10 -37.5t5.5 -46q2 -45 2 -116v-305q0 -88 21 -119.5t42 -43.5q36 -20 78.5 -20t51 -5.5t8.5 -26t-6.5 -27t-45.5 -6.5t-84 9t-76 21.5t-52 42.5t-32 55t-16 76q-7 71 -7 197v164 q0 226 -96 252q-17 4 -30.5 7.5t-22.5 10t-9 20.5z" />
<glyph unicode="|" horiz-adv-x="505" d="M198 -383v1911q0 24 11 31t33 7h14q32 0 41.5 -6t9.5 -34v-1909q0 -40 -9.5 -45.5t-21.5 -5.5h-42q-24 0 -30 8.5t-6 42.5z" />
<glyph unicode="}" horiz-adv-x="628" d="M76 -261.5q0 20.5 8 26t38.5 5.5t58.5 7t51 26q44 37 44 150v305q0 121 6 150.5t12 49t15 32t22 25.5q22 22 54.5 33.5t32.5 12.5q0 2 -20 9t-37 15.5t-30 21.5t-22 26t-15 32.5t-9.5 37t-5.5 46.5q-3 45 -3 115v306q0 78 -15 107t-28 42t-33 20q-36 12 -72 12.5t-44 6.5 t-8 26t6.5 26.5t36.5 6.5t64.5 -3.5t62.5 -12.5t49 -18.5t36.5 -29t26 -34.5t18 -44.5t11.5 -51t6 -61.5q3 -63 3 -146v-164q0 -120 17.5 -162t32 -59t29 -23.5t29 -11t24.5 -6.5q24 -4 25 -29q0 -24 -31 -31q-46 -10 -64 -26t-31 -40q-31 -58 -31 -194v-164 q0 -175 -9 -211.5t-18.5 -67t-24.5 -45.5t-36.5 -32.5t-49.5 -25.5q-70 -19 -119.5 -19t-56 6.5t-6.5 27z" />
<glyph unicode="~" horiz-adv-x="1624" d="M86 244q0 8 7 32.5t16 49t26 59.5t37 65t50 60q32 31 66 53q78 50 158.5 49.5t143 -16.5t116.5 -42t109 -57.5t106.5 -63t100.5 -57.5q110 -58 200 -58t168 112q44 64 60 120.5t25 59.5t18.5 0.5t14 -3.5t6.5 -2t5.5 -2t4.5 -3q4 -6 4 -13t-6.5 -32t-24 -69t-49.5 -93.5 t-72 -86.5q-92 -87 -225 -87q-122 0 -246 56q-81 36 -176.5 91t-145.5 80q-112 56 -206 56q-157 0 -223 -254q0 -2 -2 -6t-2 -6q-6 -21 -15 -21t-18 2.5t-12 3t-4.5 1t-4 1.5t-3.5 2t-3 2t-2.5 3l-1 4t-0.5 10z" />
<glyph unicode="&#xa1;" horiz-adv-x="534" d="M158 1268.5q0 35.5 34.5 75.5t67.5 40t75 -35.5t42 -61t-16 -55.5t-39 -52.5t-42.5 -22.5t-47.5 13.5t-51 38t-23 60zM182 15.5q0 18.5 8 140.5q28 440 46 834q0 26 33.5 26t33.5 -26l39 -955q0 -32 -23 -44.5t-64 -12.5t-57 9.5t-16 28z" />
<glyph unicode="&#xa2;" horiz-adv-x="833" d="M56 362q0 236 164 368q94 74 214 89q8 1 10 2.5t3 2t1.5 3t0.5 3.5q1 6 1 12l9 112q4 62 10 62h17q34 0 34 -10l-14 -164v-14q0 -2 1 -3l2 -2t4 -1h5.5t35 -5t86.5 -33.5t88 -72t34 -82.5t-29.5 -60.5t-60.5 -21.5q-31 1 -39 27q-5 14 -13 39.5t-12.5 39t-14 33 t-18.5 30.5q-24 28 -47.5 32.5t-25.5 3.5q-2 -2 -4 -14l-54 -640v-9q0 -13 53 -13t92 6t67 15t50.5 18t36 15.5t15.5 6.5q20 -1 20 -23q0 -14 -44 -45t-81 -49q-93 -46 -205 -46h-6.5t-5 -1t-3.5 -2q-4 -7 -11 -99q-10 -144 -16 -144h-17q-31 0 -31 10l19 225q0 13 -1.5 14 t-19.5 5q-142 26 -221 127t-79 253zM200 414q0 -100 45.5 -185t129.5 -125q7 -3 10.5 -2.5t3.5 4.5l51 632q0 14 -6 14h-8q-68 -14 -120 -69q-106 -107 -106 -269z" />
<glyph unicode="&#xa3;" horiz-adv-x="1044" d="M76 -121q0 21 8.5 35t24.5 27t32 23t39 24t39 26q25 17 25 33q8 156 8 237t-4 144.5t-7 68.5t-13 5h-114q-24 0 -24 30.5t22 30.5h103q18 0 22.5 1.5t4.5 7.5t-4 72q-10 198 -10 380q0 156 106 252q104 92 242 92q96 0 166 -42q75 -44 75 -124q0 -38 -25.5 -64t-63.5 -26 t-38 23t-3 45t-12 46t-23 42q-32 40 -91 40q-129 0 -163 -134q-19 -77 -19 -232v-348q0 -21 4.5 -26t26.5 -5h248q24 0 24 -30.5t-24 -30.5h-260q-10 0 -14 -5t-7 -73t-25.5 -173t-35 -139t-9.5 -34t7 2q72 34 143 34t195 -17t169 -17q97 0 97 70q0 22 -32 45 q-59 44 -58.5 60t24.5 43.5t52.5 27.5t62 -36t33.5 -90t-35 -107.5t-89.5 -84t-116 -30.5t-262 14t-214 14t-22.5 -25t-14 -40t-8 -22.5t-9 -21t-11 -21.5t-14 -18t-17 -15q-22 -13 -47.5 -13t-45 14t-19.5 35z" />
<glyph unicode="&#xa4;" horiz-adv-x="1011" d="M45 9q0 15 1.5 22t7.5 14t8 10t11 12l9 9l121 122q-70 99 -70 220q-1 122 67 215l-118 123q-37 30 -37 56.5t16.5 42t34 15.5t29.5 -6q16 -8 37 -28l122 -124q96 70 217 70t216 -70l126 127q24 32 52 31.5t44.5 -17t16.5 -31t-1.5 -21.5t-7 -14t-7.5 -10t-11 -12l-9 -9 l-124 -125q74 -104 74 -217.5t-74 -213.5l124 -124q37 -30 36.5 -57t-18 -43.5t-32 -16.5t-20.5 2t-10 3.5t-11 7t-8 7.5q-18 17 -140 140q-98 -72 -219 -72q-120 -1 -214 69l-125 -123q-26 -32 -54.5 -32t-44 16.5t-15.5 31.5zM250 413q0 -69 34 -127t91.5 -91t124 -33 t124.5 34t93 92.5t35 118t-20.5 107t-54.5 82.5q-75 78 -177 78q-68 0 -126 -36t-91 -96t-33 -129z" />
<glyph unicode="&#xa5;" horiz-adv-x="1222" d="M14 1339.5q0 24.5 7.5 30.5t29.5 6l217 -6l242 6q17 0 22.5 -8.5t5.5 -32t-5.5 -28.5t-30.5 -5h-121q-19 0 -21 -3t11 -34t70 -140.5t128 -241t79.5 -148.5t13 -25t6.5 -11t5 -4q6 0 62.5 109t87.5 169.5t56 109.5t47 96q47 100 47 111q-1 12 -5 12h-106q-26 0 -34.5 5 t-8.5 29t6.5 32t28.5 8l160 -6l156 6q22 0 30 -6.5t8 -30t-8 -30.5t-30 -7h-70q-6 0 -142 -238q-136 -239 -172 -302h296q12 0 12 -31t-12 -31h-332l-25 -40q-6 -8 -6 -19v-129h363q12 0 12 -31t-12 -31h-363q5 -388 19 -388h140q18 0 24 -7t6 -29t-6 -30t-24 -8l-245 6 l-233 -6q-20 0 -26 7.5t-6 32t7 29.5t33 5h104q20 0 20 388h-354q-12 0 -12 31t12 31h354v43q0 6 -0.5 10.5t-1 7.5t-2.5 7.5t-3 6.5q-2 6 -7 13l-55 100h-285q-12 0 -12 31t12 31h250q-302 540 -318 540h-59q-21 0 -29 6.5t-8 31z" />
<glyph unicode="&#xa6;" horiz-adv-x="505" d="M198 -383v770q0 35 30 35h50q28 0 29 -35v-770q0 -40 -9.5 -45.5t-21.5 -5.5h-42q-24 0 -30 8.5t-6 42.5zM198 776v752q0 24 11 31t33 7h14q32 0 41.5 -6t9.5 -34v-750q0 -27 -7.5 -36t-27.5 -9h-36q-22 0 -30 8.5t-8 36.5z" />
<glyph unicode="&#xa7;" horiz-adv-x="780" d="M76 635q0 70 27 114.5t49 69.5q30 33 67 61q13 8 -5 32t-36 54q-56 93 -55.5 187.5t72 166.5t190.5 72q167 0 223 -58q16 -18 16 -40q0 -64 -82 -63q-50 0 -83 17t-53 27q-48 23 -101 23q-98 0 -98 -82q0 -64 99 -198q44 -59 97 -127.5t106 -144.5t97 -153 q98 -173 98 -323q0 -91 -80 -155q-12 -9 -31 -23q-42 -30 -42 -37t12 -29q86 -156 86 -235q0 -116 -82 -188t-223 -72q-217 1 -217 97q0 22 19 37t39.5 15t35 -3.5t34 -12t57.5 -21.5t108 -13q148 0 148 100q0 58 -98 190q-44 59 -96 127.5t-104 143.5t-96 149 q-98 164 -98 295zM168 726q0 -148 338 -616q12 -16 17 -16t24 16q64 60 63.5 95t-12.5 77.5t-31 84t-48.5 93.5t-55.5 93t-60.5 91t-55.5 79.5t-49 68t-34 46.5t-7 9.5t-5 3t-6.5 -0.5t-9.5 -8q-68 -52 -68 -116z" />
<glyph unicode="&#xa8;" horiz-adv-x="819" d="M135 1088q0 40 22 69q41 54 93 54q106 -1 106 -89q0 -52 -41 -86t-84 -34t-69.5 23t-26.5 63zM462 1088q0 40 22 69q41 54 93 54q106 -1 106 -89q0 -52 -41 -86t-84 -34t-69.5 23t-26.5 63z" />
<glyph unicode="&#xa9;" horiz-adv-x="1726" d="M104 387q0 105 27 205t74.5 184.5t116.5 155t151.5 119.5t181.5 76.5t205 27.5t205 -27t182 -76t152 -119.5t116 -154.5q101 -178 101 -391q0 -323 -218 -545q-140 -143 -334 -196q-99 -27 -204.5 -27t-204.5 27.5t-181.5 76.5t-151.5 119.5t-116.5 155t-74.5 184.5 t-27 205zM186 387q0 -94 24 -183.5t66.5 -165t104 -139t135.5 -108.5t162 -69.5t182 -24.5t182 24.5t162 69.5t136 108.5t104.5 139t66 165t23.5 183.5t-23.5 183.5t-66 165t-104.5 139t-136 108.5t-162 69.5t-182 24.5t-182 -24.5t-162 -69.5t-135.5 -108.5t-104 -139 t-66.5 -165t-24 -183.5zM396 412q0 207 137 333q135 123 337 123q81 0 126.5 -17t60.5 -24t31.5 -17t24 -15t19.5 -13.5t18.5 -13.5t6.5 6v39q0 18 24.5 18.5t30.5 -0.5q12 -2 12 -18l-4 -260q0 -24 -34.5 -24t-34.5 16l6 119q0 16 -42.5 49t-76.5 53q-83 48 -176.5 48.5 t-166.5 -52t-114 -145.5t-41 -205t48 -203t131 -144t159 -53t125 11t79.5 26t53 30t35.5 25t18 10t17 -19t12 -26t-14 -21t-45 -33t-71 -36q-98 -40 -199 -40.5t-169 18t-127 57t-103 92.5q-94 118 -94 306z" />
<glyph unicode="&#xaa;" horiz-adv-x="720" d="M66 818.5q0 52.5 16.5 85.5t47 58t67.5 46t82 36q87 29 175 43q6 0 7 9v10q0 129 -24 165q-20 28 -37 36q-34 16 -68 16t-59 -10t-33.5 -29t-9 -61t-18.5 -52.5t-53 -25t-45 -14.5q-22 0 -22 36t17 72t45 62t64 44q70 38 140 38t116 -16t71 -45q49 -57 49 -159l-10 -334 q0 -40 30 -42q2 2 18 11q40 28 47.5 27.5t16 -11.5t8.5 -18t-8 -15t-22 -19t-27 -21q-36 -26 -61.5 -43.5t-43.5 -17.5q-54 0 -72 97q0 2 -1 4q-2 -1 -11.5 -9.5t-32 -22.5t-79 -38t-121.5 -24t-112 39.5t-47 92zM207 883q0 -40 28 -72t71.5 -32t93.5 16q50 14 61 24v212 l-2 12q-27 0 -101 -25q-152 -47 -151 -135z" />
<glyph unicode="&#xab;" horiz-adv-x="835" d="M96 397q0 6 14 20.5t49 46.5t59 54.5t67 64.5q90 88 93.5 88.5t19.5 -13.5t16 -19.5t-65 -119t-65 -124t65 -123t65 -120.5t-16 -20.5t-20 -12.5t-27.5 23.5t-66 65.5t-63.5 61.5t-43 39t-33 29.5t-24 23.5t-19 21.5t-6 14zM403 397q0 6 14 20.5t49 46.5t59 54.5t67 64.5 q90 88 93.5 88.5t19.5 -13.5t16 -19.5t-65 -119t-65 -124t65 -123t65 -120.5t-16 -20.5t-20 -12.5t-27.5 23.5t-66 65.5t-63.5 61.5t-43 39t-33 29.5t-24 23.5t-19 21.5t-6 14z" />
<glyph unicode="&#xac;" horiz-adv-x="1079" d="M58 440q0 42 44 42h875q28 0 37.5 -9t9.5 -37v-324q0 -36 -39 -36q-52 0 -61 21q-4 10 -4 26v227q0 29 -48 29h-770q-30 0 -37 13.5t-7 47.5z" />
<glyph unicode="&#xad;" horiz-adv-x="528" d="M43 413q0 13 13.5 49t25.5 38q14 2 192.5 8t188.5 6t10 -21t-5 -49q-6 -26 -16 -28q-22 -2 -198 -9t-193.5 -7t-17.5 13z" />
<glyph unicode="&#xae;" horiz-adv-x="1097" d="M45 962q0 106 38.5 201t105.5 163t161 108t199 40t199 -39.5t160.5 -107.5t105 -163t38.5 -201.5t-38.5 -201t-105 -163t-160.5 -108.5t-199 -40t-199 40t-161 108.5t-105.5 163t-38.5 200.5zM108 962.5q0 -123.5 58 -227t159 -164.5t208.5 -61t189.5 36t140 96.5t92 144 t34 176t-34 176t-92 144.5t-140 96.5t-189.5 35.5t-208.5 -60.5t-159 -164.5t-58 -227.5zM284 1283.5q0 14.5 4 19.5q5 7 21 7l109 -2l137 7q157 0 199 -98q14 -32 14 -72q0 -94 -121 -158q147 -52 154 -221q2 -26 3 -38t1 -13h45q12 0 14 -6.5t2 -24.5t-22 -18l-127 2 q-21 0 -21 20v56q0 84 -8.5 111t-18 44t-22.5 27q-30 25 -68 29.5t-114 4.5h-4q0 -180 8 -245h53q16 0 16 -24.5t-16 -24.5l-106 2l-94 -2q-20 0 -20.5 21t5 24.5t19.5 3.5h36q4 41 4 113v122q0 268 -8 312l-49 -2q-13 0 -19 4.5t-6 19zM461 1004h4l127 -2q76 38 76 130 q0 62 -48 100t-114 38l-43 -2q-2 -10 -2 -41v-223z" />
<glyph unicode="&#xaf;" horiz-adv-x="819" d="M195 1061v47q0 18 4 20t12 2h395q11 0 15 -4t4 -16v-51q0 -15 -3 -19t-16 -4h-395q-10 0 -13 4.5t-3 20.5z" />
<glyph unicode="&#xb0;" horiz-adv-x="524" d="M76 1095q0 77 54.5 132t131.5 55t131.5 -55t54.5 -132t-54.5 -131t-131.5 -54t-131.5 54t-54.5 131zM152 1096q0 -46 32 -78.5t78 -32.5t78 32.5t32 78.5t-32 78t-78 32t-78 -32t-32 -78z" />
<glyph unicode="&#xb1;" horiz-adv-x="1079" d="M58 180q0 53 18 62q8 4 24 4h879q26 0 34.5 -11t8.5 -37.5t-9 -40t-40 -13.5h-875q-40 0 -40 36zM58 664q0 52 42 51h371q12 0 14.5 2.5t2.5 11.5v285q0 36 38 36t51 -8t13 -32v-279q0 -16 18 -16h375q39 0 39 -37q0 -44 -8 -52q-16 -16 -41 -16h-365q-12 0 -15 -6 t-3 -22v-270q0 -35 -37 -35.5t-51 5.5t-14 30v274q0 16 -4 20t-23 4h-363q-28 0 -33 12q-7 16 -7 42z" />
<glyph unicode="&#xb2;" horiz-adv-x="737" d="M76 1373.5q0 10.5 13 32t39 48.5t58 52q76 59 168 59q140 0 208 -117q36 -62 36 -116.5t-14 -99t-36 -82t-54 -76.5t-60 -68t-64 -59q-48 -42 -83 -67t-59 -55h362q3 16 12 101q0 20 28 18.5t28 -18.5q0 -10 -12 -93.5t-14.5 -102.5t-31.5 -19h-471q-33 0 -33 24 q0 14 41.5 78t49 70t28.5 24t33 28t35 32t38.5 38t37.5 41t36.5 46t30.5 48t25 52q22 57 22 105t-15.5 84.5t-49.5 61t-75.5 24.5t-75 -13t-56.5 -31q-23 -20 -42 -38q-44 -44 -52.5 -44t-19.5 11t-11 21.5z" />
<glyph unicode="&#xb3;" horiz-adv-x="737" d="M127 761q0 24 20.5 41t48 17t53.5 -10t64 -32q37 -21 55 -21q63 0 110.5 51.5t47.5 126.5t-33 115t-112 40l-149 -8q-34 0 -34 50q0 22 40 32q125 26 163.5 56t50 61t11.5 85t-33.5 87t-76.5 33t-69 -7t-43 -17t-31 -20q-34 -24 -44 -24t-20.5 10t-10.5 22t18 30.5 t47 37.5q72 48 165 48t160 -54t67 -134q0 -117 -138 -185q-24 -13 -54 -25q111 -8 181.5 -61t70.5 -143q0 -139 -142 -221q-82 -47 -172 -47q-135 0 -188 29q-23 13 -23 37z" />
<glyph unicode="&#xb4;" horiz-adv-x="819" d="M373 922q0 8 4 16l100 266q20 56 62 56t64 -20t22 -44.5t-17 -48.5l-168 -219q-11 -14 -21 -14h-32q-14 0 -14 8z" />
<glyph unicode="&#xb5;" horiz-adv-x="1042" d="M45 -270q0 58 13 134q12 78 29 138q65 244 85.5 335.5t37.5 164t30.5 125.5t22.5 81t17 44q12 24 27 24q86 0 86 -41q1 -16 -19 -85q-64 -229 -85 -388q-7 -80 -7 -88q0 -90 54 -90q88 0 223 214q97 154 187 378q28 74 35.5 88t26.5 14t49 -10q30 -8 30 -26 q0 -6 -51.5 -276t-51.5 -306t14.5 -50t34.5 -14t39.5 22t31.5 47q30 68 51.5 68.5t21.5 -31.5t-20 -73t-52.5 -79t-81 -64.5t-98.5 -26.5q-76 -1 -76 137q0 50 16.5 164t16.5 118t-0.5 4t-27 -44t-60.5 -94l-50 -74q-59 -86 -82.5 -110.5t-44.5 -43t-42 -28.5 q-116 -60 -161 14q-18 28 -26 56.5t-11 29t-10.5 -32.5t-17 -107.5t-9.5 -106t12 -65.5t24 -61t12 -33t-3 -15t-10 -21q-17 -27 -51 -27t-56.5 26.5t-22.5 84.5z" />
<glyph unicode="&#xb6;" horiz-adv-x="1007" d="M76 848q0 78 17 140.5t47 109.5t70 85.5t84 64.5t91 44q88 33 174 33q19 0 25 -6.5t6 -22.5v-964q0 -23 -16 -23q-118 1 -258 87q-100 62 -167 172q-73 120 -73 280zM568 -420q0 22 22 22h122q12 0 14.5 2t2.5 9v1706q0 18 4.5 22.5t20.5 4.5h156q14 0 18 -6t4 -23v-29 q0 -20 -7 -22t-15 -2h-103q-8 0 -9.5 -2t-1.5 -12v-1709q0 -15 -3 -17.5t-23 -2.5h-180q-22 1 -22 23v36z" />
<glyph unicode="&#xb7;" horiz-adv-x="301" d="M45 678q0 40 22 69q41 54 93 54q106 -1 106 -89q0 -52 -41 -86t-84 -34t-69.5 23t-26.5 63z" />
<glyph unicode="&#xb8;" horiz-adv-x="819" d="M233 -402q0 20 21 21q4 1 21 -7q54 -24 113 -24q119 0 119 109q0 86 -106 86q-23 0 -48.5 -9.5t-28.5 -9.5t-12 6t-9 11t33 90.5t51 128.5h47l-49 -135q-2 -6 0 -6.5t21.5 4t54 4.5t70.5 -13q34 -14 56 -35q45 -44 45.5 -88.5t-15.5 -78.5t-43 -62q-63 -63 -165 -63 q-56 0 -102 17q-74 26 -74 54z" />
<glyph unicode="&#xb9;" horiz-adv-x="737" d="M188 745q0 28 35 28h117q2 24 2 96v288q0 320 -8 320l-123 -6q-12 0 -17.5 6t-5.5 12v24q0 18 29 19q170 8 202.5 15.5t40.5 7.5q14 0 13 -35l-2 -709v-38h86q20 0 20.5 -33t-22.5 -33l-145 4l-193 -4q-16 0 -22.5 8t-6.5 30z" />
<glyph unicode="&#xba;" horiz-adv-x="786" d="M56 1022q0 95 44 176t126.5 130t181 49t171.5 -46t112.5 -122t39.5 -174t-40.5 -178t-119 -126.5t-177.5 -46.5t-175.5 45t-119.5 121.5t-43 171.5zM198 995q0 -140 86 -213q44 -38 92.5 -38.5t79.5 12.5t52 35.5t36.5 51t23.5 64.5q16 68 16 131.5t-12 109t-34 84.5 q-50 85 -145 85q-195 0 -195 -322z" />
<glyph unicode="&#xbb;" horiz-adv-x="835" d="M114 151.5q0 5.5 65 119.5t65 124.5t-65 123t-65 120t16 20.5t20 13t28 -23.5t66 -66t64 -62t43 -39t32 -29.5t25 -23q24 -24 24 -32.5t-13.5 -23.5t-49 -47t-59.5 -54t-66 -64q-90 -88 -94 -88.5t-20 13t-16 19zM421 151.5q0 5.5 65 119.5t65 124.5t-65 123t-65 120 t16 20.5t20 13t28 -23.5t66 -66t64 -62t43 -39t32 -29.5t25 -23q24 -24 24 -32.5t-13.5 -23.5t-49 -47t-59.5 -54t-66 -64q-90 -88 -94 -88.5t-20 13t-16 19z" />
<glyph unicode="&#xbc;" horiz-adv-x="1585" d="M188 540q0 28 35 28h117q2 24 2 96v288q0 320 -8 320l-123 -6q-12 0 -17.5 6t-5.5 12v24q0 18 29 19q170 8 202.5 15.5t40.5 7.5q14 0 13 -35l-2 -709v-38h86q20 0 20.5 -33t-22.5 -33l-145 4l-193 -4q-16 0 -22.5 8t-6.5 30zM399 -20q0 2 6 11.5t7 12.5l837 1348 q2 2 5 7.5t5 6.5t7 4q8 4 45 4t37 -12q0 -2 -4 -8q-5 -6 -5 -8l-839 -1352q-13 -20 -20 -23.5t-44 -3.5q-37 1 -37 13zM914 282q0 43 31.5 98.5t121.5 169.5q161 204 231 251q11 10 27 25q26 28 41.5 28t24 -16t8.5 -35v-435q0 -6 1 -7t7 -1h105q20 0 20 -26v-45 q0 -27 -30 -27h-95q-6 0 -6 -6v-252q-1 -22 -19 -22l-88 -8q-18 0 -18 22l6 256q0 8 -1.5 9t-12.5 1h-314q-40 0 -40 20zM1008 360h266q8 0 8 10v340q-50 -54 -146 -174t-128 -176z" />
<glyph unicode="&#xbd;" horiz-adv-x="1728" d="M188 540q0 28 35 28h117q2 24 2 96v288q0 320 -8 320l-123 -6q-12 0 -17.5 6t-5.5 12v24q0 18 29 19q170 8 202.5 15.5t40.5 7.5q14 0 13 -35l-2 -709v-38h86q20 0 20.5 -33t-22.5 -33l-145 4l-193 -4q-16 0 -22.5 8t-6.5 30zM399 -20q0 2 6 11.5t7 12.5l837 1348 q2 2 5 7.5t5 6.5t7 4q8 4 45 4t37 -12q0 -2 -4 -8q-5 -6 -5 -8l-839 -1352q-13 -20 -20 -23.5t-44 -3.5q-37 1 -37 13zM1067 656.5q0 10.5 13 32t39 48.5t58 52q76 59 168 59q140 0 208 -117q36 -62 36 -116.5t-14 -99t-36 -82t-54 -76.5t-60 -68t-64 -59q-48 -42 -83 -67 t-59 -55h362q3 16 12 101q0 20 28 18.5t28 -18.5q0 -10 -12 -93.5t-14.5 -102.5t-31.5 -19h-471q-33 0 -33 24q0 14 41.5 78t49 70t28.5 24t33 28t35 32t38.5 38t37.5 41t36.5 46t30.5 48t25 52q22 57 22 105t-15.5 84.5t-49.5 61t-75.5 24.5t-75 -13t-56.5 -31 q-23 -20 -42 -38q-44 -44 -52.5 -44t-19.5 11t-11 21.5z" />
<glyph unicode="&#xbe;" horiz-adv-x="1585" d="M127 556q0 24 20.5 41t48 17t53.5 -10t64 -32q37 -21 55 -21q63 0 110.5 51.5t47.5 126.5t-33 115t-112 40l-149 -8q-34 0 -34 50q0 22 40 32q125 26 163.5 56t50 61t11.5 85t-33.5 87t-76.5 33t-69 -7t-43 -17t-31 -20q-34 -24 -44 -24t-20.5 10t-10.5 22t18 30.5 t47 37.5q72 48 165 48t160 -54t67 -134q0 -117 -138 -185q-24 -13 -54 -25q111 -8 181.5 -61t70.5 -143q0 -139 -142 -221q-82 -47 -172 -47q-135 0 -188 29q-23 13 -23 37zM399 -20q0 2 6 11.5t7 12.5l837 1348q2 2 5 7.5t5 6.5t7 4q8 4 45 4t37 -12q0 -2 -4 -8 q-5 -6 -5 -8l-839 -1352q-13 -20 -20 -23.5t-44 -3.5q-37 1 -37 13zM914 282q0 43 31.5 98.5t121.5 169.5q161 204 231 251q11 10 27 25q26 28 41.5 28t24 -16t8.5 -35v-435q0 -6 1 -7t7 -1h105q20 0 20 -26v-45q0 -27 -30 -27h-95q-6 0 -6 -6v-252q-1 -22 -19 -22l-88 -8 q-18 0 -18 22l6 256q0 8 -1.5 9t-12.5 1h-314q-40 0 -40 20zM1008 360h266q8 0 8 10v340q-50 -54 -146 -174t-128 -176z" />
<glyph unicode="&#xbf;" horiz-adv-x="745" d="M56 492q0 200 83 288q68 74 201 74q28 0 36 4t9 24q14 160 15.5 182t6.5 25t29 3t29.5 -5t5.5 -35q0 -263 -2.5 -301.5t-15.5 -46.5t-43 -8h-124q-126 0 -158 -84q-14 -36 -14 -98t28 -123t84 -110q118 -106 362 -135q28 -4 32 -9q8 -13 8 -27v-92q0 -40 -24 -40 q-18 0 -31 37q-4 13 -8 13q-124 20 -197 46q-312 108 -312 418zM336 1249q0 29 18 59t39 47t49 17t70.5 -36t42.5 -61t-15.5 -55t-38.5 -52.5t-43 -22.5t-48 13t-51 37.5t-23 53.5z" />
<glyph unicode="&#xc0;" horiz-adv-x="1429" d="M56 27q0 25 5.5 30t30.5 5h62q18 0 271 617q21 52 23 56l218 504q8 21 35 54t43 67q24 52 40 53q21 -1 25 -19l245 -690q232 -642 246 -642h72q14 0 18 -7t4 -29t-4 -30t-18 -8l-190 6l-236 -6q-18 0 -22 7.5t-4 32t5 29.5t29 5h113q2 0 2 14t-51.5 173t-75.5 229 t-28 74.5t-19 4.5h-413q-22 0 -29 -5.5t-15 -27.5q-164 -414 -166 -460l2 -2h158q17 0 20.5 -6.5t3.5 -22.5v-20.5t-1 -11t-4 -8.5q-6 -5 -19 -5l-192 6l-156 -6q-20 0 -24 7t-4 32zM479.5 623q-0.5 -5 26.5 -5h366q18 0 18 6q0 7 -6 23l-169 498q-7 24 -11.5 24.5 t-13.5 -24.5l-200 -491q-10 -26 -10.5 -31zM531 1679q-1 63 67 63q42 0 76 -54l109 -176q0 -1 3 -4q5 -8 5 -14q-1 -6 -19 -6h-42q-2 0 -10.5 6t-10.5 8l-147 122q-30 24 -31 55z" />
<glyph unicode="&#xc1;" horiz-adv-x="1429" d="M56 27q0 25 5.5 30t30.5 5h62q18 0 271 617q21 52 23 56l218 504q8 21 35 54t43 67q24 52 40 53q21 -1 25 -19l245 -690q232 -642 246 -642h72q14 0 18 -7t4 -29t-4 -30t-18 -8l-190 6l-236 -6q-18 0 -22 7.5t-4 32t5 29.5t29 5h113q2 0 2 14t-51.5 173t-75.5 229 t-28 74.5t-19 4.5h-413q-22 0 -29 -5.5t-15 -27.5q-164 -414 -166 -460l2 -2h158q17 0 20.5 -6.5t3.5 -22.5v-20.5t-1 -11t-4 -8.5q-6 -5 -19 -5l-192 6l-156 -6q-20 0 -24 7t-4 32zM479.5 623q-0.5 -5 26.5 -5h366q18 0 18 6q0 7 -6 23l-169 498q-7 24 -11.5 24.5 t-13.5 -24.5l-200 -491q-10 -26 -10.5 -31zM730 1492q0 4 1 7.5t4 7.5t3 5l108 176q36 54 72 54t54 -17t18 -45t-31 -56l-147 -122l-6 -6q-8 -8 -15 -8h-49q-12 0 -12 4z" />
<glyph unicode="&#xc2;" horiz-adv-x="1429" d="M56 27q0 25 5.5 30t30.5 5h62q18 0 271 617q21 52 23 56l218 504q8 21 35 54t43 67q24 52 40 53q21 -1 25 -19l245 -690q232 -642 246 -642h72q14 0 18 -7t4 -29t-4 -30t-18 -8l-190 6l-236 -6q-18 0 -22 7.5t-4 32t5 29.5t29 5h113q2 0 2 14t-51.5 173t-75.5 229 t-28 74.5t-19 4.5h-413q-22 0 -29 -5.5t-15 -27.5q-164 -414 -166 -460l2 -2h158q17 0 20.5 -6.5t3.5 -22.5v-20.5t-1 -11t-4 -8.5q-6 -5 -19 -5l-192 6l-156 -6q-20 0 -24 7t-4 32zM479.5 623q-0.5 -5 26.5 -5h366q18 0 18 6q0 7 -6 23l-169 498q-7 24 -11.5 24.5 t-13.5 -24.5l-200 -491q-10 -26 -10.5 -31zM525 1493.5q0 5.5 2 9t5.5 6.5t4.5 5l162 182q4 4 8.5 10t6.5 8q11 11 22 11h49q14 -1 37 -29l162 -182q12 -12 12 -19t-14 -7h-25q-7 0 -27 12l-164 92q-6 3 -12 0l-164 -92q-20 -12 -26 -12h-25q-14 0 -14 5.5z" />
<glyph unicode="&#xc3;" horiz-adv-x="1429" d="M56 27q0 25 5.5 30t30.5 5h62q18 0 271 617q21 52 23 56l218 504q8 21 35 54t43 67q24 52 40 53q21 -1 25 -19l245 -690q232 -642 246 -642h72q14 0 18 -7t4 -29t-4 -30t-18 -8l-190 6l-236 -6q-18 0 -22 7.5t-4 32t5 29.5t29 5h113q2 0 2 14t-51.5 173t-75.5 229 t-28 74.5t-19 4.5h-413q-22 0 -29 -5.5t-15 -27.5q-164 -414 -166 -460l2 -2h158q17 0 20.5 -6.5t3.5 -22.5v-20.5t-1 -11t-4 -8.5q-6 -5 -19 -5l-192 6l-156 -6q-20 0 -24 7t-4 32zM479.5 623q-0.5 -5 26.5 -5h366q18 0 18 6q0 7 -6 23l-169 498q-7 24 -11.5 24.5 t-13.5 -24.5l-200 -491q-10 -26 -10.5 -31zM539 1532q0 15 20 63.5t53.5 78.5t60 30t53.5 -12q28 -12 48 -27q54 -39 82 -39q50 0 70 68q4 14 7 16t23 2t20 -8q0 -20 -18 -67.5t-51.5 -81t-64.5 -33.5t-51.5 7.5t-37.5 19t-33 22.5q-38 27 -68 27q-50 0 -68 -67q0 -5 -2 -5 l-4 -3l-18 -1q-20 0 -21 10z" />
<glyph unicode="&#xc4;" horiz-adv-x="1429" d="M56 27q0 25 5.5 30t30.5 5h62q18 0 271 617q21 52 23 56l218 504q8 21 35 54t43 67q24 52 40 53q21 -1 25 -19l245 -690q232 -642 246 -642h72q14 0 18 -7t4 -29t-4 -30t-18 -8l-190 6l-236 -6q-18 0 -22 7.5t-4 32t5 29.5t29 5h113q2 0 2 14t-51.5 173t-75.5 229 t-28 74.5t-19 4.5h-413q-22 0 -29 -5.5t-15 -27.5q-164 -414 -166 -460l2 -2h158q17 0 20.5 -6.5t3.5 -22.5v-20.5t-1 -11t-4 -8.5q-6 -5 -19 -5l-192 6l-156 -6q-20 0 -24 7t-4 32zM479.5 623q-0.5 -5 26.5 -5h366q18 0 18 6q0 7 -6 23l-169 498q-7 24 -11.5 24.5 t-13.5 -24.5l-200 -491q-10 -26 -10.5 -31zM486 1600q0 40 22 69q41 54 93 54q106 -1 106 -89q0 -52 -41 -86t-84 -34t-69.5 23t-26.5 63zM813 1600q0 40 22 69q41 54 93 54q106 -1 106 -89q0 -52 -41 -86t-84 -34t-69.5 23t-26.5 63z" />
<glyph unicode="&#xc5;" horiz-adv-x="1429" d="M56 27q0 25 5.5 30t30.5 5h62q18 0 271 617q21 52 23 56l218 504q8 21 35 54t43 67q24 52 40 53q21 -1 25 -19l245 -690q232 -642 246 -642h72q14 0 18 -7t4 -29t-4 -30t-18 -8l-190 6l-236 -6q-18 0 -22 7.5t-4 32t5 29.5t29 5h113q2 0 2 14t-51.5 173t-75.5 229 t-28 74.5t-19 4.5h-413q-22 0 -29 -5.5t-15 -27.5q-164 -414 -166 -460l2 -2h158q17 0 20.5 -6.5t3.5 -22.5v-20.5t-1 -11t-4 -8.5q-6 -5 -19 -5l-192 6l-156 -6q-20 0 -24 7t-4 32zM479.5 623q-0.5 -5 26.5 -5h366q18 0 18 6q0 7 -6 23l-169 498q-7 24 -11.5 24.5 t-13.5 -24.5l-200 -491q-10 -26 -10.5 -31zM609 1607q0 63 44.5 107.5t107.5 44.5t107 -44.5t44 -107.5t-44 -107t-107 -44t-107.5 44t-44.5 107zM678 1607.5q0 -33.5 24 -57.5t58 -24t58 24t24 57.5t-24 58t-57.5 24.5t-58 -24.5t-24.5 -58z" />
<glyph unicode="&#xc6;" horiz-adv-x="1992" d="M35 27q0 24 8.5 29.5t34.5 5.5h57q16 0 91 125q156 261 216 360l453 737q3 10 1 11t-12 1h-102q-15 0 -18.5 7t-3.5 29t4 29t18 7l314 -6l516 6q92 0 108 2t16 18q5 28 14 30t26 2t26 -6q8 -6 8 -24l-8 -270q0 -14 -8 -18t-30 -4q-38 0 -38 30l6 158q0 6 -195 10t-351 4 q-12 0 -12 -171t2 -283t4.5 -115.5t15.5 -3.5h342q106 1 106 27v106q0 20 38 20t38 -18l-4 -164l4 -174q0 -18 -38 -18t-38 20v102q0 32 -106 32h-261t-90 -0.5t-4 -1.5l-2.5 -2.5t-2 -4.5t-0.5 -7t6 -286t16 -282l627 6q10 0 12.5 6t5.5 39t7 178q0 18 37.5 18.5 t37.5 -20.5l-6 -287q0 -28 -41 -28l-768 6l-254 -6q-20 0 -24 7t-4 31t6 30t30 6h130q8 0 8 147v323q0 24 -56 25h-408q-10 0 -145 -239.5t-135 -253.5l2 -2h131q18 0 23.5 -7t5.5 -29t-5.5 -30t-23.5 -8l-178 6l-153 -6q-18 0 -22.5 7.5t-4.5 31.5zM578 625.5 q0 -7.5 26 -7.5h369q31 0 31 21v285q0 372 -17 372h-8q-7 0 -17 -16l-372 -626q-12 -21 -12 -28.5z" />
<glyph unicode="&#xc7;" horiz-adv-x="1497" d="M86 686q0 382 298 586q186 127 440 127q222 0 408 -135q19 -14 24 -18t10.5 -6t7.5 0q2 4 2 12v54q0 20 7 27t31 7t35 -7t11 -27l-8 -405q0 -19 -8 -24t-34 -5t-34 5.5t-8 21.5l8 189q0 23 -65 75.5t-120 84.5q-130 77 -282 77q-261 0 -409 -257q-92 -162 -93 -386 q0 -127 44.5 -243t119.5 -200.5t179 -135t193.5 -50.5t153 12t109.5 29.5t82 36.5q72 37 74 55l26 238q5 30 29 30l23 -2q30 -2 30 -22q0 -30 -32 -282q-2 -18 -48 -48t-116 -61q-171 -75 -353 -78l-35 -96q-2 -6 0 -6.5t22 4t54.5 4.5t70 -13.5t56.5 -34.5q45 -44 45 -88.5 t-15.5 -78.5t-43.5 -62q-62 -63 -164 -63q-56 0 -103 17q-73 26 -73 54q1 20 21 21q4 1 21 -7q54 -24 113 -24q120 0 120 109q0 86 -107 86q-23 0 -49 -9.5t-29 -9.5t-12 6t-9 12.5t68 178.5q-184 7 -340 87q-154 80 -249 239q-97 164 -97 399z" />
<glyph unicode="&#xc8;" horiz-adv-x="1239" d="M76 27q0 23 8 29t32 6h126q8 0 8 147v197l-8 602q0 140 -7.5 214t-11.5 74h-96q-20 0 -27.5 6t-7.5 36t27 30l90 -3q90 -3 133 -3l516 6q104 0 114 3t10 13q0 2 1.5 9t2.5 10.5t4 8.5q5 8 27.5 8t30.5 -6q9 -6 9 -24l-9 -270q0 -14 -8 -18t-30 -4q-36 0 -37 30l6 158 q0 6 -195.5 10t-351.5 4q-12 0 -12 -171t2 -283t5 -115.5t15 -3.5h342q106 1 107 27v106q0 20 37.5 20t37.5 -18l-4 -164l4 -174q0 -18 -37.5 -18t-37.5 20v102q-1 32 -107 32h-261t-90 -0.5t-4 -1.5t-2 -2.5t-1.5 -4.5t-1 -7t5.5 -286t16 -282l627 6q10 0 12.5 6t5.5 34 t7 183q0 18 38 18.5t38 -20.5l-6 -287q0 -28 -42 -28l-768 6l-250 -6q-21 0 -26.5 8t-5.5 31zM418 1679q-1 63 67 63q42 0 76 -54l109 -176q0 -1 3 -4q5 -8 5 -14q-1 -6 -19 -6h-42q-2 0 -10.5 6t-10.5 8l-147 122q-30 24 -31 55z" />
<glyph unicode="&#xc9;" horiz-adv-x="1239" d="M76 27q0 23 8 29t32 6h126q8 0 8 147v197l-8 602q0 140 -7.5 214t-11.5 74h-96q-20 0 -27.5 6t-7.5 36t27 30l90 -3q90 -3 133 -3l516 6q104 0 114 3t10 13q0 2 1.5 9t2.5 10.5t4 8.5q5 8 27.5 8t30.5 -6q9 -6 9 -24l-9 -270q0 -14 -8 -18t-30 -4q-36 0 -37 30l6 158 q0 6 -195.5 10t-351.5 4q-12 0 -12 -171t2 -283t5 -115.5t15 -3.5h342q106 1 107 27v106q0 20 37.5 20t37.5 -18l-4 -164l4 -174q0 -18 -37.5 -18t-37.5 20v102q-1 32 -107 32h-261t-90 -0.5t-4 -1.5t-2 -2.5t-1.5 -4.5t-1 -7t5.5 -286t16 -282l627 6q10 0 12.5 6t5.5 34 t7 183q0 18 38 18.5t38 -20.5l-6 -287q0 -28 -42 -28l-768 6l-250 -6q-21 0 -26.5 8t-5.5 31zM617 1492q0 4 1 7.5t4 7.5t3 5l108 176q36 54 72 54t54 -17t18 -45t-31 -56l-147 -122l-6 -6q-8 -8 -15 -8h-49q-12 0 -12 4z" />
<glyph unicode="&#xca;" horiz-adv-x="1239" d="M76 27q0 23 8 29t32 6h126q8 0 8 147v197l-8 602q0 140 -7.5 214t-11.5 74h-96q-20 0 -27.5 6t-7.5 36t27 30l90 -3q90 -3 133 -3l516 6q104 0 114 3t10 13q0 2 1.5 9t2.5 10.5t4 8.5q5 8 27.5 8t30.5 -6q9 -6 9 -24l-9 -270q0 -14 -8 -18t-30 -4q-36 0 -37 30l6 158 q0 6 -195.5 10t-351.5 4q-12 0 -12 -171t2 -283t5 -115.5t15 -3.5h342q106 1 107 27v106q0 20 37.5 20t37.5 -18l-4 -164l4 -174q0 -18 -37.5 -18t-37.5 20v102q-1 32 -107 32h-261t-90 -0.5t-4 -1.5t-2 -2.5t-1.5 -4.5t-1 -7t5.5 -286t16 -282l627 6q10 0 12.5 6t5.5 34 t7 183q0 18 38 18.5t38 -20.5l-6 -287q0 -28 -42 -28l-768 6l-250 -6q-21 0 -26.5 8t-5.5 31zM412 1493.5q0 5.5 2 9t5.5 6.5t4.5 5l162 182q4 4 8.5 10t6.5 8q11 11 22 11h49q14 -1 37 -29l162 -182q12 -12 12 -19t-14 -7h-25q-7 0 -27 12l-164 92q-6 3 -12 0l-164 -92 q-20 -12 -26 -12h-25q-14 0 -14 5.5z" />
<glyph unicode="&#xcb;" horiz-adv-x="1239" d="M76 27q0 23 8 29t32 6h126q8 0 8 147v197l-8 602q0 140 -7.5 214t-11.5 74h-96q-20 0 -27.5 6t-7.5 36t27 30l90 -3q90 -3 133 -3l516 6q104 0 114 3t10 13q0 2 1.5 9t2.5 10.5t4 8.5q5 8 27.5 8t30.5 -6q9 -6 9 -24l-9 -270q0 -14 -8 -18t-30 -4q-36 0 -37 30l6 158 q0 6 -195.5 10t-351.5 4q-12 0 -12 -171t2 -283t5 -115.5t15 -3.5h342q106 1 107 27v106q0 20 37.5 20t37.5 -18l-4 -164l4 -174q0 -18 -37.5 -18t-37.5 20v102q-1 32 -107 32h-261t-90 -0.5t-4 -1.5t-2 -2.5t-1.5 -4.5t-1 -7t5.5 -286t16 -282l627 6q10 0 12.5 6t5.5 34 t7 183q0 18 38 18.5t38 -20.5l-6 -287q0 -28 -42 -28l-768 6l-250 -6q-21 0 -26.5 8t-5.5 31zM373 1600q0 40 22 69q41 54 93 54q106 -1 106 -89q0 -52 -41 -86t-84 -34t-69.5 23t-26.5 63zM700 1600q0 40 22 69q41 54 93 54q106 -1 106 -89q0 -52 -41 -86t-84 -34t-69.5 23 t-26.5 63z" />
<glyph unicode="&#xcc;" horiz-adv-x="681" d="M56 27.5q0 23.5 8 29t34 5.5h136q18 0 18 745v201q0 144 -7 219t-9 75h-136q-21 0 -28.5 6.5t-7.5 31t7 30.5t29 6l256 -6l242 6q18 0 23 -8t5 -32t-5.5 -29t-30.5 -5h-134q-18 0 -18 -317v-277q0 -646 18 -646h142q18 0 23 -7t5 -29t-5 -30t-23 -8l-246 6l-262 -6 q-22 0 -28 8t-6 31.5zM115 1679q-1 63 67 63q42 0 76 -54l109 -176q0 -1 3 -4q5 -8 5 -14q-1 -6 -19 -6h-42q-2 0 -10.5 6t-10.5 8l-147 122q-30 24 -31 55z" />
<glyph unicode="&#xcd;" horiz-adv-x="681" d="M56 27.5q0 23.5 8 29t34 5.5h136q18 0 18 745v201q0 144 -7 219t-9 75h-136q-21 0 -28.5 6.5t-7.5 31t7 30.5t29 6l256 -6l242 6q18 0 23 -8t5 -32t-5.5 -29t-30.5 -5h-134q-18 0 -18 -317v-277q0 -646 18 -646h142q18 0 23 -7t5 -29t-5 -30t-23 -8l-246 6l-262 -6 q-22 0 -28 8t-6 31.5zM314 1492q0 4 1 7.5t4 7.5t3 5l108 176q36 54 72 54t54 -17t18 -45t-31 -56l-147 -122l-6 -6q-8 -8 -15 -8h-49q-12 0 -12 4z" />
<glyph unicode="&#xce;" horiz-adv-x="681" d="M56 27.5q0 23.5 8 29t34 5.5h136q18 0 18 745v201q0 144 -7 219t-9 75h-136q-21 0 -28.5 6.5t-7.5 31t7 30.5t29 6l256 -6l242 6q18 0 23 -8t5 -32t-5.5 -29t-30.5 -5h-134q-18 0 -18 -317v-277q0 -646 18 -646h142q18 0 23 -7t5 -29t-5 -30t-23 -8l-246 6l-262 -6 q-22 0 -28 8t-6 31.5zM109 1493.5q0 5.5 2 9t5.5 6.5t4.5 5l162 182q4 4 8.5 10t6.5 8q11 11 22 11h49q14 -1 37 -29l162 -182q12 -12 12 -19t-14 -7h-25q-7 0 -27 12l-164 92q-6 3 -12 0l-164 -92q-20 -12 -26 -12h-25q-14 0 -14 5.5z" />
<glyph unicode="&#xcf;" horiz-adv-x="681" d="M56 27.5q0 23.5 8 29t34 5.5h136q18 0 18 745v201q0 144 -7 219t-9 75h-136q-21 0 -28.5 6.5t-7.5 31t7 30.5t29 6l256 -6l242 6q18 0 23 -8t5 -32t-5.5 -29t-30.5 -5h-134q-18 0 -18 -317v-277q0 -646 18 -646h142q18 0 23 -7t5 -29t-5 -30t-23 -8l-246 6l-262 -6 q-22 0 -28 8t-6 31.5zM70 1600q0 40 22 69q41 54 93 54q106 -1 106 -89q0 -52 -41 -86t-84 -34t-69.5 23t-26.5 63zM397 1600q0 40 22 69q41 54 93 54q106 -1 106 -89q0 -52 -41 -86t-84 -34t-69.5 23t-26.5 63z" />
<glyph unicode="&#xd0;" horiz-adv-x="1552" d="M66 22q0 22 9 29t31 7h132q8 0 20 604q0 10 -16 10h-156q-10 0 -10 30.5t10 30.5h158q10 0 12 2q6 7 6 289t-4 282l-142 -4q-16 0 -22 5.5t-6 26t5 29.5t23 9l146 -2q84 0 235 12t233.5 12t202 -30.5t216.5 -91t169 -145.5q148 -178 148 -441q0 -282 -168 -470 q-152 -170 -404 -216q-78 -14 -161 -14l-379 8l-260 -8q-18 0 -23 7t-5 29zM442 176q0 -116 2 -118q16 -6 135 -6.5t231 28t183 70t122 107t76 119.5t39 129q18 96 17.5 187.5t-20 165.5t-55.5 143t-90 129t-120 104q-142 96 -325 95q-129 0 -181 -12q-4 -2 -8 -111t-4 -182 l-2 -276q0 -11 2 -13t15 -2h428q10 0 10 -30.5t-10 -30.5h-426q-19 0 -19 -14v-482z" />
<glyph unicode="&#xd1;" horiz-adv-x="1667" d="M76 27.5q0 24.5 6 29.5t32 5h95q14 0 16 89q1 89 5 208q14 441 14 943h-134q-18 0 -23 7t-5 29t6 30q4 8 22 8l230 -6l112 6q9 0 13.5 -1t6.5 -1.5t4 -2.5t4 -3t4.5 -4t3.5 -4.5t4.5 -5.5t5.5 -6l831 -1022q24 -30 29 -26q6 6 6 38v86l-4 770q0 108 -2 108h-190 q-17 0 -21 6.5t-4 22.5t0.5 20.5t1.5 11t3 8.5q6 5 20 5l220 -6l174 6q20 0 25 -7.5t5 -32t-8 -29.5t-34 -5h-92q-8 0 -8.5 -127t-7 -416t-12.5 -518t-6 -233q0 -51 -28 -51q-13 0 -25.5 16t-14.5 19q-1008 1224 -1018.5 1236.5t-14.5 10.5q-5 -5 -5 -273l-2 -702 q0 -202 8 -202h176q17 0 20.5 -6.5t3.5 -26v-25.5q-2 -16 -24 -16l-222 6l-172 -6q-20 0 -25 7.5t-5 32zM641 1532q0 15 20 63.5t53.5 78.5t60 30t53.5 -12q28 -12 48 -27q54 -39 82 -39q50 0 70 68q4 14 7 16t23 2t20 -8q0 -20 -18 -67.5t-51.5 -81t-64.5 -33.5t-51.5 7.5 t-37.5 19t-33 22.5q-38 27 -68 27q-50 0 -68 -67q0 -5 -2 -5l-4 -3l-18 -1q-20 0 -21 10z" />
<glyph unicode="&#xd2;" horiz-adv-x="1540" d="M86 652.5q0 108.5 26 208.5t72 180.5t111 146t142 109.5q161 91 351 91q298 0 487 -212q179 -202 179 -512q0 -153 -52 -282.5t-143 -219.5t-220.5 -140t-246.5 -50t-198.5 20t-156.5 57.5t-139 96t-111 132.5t-74 170t-27 204.5zM291 698q0 -101 20.5 -201.5t61 -183 t96.5 -143.5q118 -129 291 -129q231 0 371 203q123 177 123 438q0 158 -54 304q-52 144 -160 237q-112 96 -272 96q-250 0 -392 -262q-85 -157 -85 -359zM539 1679q-1 63 67 63q42 0 76 -54l109 -176q0 -1 3 -4q5 -8 5 -14q-1 -6 -19 -6h-42q-2 0 -10.5 6t-10.5 8l-147 122 q-30 24 -31 55z" />
<glyph unicode="&#xd3;" horiz-adv-x="1540" d="M86 652.5q0 108.5 26 208.5t72 180.5t111 146t142 109.5q161 91 351 91q298 0 487 -212q179 -202 179 -512q0 -153 -52 -282.5t-143 -219.5t-220.5 -140t-246.5 -50t-198.5 20t-156.5 57.5t-139 96t-111 132.5t-74 170t-27 204.5zM291 698q0 -101 20.5 -201.5t61 -183 t96.5 -143.5q118 -129 291 -129q231 0 371 203q123 177 123 438q0 158 -54 304q-52 144 -160 237q-112 96 -272 96q-250 0 -392 -262q-85 -157 -85 -359zM738 1492q0 4 1 7.5t4 7.5t3 5l108 176q36 54 72 54t54 -17t18 -45t-31 -56l-147 -122l-6 -6q-8 -8 -15 -8h-49 q-12 0 -12 4z" />
<glyph unicode="&#xd4;" horiz-adv-x="1540" d="M86 652.5q0 108.5 26 208.5t72 180.5t111 146t142 109.5q161 91 351 91q298 0 487 -212q179 -202 179 -512q0 -153 -52 -282.5t-143 -219.5t-220.5 -140t-246.5 -50t-198.5 20t-156.5 57.5t-139 96t-111 132.5t-74 170t-27 204.5zM291 698q0 -101 20.5 -201.5t61 -183 t96.5 -143.5q118 -129 291 -129q231 0 371 203q123 177 123 438q0 158 -54 304q-52 144 -160 237q-112 96 -272 96q-250 0 -392 -262q-85 -157 -85 -359zM533 1493.5q0 5.5 2 9t5.5 6.5t4.5 5l162 182q4 4 8.5 10t6.5 8q11 11 22 11h49q14 -1 37 -29l162 -182q12 -12 12 -19 t-14 -7h-25q-7 0 -27 12l-164 92q-6 3 -12 0l-164 -92q-20 -12 -26 -12h-25q-14 0 -14 5.5z" />
<glyph unicode="&#xd5;" horiz-adv-x="1540" d="M86 652.5q0 108.5 26 208.5t72 180.5t111 146t142 109.5q161 91 351 91q298 0 487 -212q179 -202 179 -512q0 -153 -52 -282.5t-143 -219.5t-220.5 -140t-246.5 -50t-198.5 20t-156.5 57.5t-139 96t-111 132.5t-74 170t-27 204.5zM291 698q0 -101 20.5 -201.5t61 -183 t96.5 -143.5q118 -129 291 -129q231 0 371 203q123 177 123 438q0 158 -54 304q-52 144 -160 237q-112 96 -272 96q-250 0 -392 -262q-85 -157 -85 -359zM547 1532q0 15 20 63.5t53.5 78.5t60 30t53.5 -12q28 -12 48 -27q54 -39 82 -39q50 0 70 68q4 14 7 16t23 2t20 -8 q0 -20 -18 -67.5t-51.5 -81t-64.5 -33.5t-51.5 7.5t-37.5 19t-33 22.5q-38 27 -68 27q-50 0 -68 -67q0 -5 -2 -5l-4 -3l-18 -1q-20 0 -21 10z" />
<glyph unicode="&#xd6;" horiz-adv-x="1540" d="M86 652.5q0 108.5 26 208.5t72 180.5t111 146t142 109.5q161 91 351 91q298 0 487 -212q179 -202 179 -512q0 -153 -52 -282.5t-143 -219.5t-220.5 -140t-246.5 -50t-198.5 20t-156.5 57.5t-139 96t-111 132.5t-74 170t-27 204.5zM291 698q0 -101 20.5 -201.5t61 -183 t96.5 -143.5q118 -129 291 -129q231 0 371 203q123 177 123 438q0 158 -54 304q-52 144 -160 237q-112 96 -272 96q-250 0 -392 -262q-85 -157 -85 -359zM494 1600q0 40 22 69q41 54 93 54q106 -1 106 -89q0 -52 -41 -86t-84 -34t-69.5 23t-26.5 63zM821 1600q0 40 22 69 q41 54 93 54q106 -1 106 -89q0 -52 -41 -86t-84 -34t-69.5 23t-26.5 63z" />
<glyph unicode="&#xd7;" horiz-adv-x="1079" d="M174 735q0 13 23.5 35t39 22t33.5 -18l238 -236q25 -25 35.5 -22.5t17.5 8.5l256 256q14 14 28.5 14t36 -22t21.5 -36q-1 -16 -21 -36l-247 -248q-15 -16 -15 -22t15 -20l254 -254q14 -14 14 -29t-22.5 -38t-36.5 -23t-31 16l-252 254q-19 19 -27.5 12.5t-23.5 -20.5 l-246 -246q-16 -16 -29 -16t-36 22t-23 36t18 32l246 248q16 16 17 25t-13 23l-254 254q-16 16 -16 29z" />
<glyph unicode="&#xd8;" horiz-adv-x="1540" d="M86 652q0 325 208 535q128 130 310 178q90 23 184 23q164 0 294 -63q2 0 3 -1.5t2 -1.5t2.5 -1t2 -1h1.5t1.5 0.5l1 1l1.5 1.5t1.5 2.5t1.5 3.5l88 154l2 2l8 2q10 -1 24 -11q25 -12 19 -26l-90 -152q-8 -12 2 -16q143 -96 222 -259t79 -338t-52 -304t-143 -219 t-220.5 -140t-289.5 -50q-161 0 -305 73q-12 8 -16 0l-88 -149q-10 -14 -21 -13.5t-25 11t-14 20.5l95 162q3 6 -7 14q-131 88 -206.5 231t-75.5 331zM291 682q0 -118 35.5 -245t101.5 -218q9 -12 14.5 -12t11.5 10l580 999q9 9 -6 19q-108 84 -260 84q-250 0 -392 -262 q-85 -156 -85 -375zM492 153q0 -5 4 -9q115 -102 264 -103q231 0 371 203q123 177 123 438q0 140 -42 272t-120 222q-4 6 -10 0l-588 -1016q-2 -2 -2 -7z" />
<glyph unicode="&#xd9;" horiz-adv-x="1546" d="M76 1329q0 25 7 31t29 6l195 -6l238 6q20 0 25.5 -8t5.5 -32t-7 -29t-33 -5h-132q-10 0 -18.5 -341.5t-8.5 -483.5q0 -198 96.5 -294.5t296.5 -96.5t360 108q24 16 34 29t13 63t3 230v624q0 162 -12 162h-103q-32 0 -36.5 12t-4.5 30.5t9 25t32 6.5l211 -6l160 6 q22 0 28 -8t6 -32t-8 -29t-34 -5h-48q-12 0 -16 -276t-6 -380t-6 -249t-6 -231.5t-2 -104.5q0 -71 -50 -71q-31 0 -67 74.5t-57 74.5t-98.5 -44t-194 -78.5t-215 -34.5t-167.5 14.5t-116.5 38.5t-81.5 62.5t-53.5 77.5t-29.5 93q-18 88 -18 207l2 713q0 114 -8 114h-78 q-21 0 -28.5 6t-7.5 31zM557 1679q-1 63 67 63q42 0 76 -54l109 -176q0 -1 3 -4q5 -8 5 -14q-1 -6 -19 -6h-42q-2 0 -10.5 6t-10.5 8l-147 122q-30 24 -31 55z" />
<glyph unicode="&#xda;" horiz-adv-x="1546" d="M76 1329q0 25 7 31t29 6l195 -6l238 6q20 0 25.5 -8t5.5 -32t-7 -29t-33 -5h-132q-10 0 -18.5 -341.5t-8.5 -483.5q0 -198 96.5 -294.5t296.5 -96.5t360 108q24 16 34 29t13 63t3 230v624q0 162 -12 162h-103q-32 0 -36.5 12t-4.5 30.5t9 25t32 6.5l211 -6l160 6 q22 0 28 -8t6 -32t-8 -29t-34 -5h-48q-12 0 -16 -276t-6 -380t-6 -249t-6 -231.5t-2 -104.5q0 -71 -50 -71q-31 0 -67 74.5t-57 74.5t-98.5 -44t-194 -78.5t-215 -34.5t-167.5 14.5t-116.5 38.5t-81.5 62.5t-53.5 77.5t-29.5 93q-18 88 -18 207l2 713q0 114 -8 114h-78 q-21 0 -28.5 6t-7.5 31zM756 1492q0 4 1 7.5t4 7.5t3 5l108 176q36 54 72 54t54 -17t18 -45t-31 -56l-147 -122l-6 -6q-8 -8 -15 -8h-49q-12 0 -12 4z" />
<glyph unicode="&#xdb;" horiz-adv-x="1546" d="M76 1329q0 25 7 31t29 6l195 -6l238 6q20 0 25.5 -8t5.5 -32t-7 -29t-33 -5h-132q-10 0 -18.5 -341.5t-8.5 -483.5q0 -198 96.5 -294.5t296.5 -96.5t360 108q24 16 34 29t13 63t3 230v624q0 162 -12 162h-103q-32 0 -36.5 12t-4.5 30.5t9 25t32 6.5l211 -6l160 6 q22 0 28 -8t6 -32t-8 -29t-34 -5h-48q-12 0 -16 -276t-6 -380t-6 -249t-6 -231.5t-2 -104.5q0 -71 -50 -71q-31 0 -67 74.5t-57 74.5t-98.5 -44t-194 -78.5t-215 -34.5t-167.5 14.5t-116.5 38.5t-81.5 62.5t-53.5 77.5t-29.5 93q-18 88 -18 207l2 713q0 114 -8 114h-78 q-21 0 -28.5 6t-7.5 31zM551 1493.5q0 5.5 2 9t5.5 6.5t4.5 5l162 182q4 4 8.5 10t6.5 8q11 11 22 11h49q14 -1 37 -29l162 -182q12 -12 12 -19t-14 -7h-25q-7 0 -27 12l-164 92q-6 3 -12 0l-164 -92q-20 -12 -26 -12h-25q-14 0 -14 5.5z" />
<glyph unicode="&#xdc;" horiz-adv-x="1546" d="M76 1329q0 25 7 31t29 6l195 -6l238 6q20 0 25.5 -8t5.5 -32t-7 -29t-33 -5h-132q-10 0 -18.5 -341.5t-8.5 -483.5q0 -198 96.5 -294.5t296.5 -96.5t360 108q24 16 34 29t13 63t3 230v624q0 162 -12 162h-103q-32 0 -36.5 12t-4.5 30.5t9 25t32 6.5l211 -6l160 6 q22 0 28 -8t6 -32t-8 -29t-34 -5h-48q-12 0 -16 -276t-6 -380t-6 -249t-6 -231.5t-2 -104.5q0 -71 -50 -71q-31 0 -67 74.5t-57 74.5t-98.5 -44t-194 -78.5t-215 -34.5t-167.5 14.5t-116.5 38.5t-81.5 62.5t-53.5 77.5t-29.5 93q-18 88 -18 207l2 713q0 114 -8 114h-78 q-21 0 -28.5 6t-7.5 31zM512 1600q0 40 22 69q41 54 93 54q106 -1 106 -89q0 -52 -41 -86t-84 -34t-69.5 23t-26.5 63zM839 1600q0 40 22 69q41 54 93 54q106 -1 106 -89q0 -52 -41 -86t-84 -34t-69.5 23t-26.5 63z" />
<glyph unicode="&#xdd;" horiz-adv-x="1222" d="M14 1339.5q0 24.5 7.5 30.5t29.5 6l217 -6l242 6q17 0 22.5 -8.5t5.5 -32t-5.5 -28.5t-30.5 -5h-121q-19 0 -21 -3t11 -34t70 -140.5t128 -241t79.5 -148.5t13 -25t6.5 -11t5 -4q6 0 62.5 109t87.5 169.5t56 109.5t47 96q47 100 47 111q-1 12 -5 12h-106q-26 0 -34.5 5 t-8.5 29t6.5 32t28.5 8l160 -6l156 6q22 0 30 -6.5t8 -30t-8 -30.5t-30 -7h-70q-6 0 -174 -295.5t-187.5 -325t-19.5 -40.5q1 -579 19 -579h140q18 0 24 -7t6 -29t-6 -30t-24 -8l-245 6l-233 -6q-20 0 -26 7.5t-6 32t7 29.5t33 5h104q20 0 20 493q0 6 -0.5 10.5t-1 7.5 t-2.5 7.5t-3 6.5q-2 6 -43.5 81.5t-200.5 354.5t-171 279h-59q-21 0 -29 6.5t-8 31zM642 1492q0 4 1 7.5t4 7.5t3 5l108 176q36 54 72 54t54 -17t18 -45t-31 -56l-147 -122l-6 -6q-8 -8 -15 -8h-49q-12 0 -12 4z" />
<glyph unicode="&#xde;" horiz-adv-x="1210" d="M56 27.5q0 23.5 8 29t34 5.5h136q18 0 18 745v201q0 102 -5 198t-11 96h-136q-21 0 -28.5 6.5t-7.5 31t7 30.5t29 6l256 -6l242 6q18 0 23 -8t5 -32t-5.5 -29t-30.5 -5h-134q-6 0 -12 -73t-6 -109.5t3 -41.5t11 -5l174 7q270 0 404 -144q94 -100 94 -264 q0 -229 -196 -321q-120 -56 -300 -56q-48 0 -95 2.5t-65.5 3.5t-23 -4t-4.5 -46.5t6 -114.5q4 -72 10 -74h142q18 0 23 -7t5 -29t-4 -30t-22 -8l-248 6l-262 -6q-22 0 -28 8t-6 31.5zM438 381q0 -20 18 -24q23 -4 74 -4.5t112.5 11t116.5 37t93 65.5q84 84 84 232 q0 97 -56 170q-114 146 -370 146q-54 0 -63 -5.5t-9 -37.5v-590z" />
<glyph unicode="&#xdf;" horiz-adv-x="987" d="M56 20v18.5t2 9.5q4 10 22 10h80q10 36 10 358l-4 569q0 215 120 327q88 82 234 82t227 -77t81 -213q0 -160 -114 -259q-55 -49 -118 -73q-18 -8 -13.5 -10t18 -6t38.5 -13t60 -27.5t66 -41t62.5 -56.5t53.5 -73q51 -90 51 -185.5t-20.5 -161.5t-57.5 -116 q-80 -108 -213 -108q-96 0 -159 44q-64 46 -64 122q0 38 17.5 57t44 28t38.5 9q20 0 20 -27q1 -10 2 -29t1.5 -31.5t3.5 -30.5t7 -29.5t11.5 -25t18.5 -20.5q25 -18 58.5 -18.5t57.5 25.5t39 68q31 88 31 175t-7 139.5t-18 91t-30.5 70.5t-36 52t-43.5 37t-45 25.5t-47 15.5 q-65 16 -84 16.5t-23 5t-4 25.5t27 22t58.5 12t62.5 35q32 24 56 60q52 80 52 212t-54 183q-46 45 -138 45q-148 0 -164 -238q-2 -44 -2 -92v-984q0 -22 -4 -27t-19 -5l-57 2l-166 -4q-17 0 -21.5 8t-4.5 22z" />
<glyph unicode="&#xe0;" horiz-adv-x="858" d="M66 146q0 92 76 156t154 91q126 41 234 61q10 2 10 32v50t-2 50.5t-7 48t-13 41t-21 37t-30 25.5q-32 24 -82.5 24t-84.5 -14t-44 -40.5t-10 -76.5t-20 -63.5t-63 -35.5t-51 -22q-18 0 -18 44t20 89t53 77t75 56q82 48 157 48t122 -13t78 -36.5t51 -58.5q36 -64 36 -167 l-12 -418q0 -39 28 -53q6 -2 12 -2t42 25.5t40 25.5t17 -15.5t13 -21.5t-14 -16.5t-45 -33t-71 -52t-58 -29.5t-31 5t-20.5 11.5t-14 18.5t-9.5 20t-7.5 21t-7.5 22q-4 15 -22 3q-152 -94 -251 -94.5t-154 49t-55 131.5zM197 1195q0 25 21.5 45t63 20t62.5 -56l100 -266 q4 -9 4.5 -16.5t-14.5 -7.5h-33q-10 0 -20 14l-168 219q-16 23 -16 48zM221 203q0 -33 14.5 -63t44 -51t67 -21t84.5 11q109 27 109 46v268q0 16 -4.5 16.5t-22.5 -3.5q-292 -57 -292 -203z" />
<glyph unicode="&#xe1;" horiz-adv-x="858" d="M66 146q0 92 76 156t154 91q126 41 234 61q10 2 10 32v50t-2 50.5t-7 48t-13 41t-21 37t-30 25.5q-32 24 -82.5 24t-84.5 -14t-44 -40.5t-10 -76.5t-20 -63.5t-63 -35.5t-51 -22q-18 0 -18 44t20 89t53 77t75 56q82 48 157 48t122 -13t78 -36.5t51 -58.5q36 -64 36 -167 l-12 -418q0 -39 28 -53q6 -2 12 -2t42 25.5t40 25.5t17 -15.5t13 -21.5t-14 -16.5t-45 -33t-71 -52t-58 -29.5t-31 5t-20.5 11.5t-14 18.5t-9.5 20t-7.5 21t-7.5 22q-4 15 -22 3q-152 -94 -251 -94.5t-154 49t-55 131.5zM221 203q0 -33 14.5 -63t44 -51t67 -21t84.5 11 q109 27 109 46v268q0 16 -4.5 16.5t-22.5 -3.5q-292 -57 -292 -203zM375 922q0 8 4 16l100 266q20 56 62 56t64 -20t22 -44.5t-17 -48.5l-168 -219q-11 -14 -21 -14h-32q-14 0 -14 8z" />
<glyph unicode="&#xe2;" horiz-adv-x="858" d="M66 146q0 92 76 156t154 91q126 41 234 61q10 2 10 32v50t-2 50.5t-7 48t-13 41t-21 37t-30 25.5q-32 24 -82.5 24t-84.5 -14t-44 -40.5t-10 -76.5t-20 -63.5t-63 -35.5t-51 -22q-18 0 -18 44t20 89t53 77t75 56q82 48 157 48t122 -13t78 -36.5t51 -58.5q36 -64 36 -167 l-12 -418q0 -39 28 -53q6 -2 12 -2t42 25.5t40 25.5t17 -15.5t13 -21.5t-14 -16.5t-45 -33t-71 -52t-58 -29.5t-31 5t-20.5 11.5t-14 18.5t-9.5 20t-7.5 21t-7.5 22q-4 15 -22 3q-152 -94 -251 -94.5t-154 49t-55 131.5zM178.5 940q-0.5 6 9.5 20l162 244q14 22 19.5 25.5 t21.5 3.5h43q15 0 20 -3.5t19 -25.5l162 -244q10 -16 10 -21t-18 -5h-25q-5 0 -11 6t-10 8l-166 144q-2 2 -4 2t-4 -2l-166 -144q-14 -14 -20 -14h-24q-18 0 -18.5 6zM221 203q0 -33 14.5 -63t44 -51t67 -21t84.5 11q109 27 109 46v268q0 16 -4.5 16.5t-22.5 -3.5 q-292 -57 -292 -203z" />
<glyph unicode="&#xe3;" horiz-adv-x="858" d="M66 146q0 92 76 156t154 91q126 41 234 61q10 2 10 32v50t-2 50.5t-7 48t-13 41t-21 37t-30 25.5q-32 24 -82.5 24t-84.5 -14t-44 -40.5t-10 -76.5t-20 -63.5t-63 -35.5t-51 -22q-18 0 -18 44t20 89t53 77t75 56q82 48 157 48t122 -13t78 -36.5t51 -58.5q36 -64 36 -167 l-12 -418q0 -39 28 -53q6 -2 12 -2t42 25.5t40 25.5t17 -15.5t13 -21.5t-14 -16.5t-45 -33t-71 -52t-58 -29.5t-31 5t-20.5 11.5t-14 18.5t-9.5 20t-7.5 21t-7.5 22q-4 15 -22 3q-152 -94 -251 -94.5t-154 49t-55 131.5zM190 1020q0 15 20 63.5t53.5 78.5t60 30t53.5 -12 q28 -12 48 -27q54 -39 82 -39q50 0 70 68q4 14 7 16t23 2t20 -8q0 -20 -18 -67.5t-51.5 -81t-64.5 -33.5t-51.5 7.5t-37.5 19t-33 22.5q-38 27 -68 27q-50 0 -68 -67q0 -5 -2 -5l-4 -3l-18 -1q-20 0 -21 10zM221 203q0 -33 14.5 -63t44 -51t67 -21t84.5 11q109 27 109 46 v268q0 16 -4.5 16.5t-22.5 -3.5q-292 -57 -292 -203z" />
<glyph unicode="&#xe4;" horiz-adv-x="858" d="M66 146q0 92 76 156t154 91q126 41 234 61q10 2 10 32v50t-2 50.5t-7 48t-13 41t-21 37t-30 25.5q-32 24 -82.5 24t-84.5 -14t-44 -40.5t-10 -76.5t-20 -63.5t-63 -35.5t-51 -22q-18 0 -18 44t20 89t53 77t75 56q82 48 157 48t122 -13t78 -36.5t51 -58.5q36 -64 36 -167 l-12 -418q0 -39 28 -53q6 -2 12 -2t42 25.5t40 25.5t17 -15.5t13 -21.5t-14 -16.5t-45 -33t-71 -52t-58 -29.5t-31 5t-20.5 11.5t-14 18.5t-9.5 20t-7.5 21t-7.5 22q-4 15 -22 3q-152 -94 -251 -94.5t-154 49t-55 131.5zM137 1088q0 40 22 69q41 54 93 54q106 -1 106 -89 q0 -52 -41 -86t-84 -34t-69.5 23t-26.5 63zM221 203q0 -33 14.5 -63t44 -51t67 -21t84.5 11q109 27 109 46v268q0 16 -4.5 16.5t-22.5 -3.5q-292 -57 -292 -203zM464 1088q0 40 22 69q41 54 93 54q106 -1 106 -89q0 -52 -41 -86t-84 -34t-69.5 23t-26.5 63z" />
<glyph unicode="&#xe5;" horiz-adv-x="858" d="M66 146q0 92 76 156t154 91q126 41 234 61q10 2 10 32v50t-2 50.5t-7 48t-13 41t-21 37t-30 25.5q-32 24 -82.5 24t-84.5 -14t-44 -40.5t-10 -76.5t-20 -63.5t-63 -35.5t-51 -22q-18 0 -18 44t20 89t53 77t75 56q82 48 157 48t122 -13t78 -36.5t51 -58.5q36 -64 36 -167 l-12 -418q0 -39 28 -53q6 -2 12 -2t42 25.5t40 25.5t17 -15.5t13 -21.5t-14 -16.5t-45 -33t-71 -52t-58 -29.5t-31 5t-20.5 11.5t-14 18.5t-9.5 20t-7.5 21t-7.5 22q-4 15 -22 3q-152 -94 -251 -94.5t-154 49t-55 131.5zM221 203q0 -33 14.5 -63t44 -51t67 -21t84.5 11 q109 27 109 46v268q0 16 -4.5 16.5t-22.5 -3.5q-292 -57 -292 -203zM260 1095q0 63 44.5 107.5t107.5 44.5t107 -44.5t44 -107.5t-44 -107t-107 -44t-107.5 44t-44.5 107zM329 1095.5q0 -33.5 24 -57.5t58 -24t58 24t24 57.5t-24 58t-57.5 24.5t-58 -24.5t-24.5 -58z" />
<glyph unicode="&#xe6;" horiz-adv-x="1329" d="M66 144q0 92 76 156t154 91q126 41 234 61q10 2 10 30v45.5t-1.5 45t-5 43.5t-9 38.5t-14 35.5t-21.5 27.5t-30 22.5q-40 18 -83.5 18t-75.5 -13t-42 -37.5t-11 -76t-21.5 -65.5t-60 -35t-49.5 -21q-22 0 -22 43t20 88t53 77t75 56q82 47 170 47q166 0 231 -94 q10 -14 14.5 -14.5t16.5 10.5q117 94 266 94q152 0 234 -101q78 -94 78 -230q0 -32 -118 -32l-454 11q-8 0 -8 -72.5t26 -136.5q26 -65 68 -106q88 -84 205 -84q127 0 246 119q14 14 20 13.5t21.5 -14t15.5 -21t-17 -29t-50 -50.5t-76 -56q-99 -65 -217 -65q-186 0 -294 113 q-2 3 -4 4.5t-3 3t-3 1.5h-4q-2 0 -9 -5t-44 -28t-125 -56t-170 -33t-137 49.5t-55 131.5zM221 200q0 -33 14.5 -63t44 -50.5t68 -20.5t85.5 11t77 25t30 21v268q0 16 -4.5 16.5t-22.5 -3.5q-292 -58 -292 -204zM682 522q0 -10 13 -10t68 1q166 3 248.5 7t86.5 6 q0 150 -91 207q-44 27 -91.5 27t-90.5 -23t-73 -59q-64 -76 -70 -156z" />
<glyph unicode="&#xe7;" horiz-adv-x="843" d="M66 362q0 212 138 346q122 116 290 116q67 0 131 -27.5t105.5 -75t41.5 -101.5q0 -28 -29.5 -50.5t-60.5 -22.5q-31 1 -39 27q-5 14 -11 34.5t-10 33.5t-11 30.5t-14 27.5t-18 22t-24 18q-31 15 -77 15.5t-90 -20t-76 -54.5q-30 -34 -54 -78q-46 -87 -46.5 -164 t11.5 -126t37.5 -92t61.5 -75q78 -70 198 -70q114 0 232 55q14 6 21 6q15 -1 15 -23q0 -13 -40 -42q-40 -28 -74 -47q-82 -43 -186 -51l-40 -109q-2 -6 0 -6.5t22 4t54.5 4.5t70 -13.5t56.5 -34.5q46 -44 45.5 -88.5t-16 -78.5t-43.5 -62q-62 -63 -164 -63q-56 0 -103 17 q-73 26 -73 54q1 20 21 21q4 1 21 -7q54 -24 113 -24q120 0 120 109q0 86 -107 86q-23 0 -49 -9.5t-29 -9.5t-12 6t-9 13t74 191q-173 6 -273.5 111t-100.5 277z" />
<glyph unicode="&#xe8;" horiz-adv-x="868" d="M58 379q0 91 31 172t85 139q118 127 305 127q152 0 234 -101q77 -94 77 -230q0 -32 -116 -32l-457 11q-6 -15 -6 -79.5t25 -128.5t66 -105q88 -86 202 -86q140 0 254 119q14 14 17 13.5t21.5 -16t18.5 -19.5t-16.5 -24.5t-49 -50.5t-74.5 -58q-101 -67 -207 -67 t-182 30.5t-126 86t-76 132t-26 167.5zM221 522q1 -10 19 -10l351 9q46 -1 46 7q0 146 -91 204q-44 28 -91 28t-90.5 -23t-73.5 -59q-64 -76 -70 -156zM252 1195q0 25 21.5 45t63 20t62.5 -56l100 -266q4 -9 4.5 -16.5t-14.5 -7.5h-33q-10 0 -20 14l-168 219q-16 23 -16 48z " />
<glyph unicode="&#xe9;" horiz-adv-x="868" d="M58 379q0 91 31 172t85 139q118 127 305 127q152 0 234 -101q77 -94 77 -230q0 -32 -116 -32l-457 11q-6 -15 -6 -79.5t25 -128.5t66 -105q88 -86 202 -86q140 0 254 119q14 14 17 13.5t21.5 -16t18.5 -19.5t-16.5 -24.5t-49 -50.5t-74.5 -58q-101 -67 -207 -67 t-182 30.5t-126 86t-76 132t-26 167.5zM221 522q1 -10 19 -10l351 9q46 -1 46 7q0 146 -91 204q-44 28 -91 28t-90.5 -23t-73.5 -59q-64 -76 -70 -156zM430 922q0 8 4 16l100 266q20 56 62 56t64 -20t22 -44.5t-17 -48.5l-168 -219q-11 -14 -21 -14h-32q-14 0 -14 8z" />
<glyph unicode="&#xea;" horiz-adv-x="868" d="M58 379q0 91 31 172t85 139q118 127 305 127q152 0 234 -101q77 -94 77 -230q0 -32 -116 -32l-457 11q-6 -15 -6 -79.5t25 -128.5t66 -105q88 -86 202 -86q140 0 254 119q14 14 17 13.5t21.5 -16t18.5 -19.5t-16.5 -24.5t-49 -50.5t-74.5 -58q-101 -67 -207 -67 t-182 30.5t-126 86t-76 132t-26 167.5zM221 522q1 -10 19 -10l351 9q46 -1 46 7q0 146 -91 204q-44 28 -91 28t-90.5 -23t-73.5 -59q-64 -76 -70 -156zM233.5 940q-0.5 6 9.5 20l162 244q14 22 19.5 25.5t21.5 3.5h43q15 0 20 -3.5t19 -25.5l162 -244q10 -16 10 -21t-18 -5 h-25q-5 0 -11 6t-10 8l-166 144q-2 2 -4 2t-4 -2l-166 -144q-14 -14 -20 -14h-24q-18 0 -18.5 6z" />
<glyph unicode="&#xeb;" horiz-adv-x="868" d="M58 379q0 91 31 172t85 139q118 127 305 127q152 0 234 -101q77 -94 77 -230q0 -32 -116 -32l-457 11q-6 -15 -6 -79.5t25 -128.5t66 -105q88 -86 202 -86q140 0 254 119q14 14 17 13.5t21.5 -16t18.5 -19.5t-16.5 -24.5t-49 -50.5t-74.5 -58q-101 -67 -207 -67 t-182 30.5t-126 86t-76 132t-26 167.5zM192 1088q0 40 22 69q41 54 93 54q106 -1 106 -89q0 -52 -41 -86t-84 -34t-69.5 23t-26.5 63zM221 522q1 -10 19 -10l351 9q46 -1 46 7q0 146 -91 204q-44 28 -91 28t-90.5 -23t-73.5 -59q-64 -76 -70 -156zM519 1088q0 40 22 69 q41 54 93 54q106 -1 106 -89q0 -52 -41 -86t-84 -34t-69.5 23t-26.5 63z" />
<glyph unicode="&#xec;" horiz-adv-x="509" d="M21 1195q0 25 21.5 45t63 20t62.5 -56l100 -266q4 -9 4.5 -16.5t-14.5 -7.5h-33q-10 0 -20 14l-168 219q-16 23 -16 48zM41.5 724.5q-0.5 7.5 7 28.5t14.5 24t27 3l232 10q14 0 17 -3.5t3 -14.5v-348q0 -366 10 -366h88q17 0 21 -7t4 -26t-4.5 -27t-20.5 -8l-176 4 l-188 -4q-17 0 -21 7.5t-4 26t5.5 26.5t25.5 8h102q6 0 6 218.5t-4 323t-6 110.5t-5 8q-5 3 -11 3h-6l-98 -4q-18 0 -18.5 7.5z" />
<glyph unicode="&#xed;" horiz-adv-x="509" d="M41.5 724.5q-0.5 7.5 7 28.5t14.5 24t27 3l232 10q14 0 17 -3.5t3 -14.5v-348q0 -366 10 -366h88q17 0 21 -7t4 -26t-4.5 -27t-20.5 -8l-176 4l-188 -4q-17 0 -21 7.5t-4 26t5.5 26.5t25.5 8h102q6 0 6 218.5t-4 323t-6 110.5t-5 8q-5 3 -11 3h-6l-98 -4q-18 0 -18.5 7.5 zM199 922q0 8 4 16l100 266q20 56 62 56t64 -20t22 -44.5t-17 -48.5l-168 -219q-11 -14 -21 -14h-32q-14 0 -14 8z" />
<glyph unicode="&#xee;" horiz-adv-x="509" d="M2.5 940q-0.5 6 9.5 20l162 244q14 22 19.5 25.5t21.5 3.5h43q15 0 20 -3.5t19 -25.5l162 -244q10 -16 10 -21t-18 -5h-25q-5 0 -11 6t-10 8l-166 144q-2 2 -4 2t-4 -2l-166 -144q-14 -14 -20 -14h-24q-18 0 -18.5 6zM41.5 724.5q-0.5 7.5 7 28.5t14.5 24t27 3l232 10 q14 0 17 -3.5t3 -14.5v-348q0 -366 10 -366h88q17 0 21 -7t4 -26t-4.5 -27t-20.5 -8l-176 4l-188 -4q-17 0 -21 7.5t-4 26t5.5 26.5t25.5 8h102q6 0 6 218.5t-4 323t-6 110.5t-5 8q-5 3 -11 3h-6l-98 -4q-18 0 -18.5 7.5z" />
<glyph unicode="&#xef;" horiz-adv-x="509" d="M-18 1088q0 40 22 69q41 54 93 54q106 -1 106 -89q0 -52 -41 -86t-84 -34t-69.5 23t-26.5 63zM41.5 724.5q-0.5 7.5 7 28.5t14.5 24t27 3l232 10q14 0 17 -3.5t3 -14.5v-348q0 -366 10 -366h88q17 0 21 -7t4 -26t-4.5 -27t-20.5 -8l-176 4l-188 -4q-17 0 -21 7.5t-4 26 t5.5 26.5t25.5 8h102q6 0 6 218.5t-4 323t-6 110.5t-5 8q-5 3 -11 3h-6l-98 -4q-18 0 -18.5 7.5zM268 1088q0 40 22 69q41 54 93 54q106 -1 106 -89q0 -52 -41 -86t-84 -34t-69.5 23t-26.5 63z" />
<glyph unicode="&#xf0;" horiz-adv-x="897" d="M56 381.5q0 122.5 49.5 223t138.5 155.5t190 55q100 -1 166 -35q21 -12 21.5 -5t-14.5 41q-15 36 -27 60q-42 90 -76 137t-37 48t-23 -4q-18 -5 -78 -21q-140 -36 -146 -36t-16 22t-10 30q0 5 104 32.5t110 29t9 2.5q5 2 5 3t0.5 1t-0.5 2q-26 39 -89 104 q-63 66 -124 112q-18 7 -18.5 16.5t22.5 9.5h90q47 0 217 -203q12 -13 13 -13.5t104 27t110 27.5t20 -20.5t13 -28.5q0 -4 -44.5 -15.5t-69 -18.5t-52 -14t-34.5 -9q-6 0 0 -10q177 -242 238 -498q24 -98 24 -188.5t-28 -172t-79 -139.5q-107 -125 -285 -125 q-110 0 -200 53.5t-142 148t-52 217zM217 419q0 -80 8.5 -131.5t28.5 -98.5t48 -83q61 -78 159 -78q231 0 231 368q0 184 -76 281q-58 74 -145.5 74.5t-143 -45.5t-83 -126.5t-27.5 -160.5z" />
<glyph unicode="&#xf1;" horiz-adv-x="1052" d="M41 712q0 10 8.5 31.5t12.5 24t21 4t108 7t109 7.5t21.5 1t6 -1t4.5 -1t4 -1.5t2.5 -3t1 -3.5t0.5 -3v-86q0 -12 3 -12t5 2q2 0 4 2q6 4 12.5 9t29.5 20t36.5 24t38.5 22t47 19q54 18 107.5 18t94 -10t69.5 -27t50 -44.5t34 -57t21 -69.5q13 -68 13 -160l-10 -348 q0 -14 2 -16q3 -2 15 -2h61q20 0 27.5 -7t7.5 -25t-6 -27t-25 -9l-153 4l-179 -4q-22 0 -26.5 6t-4.5 26q0 36 33 36h88q12 0 12.5 211.5t-4.5 248.5t-18 71q-13 35 -35 57q-46 48 -133 48q-69 0 -159 -46q-42 -22 -48 -30t-6 -22l-2 -506q0 -24 3 -28t17 -4h78 q20 0 24.5 -7.5t4.5 -21t-0.5 -18.5t-2.5 -10q-4 -11 -24 -11l-172 4l-186 -4q-20 0 -22 7q-4 10 -4 27.5t4.5 25.5t21.5 8h92q16 0 16 283t-2 318.5t-3 40t-2 6.5q-2 4 -8 5l-126 -9q-10 0 -10 10zM335 1020q0 15 20 63.5t53.5 78.5t60 30t53.5 -12q28 -12 48 -27 q54 -39 82 -39q50 0 70 68q4 14 7 16t23 2t20 -8q0 -20 -18 -67.5t-51.5 -81t-64.5 -33.5t-51.5 7.5t-37.5 19t-33 22.5q-38 27 -68 27q-50 0 -68 -67q0 -5 -2 -5l-4 -3l-18 -1q-20 0 -21 10z" />
<glyph unicode="&#xf2;" horiz-adv-x="913" d="M56 379q0 87 31 168t85 140q120 130 310 130q169 1 273 -121q103 -120 103 -292q0 -194 -108 -316q-110 -125 -302 -125q-168 0 -280 121t-112 295zM213 346q0 -152 86 -249q59 -69 149 -69q250 0 250 390q0 180 -105 280q-57 54 -137 54q-244 0 -243 -406zM256 1195 q0 25 21.5 45t63 20t62.5 -56l100 -266q4 -9 4.5 -16.5t-14.5 -7.5h-33q-10 0 -20 14l-168 219q-16 23 -16 48z" />
<glyph unicode="&#xf3;" horiz-adv-x="913" d="M56 379q0 87 31 168t85 140q120 130 310 130q169 1 273 -121q103 -120 103 -292q0 -194 -108 -316q-110 -125 -302 -125q-168 0 -280 121t-112 295zM213 346q0 -152 86 -249q59 -69 149 -69q250 0 250 390q0 180 -105 280q-57 54 -137 54q-244 0 -243 -406zM434 922 q0 8 4 16l100 266q20 56 62 56t64 -20t22 -44.5t-17 -48.5l-168 -219q-11 -14 -21 -14h-32q-14 0 -14 8z" />
<glyph unicode="&#xf4;" horiz-adv-x="913" d="M56 379q0 87 31 168t85 140q120 130 310 130q169 1 273 -121q103 -120 103 -292q0 -194 -108 -316q-110 -125 -302 -125q-168 0 -280 121t-112 295zM213 346q0 -152 86 -249q59 -69 149 -69q250 0 250 390q0 180 -105 280q-57 54 -137 54q-244 0 -243 -406zM237.5 940 q-0.5 6 9.5 20l162 244q14 22 19.5 25.5t21.5 3.5h43q15 0 20 -3.5t19 -25.5l162 -244q10 -16 10 -21t-18 -5h-25q-5 0 -11 6t-10 8l-166 144q-2 2 -4 2t-4 -2l-166 -144q-14 -14 -20 -14h-24q-18 0 -18.5 6z" />
<glyph unicode="&#xf5;" horiz-adv-x="913" d="M56 379q0 87 31 168t85 140q120 130 310 130q169 1 273 -121q103 -120 103 -292q0 -194 -108 -316q-110 -125 -302 -125q-168 0 -280 121t-112 295zM213 346q0 -152 86 -249q59 -69 149 -69q250 0 250 390q0 180 -105 280q-57 54 -137 54q-244 0 -243 -406zM249 1020 q0 15 20 63.5t53.5 78.5t60 30t53.5 -12q28 -12 48 -27q54 -39 82 -39q50 0 70 68q4 14 7 16t23 2t20 -8q0 -20 -18 -67.5t-51.5 -81t-64.5 -33.5t-51.5 7.5t-37.5 19t-33 22.5q-38 27 -68 27q-50 0 -68 -67q0 -5 -2 -5l-4 -3l-18 -1q-20 0 -21 10z" />
<glyph unicode="&#xf6;" horiz-adv-x="913" d="M56 379q0 87 31 168t85 140q120 130 310 130q169 1 273 -121q103 -120 103 -292q0 -194 -108 -316q-110 -125 -302 -125q-168 0 -280 121t-112 295zM196 1088q0 40 22 69q41 54 93 54q106 -1 106 -89q0 -52 -41 -86t-84 -34t-69.5 23t-26.5 63zM213 346q0 -152 86 -249 q59 -69 149 -69q250 0 250 390q0 180 -105 280q-57 54 -137 54q-244 0 -243 -406zM523 1088q0 40 22 69q41 54 93 54q106 -1 106 -89q0 -52 -41 -86t-84 -34t-69.5 23t-26.5 63z" />
<glyph unicode="&#xf7;" horiz-adv-x="1079" d="M58 414v19t1 20t5 15q8 14 36 14h883q25 0 32 -12t7 -40t-8 -39.5t-41 -11.5h-875q-40 -1 -40 35zM428 655.5q0 36.5 27.5 63.5t64.5 27t62.5 -26t25.5 -62.5t-26.5 -63t-63.5 -26.5t-63.5 25.5t-26.5 62zM438 206.5q0 37.5 27 63t63.5 25.5t63 -26.5t26.5 -63.5 t-25.5 -63t-62 -26t-64.5 26.5t-28 64z" />
<glyph unicode="&#xf8;" horiz-adv-x="913" d="M56 372.5q0 93.5 31 174.5t85 140q120 130 310 130q64 0 103.5 -14t43 -14.5t5 -0.5t2.5 1l1.5 1.5t0.5 2t1 1.5l80 138q3 6 11.5 6t19 -7t14 -9t5 -3.5t3.5 -4t2 -6t-2 -7.5l-78 -135q-7 -10 -2 -14q78 -56 122 -147t44 -194t-28 -184t-80 -139q-110 -125 -302 -125 q-99 0 -182 45q-7 4 -12 -6l-76 -131l-2 -3q-4 -5 -9 -5t-24.5 11.5t-19.5 17.5l4 12l78 135q3 9 -7 17q-68 58 -105 140q-37 83 -37 176.5zM213 346q0 -104 47 -192q5 -8 6.5 -7t3.5 7l314 542q2 2 2 8t-8 8q-60 40 -122 40q-244 0 -243 -406zM312 84q62 -56 128 -56 t110 23.5t71.5 61t44.5 89.5q30 92 30 217t-57 224q-8 12 -10 9q-3 -4 -5 -9l-312 -543q-6 -10 0 -16z" />
<glyph unicode="&#xf9;" horiz-adv-x="1044" d="M22 731q0 47 25 51q4 0 5 1q9 2 102.5 5.5t124.5 3.5t33 -3.5t2 -14.5v-557q0 -131 220 -131q57 0 119 8t62 18v242q-1 374 -17 375l-102 -4q-16 0 -16 6q0 44 8 49.5t22 5.5l238 10q20 0 20 -10v-8q-2 -489 -2 -578.5t3 -113.5t9.5 -31.5t20.5 -7.5l90 13q12 0 12.5 -25 t-3.5 -30.5t-135 -24.5t-135 -19t-6.5 52.5t-4 52.5t-21.5 -10t-54 -24t-74 -27q-158 -54 -267 -23q-143 41 -143 268v322q0 152 -18 151l-101 -2q-17 0 -17 10zM277 1195q0 25 21.5 45t63 20t62.5 -56l100 -266q4 -9 4.5 -16.5t-14.5 -7.5h-33q-10 0 -20 14l-168 219 q-16 23 -16 48z" />
<glyph unicode="&#xfa;" horiz-adv-x="1044" d="M22 731q0 47 25 51q4 0 5 1q9 2 102.5 5.5t124.5 3.5t33 -3.5t2 -14.5v-557q0 -131 220 -131q57 0 119 8t62 18v242q-1 374 -17 375l-102 -4q-16 0 -16 6q0 44 8 49.5t22 5.5l238 10q20 0 20 -10v-8q-2 -489 -2 -578.5t3 -113.5t9.5 -31.5t20.5 -7.5l90 13q12 0 12.5 -25 t-3.5 -30.5t-135 -24.5t-135 -19t-6.5 52.5t-4 52.5t-21.5 -10t-54 -24t-74 -27q-158 -54 -267 -23q-143 41 -143 268v322q0 152 -18 151l-101 -2q-17 0 -17 10zM455 922q0 8 4 16l100 266q20 56 62 56t64 -20t22 -44.5t-17 -48.5l-168 -219q-11 -14 -21 -14h-32 q-14 0 -14 8z" />
<glyph unicode="&#xfb;" horiz-adv-x="1044" d="M22 731q0 47 25 51q4 0 5 1q9 2 102.5 5.5t124.5 3.5t33 -3.5t2 -14.5v-557q0 -131 220 -131q57 0 119 8t62 18v242q-1 374 -17 375l-102 -4q-16 0 -16 6q0 44 8 49.5t22 5.5l238 10q20 0 20 -10v-8q-2 -489 -2 -578.5t3 -113.5t9.5 -31.5t20.5 -7.5l90 13q12 0 12.5 -25 t-3.5 -30.5t-135 -24.5t-135 -19t-6.5 52.5t-4 52.5t-21.5 -10t-54 -24t-74 -27q-158 -54 -267 -23q-143 41 -143 268v322q0 152 -18 151l-101 -2q-17 0 -17 10zM258.5 940q-0.5 6 9.5 20l162 244q14 22 19.5 25.5t21.5 3.5h43q15 0 20 -3.5t19 -25.5l162 -244 q10 -16 10 -21t-18 -5h-25q-5 0 -11 6t-10 8l-166 144q-2 2 -4 2t-4 -2l-166 -144q-14 -14 -20 -14h-24q-18 0 -18.5 6z" />
<glyph unicode="&#xfc;" horiz-adv-x="1044" d="M22 731q0 47 25 51q4 0 5 1q9 2 102.5 5.5t124.5 3.5t33 -3.5t2 -14.5v-557q0 -131 220 -131q57 0 119 8t62 18v242q-1 374 -17 375l-102 -4q-16 0 -16 6q0 44 8 49.5t22 5.5l238 10q20 0 20 -10v-8q-2 -489 -2 -578.5t3 -113.5t9.5 -31.5t20.5 -7.5l90 13q12 0 12.5 -25 t-3.5 -30.5t-135 -24.5t-135 -19t-6.5 52.5t-4 52.5t-21.5 -10t-54 -24t-74 -27q-158 -54 -267 -23q-143 41 -143 268v322q0 152 -18 151l-101 -2q-17 0 -17 10zM217 1088q0 40 22 69q41 54 93 54q106 -1 106 -89q0 -52 -41 -86t-84 -34t-69.5 23t-26.5 63zM544 1088 q0 40 22 69q41 54 93 54q106 -1 106 -89q0 -52 -41 -86t-84 -34t-69.5 23t-26.5 63z" />
<glyph unicode="&#xfd;" horiz-adv-x="956" d="M45 754q1 34 27 34l158 -4l180 4q20 0 26 -8t6 -26q0 -32 -30 -33h-40q-46 -1 -46 -15q0 -23 64 -199.5t93 -246.5t34 -82t8 -19t6 -13q6 -13 10 -13q5 -1 29 65q166 486 165 510q-1 12 -37 13h-72q-24 1 -26 19v13t1 15q1 4 3 10q4 10 24 10l138 -4l118 4q16 0 22 -7.5 t6 -22t-1 -19t-3 -9.5q-4 -9 -21 -9h-31q-18 -1 -24 -17q-22 -59 -138 -356t-127 -323.5t-22 -60.5q-36 -108 -53.5 -157t-25 -71.5l-9 -27t-8.5 -22.5t-10 -23t-9.5 -20t-11.5 -23t-13.5 -22t-16.5 -25q-16 -22 -31 -40.5t-22 -27.5t-8.5 -11t-7 -8t-7.5 -8l-7 -7t-9 -7 t-10 -6q-10 -6 -74.5 -37t-82.5 -31q-43 0 -43 47q0 34 41 90q18 26 43.5 34.5l46.5 15.5l36 12t35 14t34 17q34 20 44 46q90 221 90 240.5t-57.5 161.5t-147.5 355t-106 252t-19 43q-4 3 -14 3h-40q-24 1 -26 19q0 4 -1 14zM478 922q0 8 4 16l100 266q20 56 62 56t64 -20 t22 -44.5t-17 -48.5l-168 -219q-11 -14 -21 -14h-32q-14 0 -14 8z" />
<glyph unicode="&#xfe;" horiz-adv-x="1019" d="M33 1322q0 14 3.5 27t4.5 16t2 5t2 3t3.5 1.5t3.5 0.5q5 2 131.5 10.5t136.5 8.5q18 0 18 -36q2 -266 2 -608v-42q0 -8 2 -10.5t6 -0.5q12 4 16 8t5 4.5t2 1.5t23 17t83 39t135 23t142.5 -30t111.5 -84q88 -110 88 -278q0 -131 -74 -239q-127 -183 -360 -183 q-72 0 -148 25l-26 9q-4 0 -4 -26l6 -367q4 -131 10 -131h144q20 0 24 -7t4 -26q0 -35 -28 -35l-222 4l-204 -4q-17 0 -22 8t-5 26t5 26t22 8h110q6 0 6 322l-2 418q0 986 -20 1070l-1.5 9t-2.5 5.5t-3 3.5q-1 3 -5 3h-8l-107 -9q-10 0 -10 14zM342 100q0 -16 30 -34 q66 -40 131 -40t111.5 22t79.5 58q32 36 55 82q46 90 45.5 179t-20.5 150t-54 102q-74 87 -186 87q-110 0 -172 -53q-20 -19 -20 -27v-526z" />
<glyph unicode="&#xff;" horiz-adv-x="956" d="M45 754q1 34 27 34l158 -4l180 4q20 0 26 -8t6 -26q0 -32 -30 -33h-40q-46 -1 -46 -15q0 -23 64 -199.5t93 -246.5t34 -82t8 -19t6 -13q6 -13 10 -13q5 -1 29 65q166 486 165 510q-1 12 -37 13h-72q-24 1 -26 19v13t1 15q1 4 3 10q4 10 24 10l138 -4l118 4q16 0 22 -7.5 t6 -22t-1 -19t-3 -9.5q-4 -9 -21 -9h-31q-18 -1 -24 -17q-22 -59 -138 -356t-127 -323.5t-22 -60.5q-36 -108 -53.5 -157t-25 -71.5l-9 -27t-8.5 -22.5t-10 -23t-9.5 -20t-11.5 -23t-13.5 -22t-16.5 -25q-16 -22 -31 -40.5t-22 -27.5t-8.5 -11t-7 -8t-7.5 -8l-7 -7t-9 -7 t-10 -6q-10 -6 -74.5 -37t-82.5 -31q-43 0 -43 47q0 34 41 90q18 26 43.5 34.5l46.5 15.5l36 12t35 14t34 17q34 20 44 46q90 221 90 240.5t-57.5 161.5t-147.5 355t-106 252t-19 43q-4 3 -14 3h-40q-24 1 -26 19q0 4 -1 14zM240 1088q0 40 22 69q41 54 93 54 q106 -1 106 -89q0 -52 -41 -86t-84 -34t-69.5 23t-26.5 63zM567 1088q0 40 22 69q41 54 93 54q106 -1 106 -89q0 -52 -41 -86t-84 -34t-69.5 23t-26.5 63z" />
<glyph unicode="&#x152;" horiz-adv-x="2039" d="M86 652q0 325 208 535q128 130 310 178q90 24 182 23.5t160 -7t114 -13t83 -6.5l516 6q104 0 114 3q11 3 11 13q0 2 1 9t2 10t4 9q4 8 26.5 8t31.5 -6t9 -24l-8 -270q0 -14 -8 -18t-32 -4q-36 0 -36 30l6 158q0 6 -195.5 10t-351.5 4q-12 0 -12.5 -171t1.5 -283t5 -115.5 t16 -3.5h342q107 1 107 27v106q0 20 38 20t38 -18l-4 -164l4 -174q0 -18 -38 -18t-38 20v102q0 32 -107 32h-260.5t-90.5 -0.5t-3.5 -1.5t-2.5 -2.5t-2 -4.5t-1 -7t5.5 -286t16.5 -282l627 6q10 0 13 6t5 34t6 183q0 18 38 18.5t38 -20.5l-6 -287q0 -28 -41 -28l-768 6 q-91 0 -204 -11t-196.5 -11t-165 20t-156.5 57.5t-139 96t-111 132.5q-101 158 -101 374zM291 712.5q0 -152.5 36.5 -278.5t106.5 -219t166 -137q80 -39 270 -39q100 0 156 29q26 14 26 24l-2 314l-8 602v242q0 39 -69.5 54t-169 15t-165.5 -23.5t-118 -65.5t-95.5 -99 t-72.5 -125q-61 -141 -61 -293.5z" />
<glyph unicode="&#x153;" horiz-adv-x="1501" d="M56 375q0 185 116 312q120 130 310 130q176 0 282 -133q12 -14 17 -14t8 2t5 4t6 7q120 134 312 134q152 0 234 -101q78 -94 78 -230q0 -32 -118 -32l-456 11q-6 -15 -6 -72t16 -111t44 -93t66 -67q74 -56 166 -56q140 0 255 119q14 14 17.5 13.5t21.5 -16t18 -19.5 t-16 -24.5t-49 -50.5t-75 -58q-100 -67 -218 -67q-214 0 -312 140q-11 16 -16.5 9.5t-17 -21.5t-34 -36t-58.5 -43q-79 -49 -182.5 -49t-176.5 32.5t-125 88.5q-112 121 -112 291zM213 346q0 -152 86 -249q59 -69 149 -69q248 0 248 390q0 164 -83 262q-61 72 -157 72 q-244 0 -243 -406zM854 522q0 -10 18 -10l352 9q46 -1 46 7q0 146 -91 204q-44 28 -91.5 28t-90.5 -23t-73 -59q-64 -76 -70 -156z" />
<glyph unicode="&#x178;" horiz-adv-x="1222" d="M14 1339.5q0 24.5 7.5 30.5t29.5 6l217 -6l242 6q17 0 22.5 -8.5t5.5 -32t-5.5 -28.5t-30.5 -5h-121q-19 0 -21 -3t11 -34t70 -140.5t128 -241t79.5 -148.5t13 -25t6.5 -11t5 -4q6 0 62.5 109t87.5 169.5t56 109.5t47 96q47 100 47 111q-1 12 -5 12h-106q-26 0 -34.5 5 t-8.5 29t6.5 32t28.5 8l160 -6l156 6q22 0 30 -6.5t8 -30t-8 -30.5t-30 -7h-70q-6 0 -174 -295.5t-187.5 -325t-19.5 -40.5q1 -579 19 -579h140q18 0 24 -7t6 -29t-6 -30t-24 -8l-245 6l-233 -6q-20 0 -26 7.5t-6 32t7 29.5t33 5h104q20 0 20 493q0 6 -0.5 10.5t-1 7.5 t-2.5 7.5t-3 6.5q-2 6 -43.5 81.5t-200.5 354.5t-171 279h-59q-21 0 -29 6.5t-8 31zM398 1600q0 40 22 69q41 54 93 54q106 -1 106 -89q0 -52 -41 -86t-84 -34t-69.5 23t-26.5 63zM725 1600q0 40 22 69q41 54 93 54q106 -1 106 -89q0 -52 -41 -86t-84 -34t-69.5 23t-26.5 63 z" />
<glyph unicode="&#x2c6;" horiz-adv-x="819" d="M176.5 940q-0.5 6 9.5 20l162 244q14 22 19.5 25.5t21.5 3.5h43q15 0 20 -3.5t19 -25.5l162 -244q10 -16 10 -21t-18 -5h-25q-5 0 -11 6t-10 8l-166 144q-2 2 -4 2t-4 -2l-166 -144q-14 -14 -20 -14h-24q-18 0 -18.5 6z" />
<glyph unicode="&#x2dc;" horiz-adv-x="819" d="M188 1020q0 15 20 63.5t53.5 78.5t60 30t53.5 -12q28 -12 48 -27q54 -39 82 -39q50 0 70 68q4 14 7 16t23 2t20 -8q0 -20 -18 -67.5t-51.5 -81t-64.5 -33.5t-51.5 7.5t-37.5 19t-33 22.5q-38 27 -68 27q-50 0 -68 -67q0 -5 -2 -5l-4 -3l-18 -1q-20 0 -21 10z" />
<glyph unicode="&#x2000;" horiz-adv-x="879" />
<glyph unicode="&#x2001;" horiz-adv-x="1759" />
<glyph unicode="&#x2002;" horiz-adv-x="879" />
<glyph unicode="&#x2003;" horiz-adv-x="1759" />
<glyph unicode="&#x2004;" horiz-adv-x="586" />
<glyph unicode="&#x2005;" horiz-adv-x="439" />
<glyph unicode="&#x2006;" horiz-adv-x="293" />
<glyph unicode="&#x2007;" horiz-adv-x="293" />
<glyph unicode="&#x2008;" horiz-adv-x="219" />
<glyph unicode="&#x2009;" horiz-adv-x="351" />
<glyph unicode="&#x200a;" horiz-adv-x="97" />
<glyph unicode="&#x2010;" horiz-adv-x="528" d="M43 413q0 13 13.5 49t25.5 38q14 2 192.5 8t188.5 6t10 -21t-5 -49q-6 -26 -16 -28q-22 -2 -198 -9t-193.5 -7t-17.5 13z" />
<glyph unicode="&#x2011;" horiz-adv-x="528" d="M43 413q0 13 13.5 49t25.5 38q14 2 192.5 8t188.5 6t10 -21t-5 -49q-6 -26 -16 -28q-22 -2 -198 -9t-193.5 -7t-17.5 13z" />
<glyph unicode="&#x2012;" horiz-adv-x="528" d="M43 413q0 13 13.5 49t25.5 38q14 2 192.5 8t188.5 6t10 -21t-5 -49q-6 -26 -16 -28q-22 -2 -198 -9t-193.5 -7t-17.5 13z" />
<glyph unicode="&#x2013;" d="M14 396.5q0 30.5 4 37t21 6.5h940q22 0 26.5 -5t4.5 -25v-25q0 -21 -5 -27t-26 -6h-934q-23 0 -27 7t-4 37.5z" />
<glyph unicode="&#x2014;" horiz-adv-x="1536" d="M14 396.5q0 30.5 4 37t21 6.5h1452q22 0 26.5 -5t4.5 -25v-25q0 -21 -5 -27t-26 -6h-1446q-23 0 -27 7t-4 37.5z" />
<glyph unicode="&#x2018;" horiz-adv-x="428" d="M56 1073.5q0 33.5 20.5 84t50.5 92.5q29 43 61 79q68 78 81.5 78t29 -15t15.5 -28q0 -2 -36 -36q-108 -102 -108 -150q0 -28 34 -60q64 -62 64 -92t-18 -62.5t-42.5 -57t-38.5 -24.5t-40.5 34.5t-49.5 79t-23 78z" />
<glyph unicode="&#x2019;" horiz-adv-x="428" d="M114 926q0 2 36 35q108 102 108 151q0 28 -34 60q-64 63 -64 92.5t18 61.5t42.5 56.5t38.5 24.5t40.5 -34.5t49.5 -78.5t23 -78t-20.5 -84t-50.5 -93q-29 -43 -61 -79q-68 -78 -81.5 -78t-29 15.5t-15.5 28.5z" />
<glyph unicode="&#x201a;" horiz-adv-x="428" d="M114 -244q0 2 36 35q108 102 108 151q0 28 -34 60q-64 63 -64 92.5t18 61.5t42.5 56.5t38.5 24.5t40.5 -34.5t49.5 -78.5t23 -78t-20.5 -84t-50.5 -93q-29 -43 -61 -79q-68 -78 -81.5 -78t-29 15.5t-15.5 28.5z" />
<glyph unicode="&#x201c;" horiz-adv-x="806" d="M56 1073.5q0 33.5 20.5 84t50.5 92.5q29 43 61 79q68 78 81.5 78t29 -15t15.5 -28q0 -2 -36 -36q-108 -102 -108 -150q0 -28 34 -60q64 -62 64 -92t-18 -62.5t-42.5 -57t-38.5 -24.5t-40.5 34.5t-49.5 79t-23 78zM435 1073.5q0 33.5 20.5 84t50.5 92.5q29 43 61 79 q68 78 81.5 78t29 -15t15.5 -28q0 -2 -36 -36q-108 -102 -108 -150q0 -28 34 -60q64 -62 64 -92t-18 -62.5t-42.5 -57t-38.5 -24.5t-40.5 34.5t-49.5 79t-23 78z" />
<glyph unicode="&#x201d;" horiz-adv-x="806" d="M114 926q0 2 36 35q108 102 108 151q0 28 -34 60q-64 63 -64 92.5t18 61.5t42.5 56.5t38.5 24.5t40.5 -34.5t49.5 -78.5t23 -78t-20.5 -84t-50.5 -93q-29 -43 -61 -79q-68 -78 -81.5 -78t-29 15.5t-15.5 28.5zM493 926q0 2 36 35q108 102 108 151q0 28 -34 60 q-64 63 -64 92.5t18 61.5t42.5 56.5t38.5 24.5t40.5 -34.5t49.5 -78.5t23 -78t-20.5 -84t-50.5 -93q-29 -43 -61 -79q-68 -78 -81.5 -78t-29 15.5t-15.5 28.5z" />
<glyph unicode="&#x201e;" horiz-adv-x="806" d="M114 -244q0 2 36 35q108 102 108 151q0 28 -34 60q-64 63 -64 92.5t18 61.5t42.5 56.5t38.5 24.5t40.5 -34.5t49.5 -78.5t23 -78t-20.5 -84t-50.5 -93q-29 -43 -61 -79q-68 -78 -81.5 -78t-29 15.5t-15.5 28.5zM493 -244q0 2 36 35q108 102 108 151q0 28 -34 60 q-64 63 -64 92.5t18 61.5t42.5 56.5t38.5 24.5t40.5 -34.5t49.5 -78.5t23 -78t-20.5 -84t-50.5 -93q-29 -43 -61 -79q-68 -78 -81.5 -78t-29 15.5t-15.5 28.5z" />
<glyph unicode="&#x2022;" horiz-adv-x="729" d="M116 670q0 102 73 175t175.5 73t175 -73t72.5 -175q0 -68 -33 -125t-90 -90t-124.5 -33t-124.5 33t-90.5 90t-33.5 125z" />
<glyph unicode="&#x2026;" horiz-adv-x="1357" d="M116 81q0 31 34 77.5t59 46.5t53 -13.5t51 -38t23 -49t-11 -48.5t-25 -41q-34 -38 -67 -37.5t-75 36.5t-42 67zM568 81q0 31 34 77.5t59 46.5t53 -13.5t51 -38t23 -49t-11 -48.5t-25 -41q-34 -38 -67 -37.5t-75 36.5t-42 67zM1021 81q0 31 34 77.5t59 46.5t53 -13.5 t51 -38t23 -49t-11 -48.5t-25 -41q-34 -38 -67 -37.5t-75 36.5t-42 67z" />
<glyph unicode="&#x202f;" horiz-adv-x="351" />
<glyph unicode="&#x2039;" horiz-adv-x="528" d="M96 397q0 6 14 20.5t49 46.5t59 54.5t67 64.5q90 88 93.5 88.5t19.5 -13.5t16 -19.5t-65 -119t-65 -124t65 -123t65 -120.5t-16 -20.5t-20 -12.5t-27.5 23.5t-66 65.5t-63.5 61.5t-43 39t-33 29.5t-24 23.5t-19 21.5t-6 14z" />
<glyph unicode="&#x203a;" horiz-adv-x="528" d="M114 151.5q0 5.5 65 119.5t65 124.5t-65 123t-65 120t16 20.5t20 13t28 -23.5t66 -66t64 -62t43 -39t32 -29.5t25 -23q24 -24 24 -32.5t-13.5 -23.5t-49 -47t-59.5 -54t-66 -64q-90 -88 -94 -88.5t-20 13t-16 19z" />
<glyph unicode="&#x205f;" horiz-adv-x="439" />
<glyph unicode="&#x20ac;" horiz-adv-x="1241" d="M53 572l35 88h144q48 186 194 297q155 118 332 118q124 0 220 -38q96 -37 190 -125q-18 -49 -44 -93q-92 122 -248 158q-53 12 -107.5 12t-102 -8t-101 -30.5t-97.5 -58.5q-100 -80 -144 -232h733l-35 -88h-710q-4 -22 -5 -50l5 -49h669l-39 -90h-616q92 -237 312 -307 q63 -20 123.5 -20t114 12t89 28t71.5 40q46 32 88 75v-115q-162 -130 -354 -129q-194 0 -348 119q-142 112 -190 297h-172l34 90h123q-4 20 -4 51.5t4 47.5h-164z" />
<glyph unicode="&#x2122;" horiz-adv-x="1632" d="M76 1178q0 10 3 30q12 74 13.5 90t2.5 21q4 14 22 14t22.5 -3.5t6.5 -16.5q24 -3 82 -3h329q66 0 88 5q3 18 7 19q10 2 20 2q24 0 24 -23l-4 -127q0 -17 -5 -21t-21 -4t-21.5 4.5t-5.5 24.5l1 25q1 27 1 37q-45 4 -88 4h-97q-4 -24 -4 -132l-6 -362v-45h64q16 0 16 -26.5 t-16 -26.5l-121 4l-123 -4q-10 0 -13 6t-3 22.5t4 20.5t16 4h56q10 97 10 469l-2 70h-121q-43 0 -73 -6l-7 -58q-3 -22 -8 -26.5t-22 -4.5t-22 3.5t-5 13.5zM758 676v17q0 24 20 24h50l20 547h-64q-18 0 -18 28q0 20 6 22.5t12 2.5l107 -2l55 2q25 -1 33 -23l193 -483 l182 471q12 33 38 33h34l102 2q13 0 15.5 -4.5t2.5 -22.5q0 -26 -22 -26h-41q-3 -18 -3 -64v-84q0 -302 13 -399h47q16 0 16 -26.5t-14 -26.5l-110 4l-109 -4q-12 0 -15.5 4.5t-3.5 26.5t21 22h43q4 24 4 158.5t-4 306.5l-158 -404q-10 -25 -26 -48.5t-27 -45.5t-27 -22 q-18 0 -28 28q-2 4 -2 6l-203 504q-8 -250 -8 -359t2 -124h63q16 0 16 -27q0 -26 -16 -26l-92 4l-88 -4q-15 0 -16 12z" />
<glyph unicode="&#x25fc;" horiz-adv-x="787" d="M0 0v788h788v-788h-788z" />
<glyph unicode="&#xfb01;" horiz-adv-x="1021" d="M66 20.5v18t2 9.5q4 10 22 10h84q6 24 6 122l-2 172v164q0 186 -4 186h-70q-18 0 -22 6t-4 27t3 27t17 6h64q16 0 16 10q0 131 12 256q16 170 111 265t237 95q123 0 198 -64q69 -60 69 -122q0 -35 -37 -66.5t-58 -31.5t-29 5t-10.5 39t-12 72t-22 59t-30.5 33 q-30 19 -68.5 19.5t-64 -9.5t-44 -27t-34 -43.5t-25.5 -55t-17.5 -65.5t-12 -71t-6.5 -76q-4 -68 -4 -152v-46q0 -17 5 -20.5t27 -3.5h240l232 10q20 0 20 -18v-336q0 -366 10 -366h78q17 0 20.5 -7t3.5 -26t-4 -27t-20 -8l-166 4l-176 -4q-17 0 -20.5 7t-3.5 26t5 27t25 8 h90q6 0 6 212t-4.5 320t-6.5 111t-11 3h-322q-18 0 -23 -3t-5 -15v-340q0 -262 16 -288h127q16 0 20.5 -8t4.5 -25t-5 -26t-20 -9l-205 4l-176 -4q-20 0 -22 7q-4 10 -4 23.5z" />
<glyph unicode="&#xfb02;" horiz-adv-x="1026" d="M62 20.5v18t2 9.5q4 10 22 10h84q10 0 10 122l-2 172v123q0 227 -4 227h-72q-18 0 -23 6.5t-5 27t4 26.5t18 6h62q12 0 15 3t3 15l-2 199q0 211 130 327q92 82 241 82q77 0 155 -44q16 -10 23 -11.5t27 1t39 6t30 6t20 2.5q15 0 15 -37q-8 -370 -8 -814.5t8 -444.5h98 q26 0 27 -34q0 -27 -8.5 -30.5t-18.5 -3.5l-178 4l-186 -4q-17 0 -22 8t-5 22t0.5 18.5t2.5 9.5q4 10 22 10h96q8 0 8 168v448q0 22 -3 26t-19 4h-308q-22 0 -27 -3t-5 -15v-463q0 -165 10 -165h116q26 0 29 -20q1 -4 1 -14q0 -34 -30 -34l-190 4l-176 -4q-20 0 -22 7 q-4 10 -4 23.5zM324 796q0 -22 4 -25t32 -3h304q19 0 22.5 5t3.5 80t-2 179.5t-4.5 114t-5 14t-9.5 13.5t-13.5 19.5t-19 35t-21.5 41t-24 33.5q-28 34 -74.5 34.5t-73.5 -11.5t-46 -31t-32 -48t-21 -60t-13 -72q-7 -69 -7 -159v-160z" />
<glyph unicode="&#xfb03;" horiz-adv-x="1542" d="M72 19.5v19t3 9.5q3 10 21 10h76q8 0 8 122l-2 172v136q0 214 -4 214h-76q-18 0 -21 6t-3 27t2.5 27t15.5 6h70q10 0 12 2.5t2 29t0.5 53.5t3 67t6.5 70t12 68t19 67t28 61t38 56q48 55 119.5 89.5t140.5 34.5q138 0 225 -98q10 -12 14 -13t12 11q98 128 265 128 q140 0 221 -87q45 -48 45 -90.5t-37 -74.5t-58 -32t-28.5 5t-10.5 39t-12 72t-22 59t-31 33q-30 19 -73 19.5t-73 -16.5t-50.5 -43t-35.5 -67t-23.5 -82t-12.5 -95q-8 -80 -8 -196v-46q0 -18 4 -21t28 -3h240l232 10q20 0 20 -18v-336q0 -366 10 -366h78q17 0 21 -7t4 -26 t-4.5 -27t-20.5 -8l-166 4l-176 -4q-17 0 -20.5 7.5t-3.5 26t6 26.5q4 8 24 8h90q6 0 6 212t-4.5 320t-6.5 111t-11 3h-322q-18 0 -23 -5t-5 -23v-330q0 -288 16 -288h102q26 0 29 -20q1 -4 1 -14q0 -34 -27 -34l-183 4l-176 -4q-18 0 -22 7.5t-4 22v19t3 9.5q3 10 21 10h82 q8 0 8 122l-2 172v314q0 36 -8 36l-76 2h-254q-28 0 -28 -4v-354q0 -288 16 -288h117q20 0 24.5 -7.5t4.5 -21t-1 -18.5t-3 -10q-4 -11 -25 -11l-201 4l-166 -4q-18 0 -22 7.5t-4 22zM324 790.5q0 -17.5 6 -20.5q4 -2 30 -2h318q20 0 20 10q0 234 25 325q4 16 4 19.5 t-1.5 5.5t-6.5 5t-18 15q-25 22 -51 68t-53.5 68t-69.5 22t-74.5 -14t-53.5 -37t-35.5 -59.5t-22 -73t-11.5 -85.5t-5 -90t-1 -90v-66.5z" />
<glyph unicode="&#xfb04;" horiz-adv-x="1544" d="M72 24q0 18 4 26t20 8h76q8 0 8 122l-2 172v123q0 227 -4 227h-66q-19 0 -26.5 7t-7.5 26t6 26t22 7h60q11 0 12.5 2t1.5 24.5t0.5 46t3 61.5t6.5 68t12 69t19 70.5t28 66t38 61.5q47 60 119 94.5t139 34.5t129 -27t100 -73q4 -6 10 0q105 128 285 128q77 0 155 -44 q16 -10 23 -11.5t27 1t39 6t30 6t20 2.5q15 0 15 -37q-8 -370 -8 -814.5t6 -444.5h98q20 0 24 -8q5 -8 5 -26q-1 -34 -29 -34l-176 4l-186 -4q-16 0 -21 8t-5 26t4.5 26t21.5 8h96q6 0 6 168v448q0 22 -3 26t-19 4h-308q-22 0 -27 -3t-5 -15v-463q0 -165 12 -165h106 q17 0 22.5 -8t5.5 -26q0 -34 -28 -34l-182 4l-174 -4q-26 0 -28 19v19q0 30 26 30h82q10 0 10 122l-2 172v338q0 11 -2.5 12.5t-19.5 1.5h-316q-20 0 -24 -2.5t-4 -15.5v-340q0 -288 16 -288h119q26 0 26.5 -34t-26.5 -34l-203 4l-166 -4q-17 0 -21.5 8t-4.5 26zM326 786 q0 -13 4 -16q4 -2 30 -2h322q11 0 12.5 3t1.5 21l-2 193q0 98 10 128.5t10 31.5t-22 18t-37 43.5t-25 40t-25 29.5q-30 30 -69.5 30t-65.5 -9t-45 -25t-34 -40t-25.5 -50t-18 -59t-11.5 -63t-7 -68q-3 -62 -3 -130v-76zM844 796q0 -21 5 -24.5t31 -3.5h304q19 0 22.5 5 t3.5 80t-2 179.5t-4 114t-5 14t-9.5 13.5t-13.5 19.5t-19.5 35t-21.5 41t-24 33.5q-28 34 -74.5 34.5t-73.5 -11.5t-45.5 -30.5t-32 -48t-21.5 -60.5t-12 -72q-8 -69 -8 -159v-160z" />
</font>
</defs>
</svg>
